<svg xmlns="http://www.w3.org/2000/svg" width="512" height="5632" viewBox="0 0 512 5632"><svg width="512" height="512"><g transform="matrix(6 0 0 7 -3004.499 -1353.422)" fill="#fff"><path d="M528.14 216.247c.162.034.313.072.477.105l.027-.01c4.643.875 9.907 1.326 15.06 1.326 5.01 0 10.13-.426 14.678-1.253l.033.012c.252-.05.486-.105.733-.157 8.16-1.59 14.3-4.508 14.3-8.63 0-6.512-15.326-10.026-29.745-10.026-14.42 0-29.744 3.515-29.744 10.027 0 4.1 6.08 7.017 14.18 8.61zm15.563-1.1c-3.358 0-6.454-.176-9.266-.478 2.842-.6 5.854-.93 8.98-.93 3.2 0 6.278.34 9.178.97-2.71.273-5.682.432-8.892.432zm0-15.015c16.867 0 27.225 4.373 27.225 7.508 0 2.062-4.48 4.658-12.343 6.195-4.548-1.663-9.7-2.614-15.167-2.614-5.386 0-10.466.927-14.966 2.54-7.63-1.54-11.974-4.09-11.974-6.12 0-3.13 10.358-7.503 27.225-7.503zm22.66 17.628c-.992.35-2.034.67-3.114.967 6.26 3.64 10.36 8.967 10.75 14.94-2.387.66-9.175 2.32-16.89 2.32-11.246 0-19.6-3.377-24.83-10.035-.24-.305-.606-.48-.99-.48h-.06c-.406.02-.78.232-1 .574-4.158 6.426-14.128 7.218-17.377 7.3.518-5.9 4.657-11.148 10.916-14.727-1.078-.31-2.117-.64-3.104-1-6.39 4.267-10.39 10.3-10.39 16.98 0 .674.53 1.23 1.205 1.26 0 0 .255.012.71.012 3.235 0 13.693-.538 19.16-7.11 5.72 6.38 14.58 9.74 25.756 9.74 9.963 0 18.217-2.59 18.563-2.7.523-.166.88-.65.88-1.2.002-6.614-3.914-12.59-10.188-16.847z"/><circle cx="530.303" cy="243.51" r="3.004"/><path d="M543.314 262.22c-1.73 0-3.452-.212-5.12-.633-.674-.17-1.083-.855-.913-1.53.17-.674.86-1.084 1.53-.913 1.52.383 3.1.546 4.668.557 4.95-.04 9.602-2.033 13.1-5.62.486-.5 1.283-.51 1.78-.02.5.487.51 1.28.023 1.78-3.97 4.07-9.255 6.34-14.88 6.386h-.182zm14.336-17.153c-.617 0-1.157-.454-1.246-1.083-.098-.69.38-1.327 1.07-1.425l4.176-.6c.684-.094 1.327.38 1.425 1.07.098.69-.38 1.327-1.07 1.425l-4.176.593c-.06.01-.12.013-.18.013z"/></g></svg><svg width="512" height="512" y="512"><path d="M149.524 241.85H119.37c-1.226 0-2.29-.82-2.606-2-.315-1.18.2-2.425 1.255-3.035l3.5-2.02c.41-.235.87-.36 1.35-.36h30.01c1.49 0 2.7 1.21 2.7 2.7 0 .995-.55 2.15-1.43 2.615l-3.36 1.785c-.39.21-.83.315-1.27.315zm106.2 0h-30.16c-1.22 0-2.29-.82-2.605-2-.32-1.175.2-2.42 1.25-3.035l3.494-2.02c.414-.235.88-.36 1.354-.36h30.015c1.49 0 2.7 1.21 2.7 2.7 0 .995-.55 2.15-1.43 2.615l-3.35 1.785c-.396.21-.83.315-1.276.315zm118.69 233.155H100.03c-3.48 0-6.3-2.815-6.3-6.3v-45.94l-35.286-36.89c-1.12-1.17-1.745-2.735-1.745-4.355v-84.165c0-3.48 2.82-6.3 6.3-6.3h272.7c3.48 0 6.3 2.815 6.3 6.3v103.61l37.12 41.61c1.03 1.155 1.59 2.645 1.59 4.195v21.94c0 3.48-2.82 6.295-6.3 6.295zM106.33 462.41h261.784v-13.235l-37.12-41.61c-1.03-1.155-1.595-2.645-1.595-4.195v-99.71H69.29v75.335l35.285 36.89c1.12 1.17 1.744 2.735 1.744 4.355v42.17zm342.674 12.595H411.45c-3.48 0-6.3-2.815-6.3-6.3V426.22l-35.436-39.71c-1.03-1.15-1.6-2.645-1.6-4.195v-100.32c0-1.74.72-3.4 1.985-4.59l35.05-32.945V43.295c0-3.48 2.82-6.3 6.3-6.3H449c3.48 0 6.3 2.815 6.3 6.3V468.71c0 3.48-2.82 6.295-6.3 6.295zm-75.38-264.755H308.68v-16.665c13.494-3.58 23.454-15.85 23.454-30.475 0-17.43-14.13-31.57-31.555-31.57-17.44 0-31.58 14.14-31.58 31.57 0 14.625 9.97 26.895 23.47 30.475v16.665H112.99v-41.36l119.3-119.295h141.66c3.48 0 6.3-2.815 6.3-6.3s-2.82-6.3-6.3-6.3H106.693c-3.48 0-6.3 2.815-6.3 6.3v169.76l-41.905 42.86c-1.77 1.81-2.286 4.51-1.3 6.845.98 2.34 3.27 3.855 5.804 3.855h271.91c1.595 0 3.135-.605 4.3-1.695l38.715-36.19c1.274-1.19 1.994-2.86 1.994-4.605v-7.58c.01-3.475-2.81-6.295-6.29-6.295zM113 137.615v-34.3l53.74-53.72h34.28L113 137.615zm34.184-88.025l-34.18 34.17V49.59h34.18zm185.24 204.43H77.97l30.474-31.17H292.48v19.47h16.2v-19.47h57.084l-33.34 31.17zm-142.444-9.46c-8.066 0-12.156-2.055-12.156-6.11 0-4.06 4.09-6.12 12.155-6.12 8.05 0 12.14 2.06 12.14 6.12-.006 4.055-4.09 6.11-12.146 6.11z" fill="#fff"/></svg><svg width="512" height="512" y="1024"><path d="M506.113 284.317c-3.115-28.348-17.31-52.91-37.913-69.77-2.04-1.796-83.434-73.334-104.895-93.2-19.998-18.506-61.537-.864-66.21 1.205-2.982 1.323-4.324 4.813-3.006 7.797 1.32 2.98 4.802 4.32 7.79 3.01l.198-.09c20.105-5.474 30.862-6 41.29-3.27 8.23 2.154 15.485 6.977 27.663 21.54l31.735 39.303c-.29 0-.578-.042-.87-.042-3.84 0-7.74.217-11.58.64-37.993 4.175-69.05 28.254-83.956 60.692-.08-.032-.136-.093-.215-.117-15.585-5.574-32.32-8.393-49.75-8.393-18.163 0-35.57 2.885-50.54 8.303-16.64-36.032-53.093-61.11-95.317-61.11-.22 0-.44.014-.667.014l32.937-40.793c12.18-14.56 19.44-19.387 27.662-21.54 10.427-2.73 21.19-2.205 41.29 3.27.06.022.135.055.196.083 2.987 1.326 6.477-.025 7.795-3.01 1.323-2.982-.023-6.472-3.007-7.795-4.672-2.068-46.215-19.716-66.208-1.205-21.62 20.016-104.14 92.534-104.97 93.266-.265.23-.396.535-.607.793-23.996 19.25-39.396 48.782-39.396 81.87 0 57.876 47.088 104.964 104.966 104.964 43.537 0 80.957-26.66 96.83-64.506.503 1.964 1.94 3.59 3.918 4.202 13.68 4.217 29.273 6.446 45.11 6.446 16.217 0 32.143-2.33 46.05-6.746 1.343-.427 2.408-1.328 3.135-2.454 9.214 21.225 25.14 38.595 45 49.704l.35.39.135-.123c15.052 8.313 32.282 13.103 50.587 13.103 3.842 0 7.74-.21 11.582-.633 57.534-6.323 99.195-58.266 92.876-115.8zM110.543 388.92c-51.36 0-93.143-41.786-93.143-93.143 0-51.353 41.787-93.135 93.144-93.135 45.428 0 83.303 32.715 91.45 75.806l1.64 18.084c-.414 51.01-41.995 92.39-93.09 92.39zm108.016-58.683l-3.088-33.968c0-.17.014-.33.014-.498 0-6.586-.638-13.018-1.806-19.27l-1.3-14.36c13.118-4.386 28.23-6.69 44.018-6.69 14.537 0 28.53 2.126 41.656 6.315l-3.106 68.273c-23.38 6.51-52.876 6.587-76.392.193zm173.05-127.032c3.414-.376 6.876-.568 10.29-.568 8.98 0 17.677 1.28 25.92 3.668L326.076 349.967c-9.02-12.614-15.067-27.588-16.873-44.02-5.606-51.043 31.364-97.132 82.41-102.742zM331.52 356.882l104.62-147.72c8.855 3.51 17.013 8.392 24.312 14.322l.013.014h.006c10.67 8.674 19.377 19.67 25.377 32.326l-68.64 61.916-64.574 57.235c-7.923-4.92-15.006-11.06-21.114-18.093zm80.427 31.48c-3.416.376-6.878.57-10.293.57-14.747 0-28.74-3.45-41.195-9.61l62.38-55.29 66.45-59.938c2.457 6.83 4.244 14.002 5.07 21.513 5.6 51.052-31.364 97.15-82.412 102.756z" fill="#fff"/></svg><svg width="512" height="512" y="1536"><g transform="matrix(4.49 0 0 4.49 -3118.708 -1468.735)" fill="#fff"><path d="M776.91 378.24c-.106-1.412-.835-3.948-1.858-5.726l-11.142-20.27V339.3c0-3.785-3.197-6.865-7.128-6.865-3.93 0-7.128 3.08-7.128 6.865v1.728c-.514.287-1 .632-1.44 1.052-3.26 3.117-1.236 7.35-.252 9.41l1.692 3.334v5.28c-1.243-1.02-2.85-1.637-4.606-1.637-3.856 0-7 2.968-7.117 6.656-1.29-1.098-2.982-1.77-4.84-1.77-3.936 0-7.15 2.998-7.334 6.746 0 .03-.017.05-.017.082v39.372c0 4.686 2.064 8.402 5.525 10.518-.133.2-.23.426-.23.684v13.515c0 .697.564 1.26 1.26 1.26h37.246c.696 0 1.26-.562 1.26-1.26v-13.51c0-.37-.165-.693-.42-.924 3.41-2.244 5.656-6 5.656-10.24l.895-29.21-.016-2.148zm-24.736-38.94c0-2.396 2.067-4.346 4.608-4.346 2.54 0 4.608 1.95 4.608 4.346v8.362l-2.9-5.278c-.063-.113-.143-.216-.235-.305-1.654-1.587-3.928-2.21-6.08-1.9v-.88zm-2.22 4.6c.43-.407.92-.714 1.445-.93l.01-.007c1.636-.665 3.593-.396 4.965.813l16.475 29.974c.82 1.42 1.46 3.565 1.538 4.592l.013 2.015-.29 9.444-7.29-6.71-16.602-32.71c-1.59-3.324-1.664-5.14-.27-6.474zm13.633 38.375l-11.413.53v-17.473c0-.192-.014-.382-.03-.57.007-.05.03-.096.03-.148v-4.827l11.413 22.488zm-23.148-16.942c0-2.396 2.06-4.347 4.602-4.347 2.54 0 4.606 1.95 4.606 4.347v17.59l-2.65.123c-2.74 0-5.13 1.467-6.37 3.627-.12-.392-.194-.798-.194-1.218v-20.122zm-7.36.54c2.666 0 4.835 2.048 4.835 4.563v15.38c0 2.515-2.17 4.56-4.835 4.56s-4.832-2.046-4.832-4.56v-15.38c0-2.515 2.167-4.562 4.832-4.562zm.466 56.148h8.01c-1.153 1.25-1.834 2.87-1.834 4.69v6.31h-6.176v-11zm34.725 0v11h-26.03v-6.304c0-2.62 2.278-4.596 5.325-4.69h20.706zm-5.23-2.513h-15.17c-.03-.002-.055-.018-.086-.018-.143 0-.28.01-.417.017h-8.655c-6.456 0-10.467-3.81-10.467-9.942v-18.42c1.294 1.09 2.982 1.76 4.833 1.76 2.637 0 4.946-1.35 6.245-3.36.036.046.062.1.1.146.088.106.19.188.3.26 0 .036-.004.073-.004.11 0 3.864 3.262 7.01 7.35 7.01h.005l5.855-.362c-3.254 3.296-5.085 7.64-5.085 12.256 0 .695.563 1.26 1.26 1.26.697 0 1.26-.564 1.26-1.26 0-4.677 2.2-9.04 6.036-11.972.04-.03.06-.072.097-.106l1.824 1.26c.22.15.47.222.717.222.4 0 .792-.19 1.037-.544.396-.57.25-1.356-.32-1.752l-2.71-1.87c-.232-.16-.516-.232-.793-.22l-9.25.572c-2.622 0-4.757-2.016-4.757-4.49 0-2.478 2.135-4.49 4.816-4.49l17.835-.83.09.084 9.025 8.312-.505 16.426c0 5.48-4.696 9.94-10.466 9.94z"/><ellipse cx="748.18" cy="427.208" rx="1.662" ry="1.587"/></g></svg><svg width="512" height="512" y="2048"><path d="M502.727 240.055l-63.76-199.39c-.835-2.61-3.26-4.38-6-4.38H81.237c-2.715 0-5.125 1.74-5.98 4.32L9.282 239.995c-.21.64-.315 1.31-.315 1.98v197.72c0 19.865 18.72 36.02 41.74 36.02h410.575c23.02 0 41.75-16.155 41.75-36.02v-197.72c-.005-.655-.105-1.3-.305-1.92zm-446.04-103.22h399.805l14.27 44.62H41.922l14.765-44.62zm16-48.36c.025 0 .05.015.075.015h368.27l11.43 35.745H60.852l11.835-35.76zm13.1-39.595h342.58l8.64 27.01H76.857l8.93-27.01zM37.752 194.05h437.035l15.64 48.905v.595h-102.31l-4.68-23.61c-.68-3.41-3.955-5.64-7.405-4.955-3.415.675-5.63 3.99-4.955 7.405l4.195 21.155H260.957v-21.36c0-3.48-2.815-6.3-6.3-6.3s-6.3 2.82-6.3 6.3v21.36H135.482l4.195-21.155c.675-3.415-1.545-6.73-4.955-7.405-3.43-.69-6.73 1.545-7.405 4.955l-4.68 23.61H21.562v-.56l16.19-48.94zm423.525 269.065H50.702c-16.07 0-29.14-10.51-29.14-23.425V256.145h101.205v18.645c0 3.48 2.815 6.3 6.3 6.3s6.3-2.82 6.3-6.3v-18.645h112.995v18.645c0 3.48 2.815 6.3 6.3 6.3s6.3-2.82 6.3-6.3v-18.645h114.435v18.645c0 3.48 2.815 6.3 6.3 6.3s6.3-2.82 6.3-6.3v-18.645h102.44V439.69c-.01 12.915-13.085 23.425-29.16 23.425z" fill="#fff"/></svg><svg width="512" height="512" y="2560"><g fill="#fff"><path d="M104.308 139.006c.036.097-.125.69-.12 1.993v146.2c.132 8.443 1.81 15.62 5.14 21.962 1.132 2.158 2.387 4.046 3.783 5.66l.006-.004c3.715 3.993 8.944 5.324 13.664 3.472 6.805-2.678 10.87-10.88 10.87-21.946 0-24.657.017-49.31.033-73.964.017-24.65.033-49.303.033-73.956v-9.614h-31.718c-1.016.004-1.512.13-1.69.194zM195.232 160.94h164.27v60.712h-164.27zM403.206 101.088H149.738c-1.206 0-1.598.246-1.622.258.004 0-.23.388-.234 1.553v45.525c0 24.657-.016 49.31-.032 73.964-.016 24.65-.033 49.306-.033 73.955 0 10.965-3.28 20.074-9.08 25.952 14.983-.02 29.974-.024 44.96-.024 20.915 0 41.82.012 62.73.024 33.335.025 66.654.04 99.993.012 8.952-.025 17.855-1.154 26.452-3.37 17.436-4.497 27.272-14.73 30.068-31.28 1.274-7.573 1.944-15.855 1.984-24.618l.073-160.1c0-1.19-.238-1.61-.258-1.653-.03.003-.44-.203-1.535-.203zm-138.34 197.315c-.668.852-2.37 1.215-3.62 1.223-10.837.08-21.686.04-32.53.04-11 0-21.998-.008-33.008.024-1.993.008-3.502-.734-4.07-2.638-.54-1.787-.222-3.554 1.55-4.61.717-.425 1.633-.72 2.464-.72 22.08-.032 44.17-.032 66.25-.007 1.81.008 3.514.726 3.82 2.602.206 1.33-.068 3.086-.855 4.086zm-2.907-20.494c-7.663.04-15.31.015-22.97.015h-10.283c-10.924 0-21.845.016-32.77-.017-3.094 0-4.627-1.538-4.454-4.293.117-2.082 1.457-3.457 3.712-3.623 1.662-.117 3.34-.04 5.01-.04 19.934-.008 39.87-.008 59.8-.008.718 0 1.44-.04 2.15.008 2.34.198 3.962 1.82 3.986 3.978.017 2.243-1.7 3.953-4.182 3.977zm0-21.754c-7.663.04-15.31.016-22.97.016h-10.283c-10.924 0-21.845.016-32.77-.016-3.094 0-4.627-1.537-4.454-4.293.117-2.08 1.457-3.465 3.712-3.622 1.662-.116 3.34-.05 5.01-.05 19.934-.006 39.87-.006 59.8-.006.718 0 1.44-.032 2.15.016 2.34.19 3.962 1.82 3.986 3.98.017 2.234-1.7 3.953-4.182 3.977zm31.493 13.793c.63-.033 1.267-.01 1.908-.01h40.194c7.738 0 15.476-.015 23.206.01.945 0 1.977.023 2.812.394 1.812.78 2.623 2.34 2.268 4.285-.388 2.165-1.812 3.282-4.043 3.282-6.216.01-12.433.01-18.658.01h-14.83c-10.93-.01-21.86.015-32.78-.018-2.594 0-4.224-1.504-4.31-3.796-.096-2.377 1.56-4.015 4.233-4.16zm-4.232-17.603c-.092-2.388 1.56-4.018 4.233-4.16.63-.04 1.267-.015 1.908-.015h40.194c7.738 0 15.476-.016 23.206.016.945 0 1.977.023 2.812.394 1.812.78 2.623 2.34 2.268 4.285-.388 2.165-1.812 3.283-4.043 3.283-6.216.008-12.433.008-18.658.008h-14.83c-10.93-.007-21.86.017-32.78-.015-2.59.004-4.224-1.51-4.31-3.797zm70.576 47.31c-10.44.032-20.89.008-31.33.008h-2.158c-10.922 0-21.85.08-32.77-.093-1.316-.016-3.128-1.065-3.753-2.174-.577-1.002-.323-3.128.44-4.068.77-.984 2.578-1.52 3.96-1.57 5.1-.18 10.196-.08 15.31-.08 16.03 0 32.053 0 48.073.008.876 0 1.77-.032 2.63.073 2.39.283 3.785 1.9 3.688 4.177-.08 2.25-1.593 3.71-4.09 3.718zm9.872-72.923c0 2.808-2.276 5.083-5.084 5.083H190.15c-2.81 0-5.084-2.275-5.084-5.083V155.86c0-2.807 2.275-5.082 5.083-5.082h174.435c2.804 0 5.083 2.275 5.083 5.083v70.876zm0-97.185c-.396 2.165-1.812 3.283-4.043 3.283-6.225.008-17.602.008-23.826.008h-14.83c-10.93-.007-127.07.017-137.99-.015-2.59 0-4.22-1.505-4.307-3.797-.092-2.38 1.562-4.02 4.232-4.16.63-.032 1.267-.008 1.91-.008h145.4c7.74 0 20.636-.016 28.374.008.943 0 1.97.024 2.803.395 1.81.78 2.622 2.336 2.275 4.285zM262.156 269.95c-.71-.05-1.432-.008-2.15-.008-19.93 0-39.862 0-59.8.008-1.67 0-3.348-.08-5.01.04-2.255.166-3.595 1.545-3.712 3.623-.173 2.76 1.364 4.292 4.454 4.292 10.925.033 21.846.017 32.77.017h10.284c7.653 0 15.306.024 22.967-.017 2.48-.024 4.197-1.734 4.18-3.977-.023-2.155-1.645-3.78-3.985-3.978zM360.21 291.763c-.86-.1-1.76-.073-2.632-.073-16.02-.008-32.044-.008-48.072-.008-5.115 0-10.21-.1-15.31.08-1.387.05-3.19.586-3.96 1.57-.764.936-1.018 3.066-.44 4.067.62 1.107 2.436 2.156 3.75 2.172 10.922.174 21.85.093 32.77.093h2.16c10.44 0 20.89.024 31.33-.008 2.497-.008 4.01-1.464 4.098-3.72.085-2.28-1.31-3.893-3.695-4.175zM261.902 291.715c-22.08-.025-44.175-.025-66.25.008-.83 0-1.75.29-2.465.718-1.767 1.06-2.09 2.82-1.55 4.613.57 1.908 2.078 2.646 4.07 2.638 11.01-.03 22.008-.023 33.01-.023 10.843 0 21.692.04 32.528-.04 1.254-.008 2.953-.37 3.622-1.223.787-1 1.065-2.76.86-4.09-.31-1.872-2.01-2.59-3.825-2.598zM293.53 277.91c10.92.032 21.85.007 32.78.016h14.83c6.224 0 12.44 0 18.657-.01 2.23 0 3.655-1.116 4.043-3.282.355-1.945-.456-3.506-2.268-4.285-.835-.373-1.867-.397-2.81-.397-7.73-.024-15.47-.008-23.207-.008h-40.193c-.637 0-1.275-.024-1.908.008-2.67.14-4.325 1.78-4.232 4.16.085 2.29 1.72 3.795 4.31 3.795zM293.53 256.15c10.92.03 21.85.007 32.78.015h14.83c6.224 0 12.44 0 18.657-.008 2.23 0 3.655-1.118 4.043-3.284.355-1.945-.456-3.506-2.268-4.285-.835-.37-1.867-.395-2.81-.395-7.73-.032-15.47-.016-23.207-.016h-40.193c-.637 0-1.275-.024-1.908.016-2.67.14-4.325 1.77-4.232 4.16.085 2.283 1.72 3.796 4.31 3.796zM262.156 248.197c-.71-.048-1.432-.016-2.15-.016-19.93 0-39.862 0-59.8.01-1.67 0-3.348-.073-5.01.048-2.255.158-3.595 1.546-3.712 3.623-.173 2.76 1.364 4.294 4.454 4.294 10.925.032 21.846.016 32.77.016h10.284c7.653 0 15.306.023 22.967-.017 2.48-.025 4.197-1.743 4.18-3.978-.023-2.158-1.645-3.788-3.985-3.978zM364.586 150.774H190.15c-2.81 0-5.084 2.275-5.084 5.083v70.874c0 2.81 2.275 5.085 5.083 5.085h174.435c2.804 0 5.083-2.275 5.083-5.083V155.86c0-2.81-2.276-5.084-5.084-5.084zm-5.08 70.878H195.233V160.94h164.275v60.712zM367.394 125.26c-.835-.37-1.86-.394-2.804-.394-7.738-.024-20.635-.008-28.373-.008H190.815c-.638 0-1.275-.024-1.91.008-2.67.14-4.323 1.78-4.23 4.16.084 2.29 1.718 3.796 4.304 3.796 10.92.032 127.06.008 137.99.016h14.83c6.224 0 17.6 0 23.826-.008 2.23 0 3.647-1.118 4.042-3.284.346-1.945-.465-3.502-2.276-4.285zM483.875 178.893c0-11.312-9.17-20.482-20.486-20.482-11.318 0-20.488 9.17-20.488 20.484 0 9.395 6.366 17.23 14.995 19.642l.355 24.4c-5.696 1.444-19.848 3.292-43.146-4.212l.056-115.79c-.016-7.408-4.603-12.01-11.953-12.01H149.74c-7.403 0-12.01 4.582-12.018 11.964v25.763h-31.726c-3.873.005-6.77 1.026-8.847 3.116-2.116 2.134-3.136 5.167-3.116 9.254v70.784c-31.54-8.73-47.023-1.26-47.713-.912-1.74.876-2.823 2.667-2.79 4.616l.402 27.695c-9.05 2.122-15.805 10.202-15.805 19.9 0 11.313 9.17 20.483 20.486 20.483 11.313 0 20.483-9.17 20.483-20.482 0-9.4-6.366-17.235-14.99-19.647l-.356-24.395c5.458-1.384 18.678-3.167 40.286 3.308v64.947c.15 9.95 2.267 18.89 6.3 26.57 6.464 12.34 16.71 18.59 30.468 18.59 33.905-.05 67.817-.028 101.72-.008l.465 31.683c-4.988 1.262-16.46 2.836-34.853-1.82.004-.024.012-.044.016-.068.854-4.5 1.387-8.613-4.443-11.16 0 0-8.807-3.577-13.59-5.01-4.794-1.412-6.428-3.19-8.574 2.062-2.134 5.22-18.917 47.063-8.488 68.17 4.046 8.17 11.812 4.894 14.237-2.97 2.45-7.845 7.822-22.526 13.77-24.244 5.96-1.703 13.396-5.463 8.063-14.487-.4-.678-.738-1.28-1.04-1.852 9.076 2.11 16.69 2.868 22.805 2.864 12.684 0 19.078-3.103 19.518-3.32 1.74-.876 2.825-2.668 2.79-4.616l-.514-35.243c1.247.004 2.493 0 3.744 0 13.293.012 26.594.016 39.886.02l60.934 54.107c-.14.105-.29.21-.44.335-3.465 2.925-6.455 5.76-3.554 11.377 0 0 4.53 8.273 7.318 12.37 2.805 4.09 2.954 6.473 7.888 3.786 4.918-2.695 44.046-24.395 49.238-47.185 2.01-8.82-6.02-11.166-12.83-6.627-6.8 4.514-20.122 12.442-25.79 10.037-5.656-2.42-13.732-4.19-15.278 6.113-.092.633-.197 1.214-.29 1.75l-51.868-46.062c2.497.006 5.002.01 7.507.01 12.427 0 24.868-.01 37.294-.02 9.803-.025 19.55-1.263 28.974-3.692 21.13-5.45 34.118-19.082 37.555-39.426 1.37-8.116 2.09-16.95 2.125-26.287l.016-33.698c12.83 3.833 23.166 5.05 31.053 5.05 12.687 0 19.082-3.1 19.517-3.323 1.743-.876 2.82-2.667 2.796-4.615l-.41-27.7c9.047-2.114 15.81-10.187 15.81-19.885zM137.72 148.426c0 24.653-.016 49.307-.033 73.956-.016 24.653-.032 49.307-.032 73.964 0 11.066-4.066 19.268-10.872 21.946-4.716 1.852-9.945.52-13.664-3.473l-.006.002c-1.396-1.614-2.65-3.502-3.784-5.66-3.328-6.342-5.006-13.523-5.14-21.963V141c-.003-1.304.158-1.897.122-1.994.178-.06.674-.186 1.69-.19h31.718v9.61zm267.204 114.62c-.04 8.764-.71 17.046-1.984 24.618-2.796 16.553-12.632 26.784-30.068 31.282-8.597 2.215-17.5 3.344-26.452 3.368-33.34.03-66.658.013-99.993-.012-20.914-.012-41.82-.024-62.73-.024-14.986 0-29.977.004-44.96.024 5.8-5.878 9.08-14.987 9.08-25.952 0-24.65.017-49.307.033-73.956.016-24.653.032-49.307.032-73.964v-45.527c0-1.165.238-1.55.234-1.553.024-.016.42-.258 1.622-.258h253.468c1.093 0 1.505.206 1.53.206.023.044.257.464.257 1.654l-.07 160.095z"/></g></svg><svg width="512" height="512" y="3072"><g transform="matrix(4.84 0 0 4.84 -2409.443 -1592.395)" fill="#fff"><path d="M594.598 337.734H518.43c-9.163 0-12.414 5.828-12.414 10.82v61.12c0 .695.564 1.26 1.26 1.26h76.303c.61 0 1.14-.444 1.24-1.05 1.33-7.905 7.56-8.52 9.43-8.52.15 0 .24.005.254.006.352.02.69-.097.947-.335.257-.238.4-.572.4-.922v-61.12c0-.695-.563-1.26-1.26-1.26zm-79.656 39.368c.28.16.623.16.9-.002l5.672-3.292 5.67 3.292c.277.16.62.163.9.002.28-.16.45-.458.45-.78v-25.446h53.65v40.088h-73.65v-40.088h5.958v25.446c0 .322.172.618.45.78zm11.897-27.897c-.07.13-.11.272-.11.418v25.135l-4.77-2.77c-.28-.162-.623-.162-.902 0l-4.77 2.77v-24.915l2.405-4.638h10.242l-2.1 4zm-18.31 44.277h73.65v14.932h-73.65v-14.932zm76.17 10.034v-53.9c0-.696-.564-1.26-1.26-1.26h-54.127l1.654-3.15h57.3v55.183c-1.26.683-2.515 1.68-3.567 3.12zm8.633-4.63c-.823.07-1.992.25-3.268.697v-55.278c0-.497-.404-.9-.9-.9H518.14c-.34 0-.65.19-.803.495l-2.323 4.482c-.044-.005-.083-.026-.13-.026h-6.35c.048-2.136.983-8.102 9.89-8.102h74.908v58.632z"/><circle cx="545.058" cy="400.901" r="3.564"/><path d="M569.414 418.48c-.206-.13-.44-.187-.675-.186v-.007c-1.048 0-3.53-1.357-3.8-3.445h-2.52c.145 2.09 1.496 3.823 3.1 4.87L562.87 421c-3.866-.4-4.723-3.33-4.743-5.76 0-.03 0-.06-.004-.09v-.31h-2.52v.41c0 .036 0 .074.005.11.07 4.4 2.37 7.33 6.23 8.04v.457H526.73v-.46c3.837-.707 6.134-3.61 6.226-7.97.002-.04.004-.08.004-.122v-.47h-2.52v.37c-.002.026-.004.055-.004.082-.03 2.47-.932 5.473-5.046 5.74-.663.043-1.178.602-1.178 1.266v2.82c0 .695.564 1.26 1.26 1.26H563.1c.15 0 .3-.036.445-.09.023-.01.045-.015.067-.024.014-.01.03-.01.043-.018l5.646-2.772c.438-.21.71-.65.71-1.13v-2.8c0-.435-.223-.838-.59-1.068z"/></g></svg><svg width="512" height="512" y="3584"><path d="M121.647 461.893l-17.982-13.05c3.5-5.753 4.72-12.5 3.39-19.142-2.5-12.48-13.54-21.54-26.252-21.54-1.766 0-3.544.18-5.287.53-14.49 2.9-23.918 17.05-21.014 31.54 2.5 12.484 13.542 21.54 26.25 21.54 1.765 0 3.543-.18 5.287-.525 5.58-1.12 10.53-3.93 14.33-8.025l18.062 13.104c.484.354 1.047.523 1.603.523.85 0 1.682-.392 2.216-1.13.886-1.218.615-2.93-.61-3.82zm-36.684-6.015c-1.393.28-2.808.42-4.21.42-10.114 0-18.893-7.212-20.88-17.146-2.31-11.528 5.193-22.786 16.72-25.095 1.395-.28 2.81-.42 4.213-.42 10.112 0 18.895 7.208 20.883 17.143 1.12 5.585 0 11.27-3.17 16.01-3.16 4.74-7.98 7.968-13.56 9.088zm401.127 33.807H24.933c-1.515 0-2.736-1.224-2.736-2.735V384.833c0-1.51 1.225-2.736 2.736-2.736h461.16c1.513 0 2.734 1.225 2.734 2.736V486.95c0 1.51-1.22 2.735-2.735 2.735zM27.67 484.21h455.685v-96.64H27.67v96.64z" fill="#fff"/></svg><svg width="512" height="512" y="4096"><g fill="#fff"><path d="M443.374 266.495c-2.108-.835-4.412.145-5.668 2.42-8.008 14.475-18.656 22.13-30.792 22.13-12.124 0-22.768-7.655-30.776-22.13-1.252-2.27-3.56-3.25-5.652-2.425-5.532 2.17-20.192 12.56-28.72 20.32-10.176-18.655-24.228-33.12-43.588-40.795-2.108-.835-4.408.14-5.668 2.42-9.504 17.155-22.128 26.225-36.5 26.225-14.408 0-27.036-9.065-36.528-26.22-1.252-2.275-3.56-3.255-5.668-2.42-19.364 7.675-33.416 22.135-43.592 40.785-8.528-7.76-23.172-18.14-28.708-20.31-2.088-.82-4.396.155-5.652 2.425-8.008 14.475-18.652 22.13-30.78 22.13-12.132 0-22.78-7.655-30.792-22.13-1.26-2.28-3.556-3.25-5.668-2.42-54 21.405-60.244 110.125-60.244 175h10.08c0-93.76 15.864-145.295 49.84-161.52 9.644 15.305 22.584 23.665 36.784 23.665 14.132 0 27.008-8.28 36.632-23.445 6.14 3.645 17.244 11.735 23.248 17.37-17.56 40.18-20.68 95.175-20.68 144.375h10.08c0-72.555 6.808-158.31 59.1-182.46 11.108 17.95 26.088 27.77 42.548 27.77 16.424 0 31.4-9.82 42.52-27.775 52.272 24.15 59.084 109.905 59.084 182.46h10.08c0-49.2-3.12-104.185-20.668-144.365 6.008-5.635 17.12-13.735 23.264-17.385 9.624 15.165 22.496 23.445 36.628 23.445 14.208 0 27.144-8.36 36.784-23.665 33.976 16.225 49.84 67.76 49.84 161.52h10.08c-.004-64.865-6.248-153.59-60.248-174.995zM104.65 116.82c-22.252 0-40.284 13.08-40.284 67.365 0 54.32 18.032 82.28 40.284 82.28 22.212 0 40.252-27.96 40.252-82.28 0-54.285-18.044-67.365-40.252-67.365zm24.22 97.32c-5.908 18.935-16.032 30.235-27.088 30.235-9.992 0-19.212-9.125-25.296-25.04-.856-2.245-.096-4.93 1.7-6 1.792-1.075 3.94-.12 4.8 2.12 4.836 12.66 11.688 19.92 18.796 19.92 7.976 0 15.592-9.16 20.38-24.5.728-2.32 2.828-3.45 4.664-2.56 1.848.9 2.768 3.51 2.044 5.825zm278.476-97.32c-22.216 0-40.252 13.08-40.252 67.365 0 54.32 18.04 82.28 40.252 82.28 22.252 0 40.284-27.96 40.284-82.28.004-54.285-18.028-67.365-40.284-67.365zm26.372 105.695c-6.084 15.915-15.304 25.04-25.296 25.04-11.064 0-21.188-11.305-27.084-30.235-.72-2.315.196-4.925 2.052-5.83 1.856-.895 3.936.245 4.66 2.56 4.776 15.34 12.392 24.5 20.372 24.5 7.108 0 13.96-7.26 18.796-19.92.864-2.24 3.012-3.195 4.8-2.12 1.8 1.075 2.556 3.76 1.7 6.005zM256.006 70.055c-25.892 0-46.852 17.66-46.852 80.82 0 63.255 20.96 95.775 46.852 95.775 25.868 0 46.86-32.52 46.86-95.775 0-63.155-20.992-80.82-46.86-80.82zm28.656 121.915c-4.908 16.725-14.088 27.27-25.196 28.935-1.004.15-2.012.225-3.02.225-11.256 0-22.588-9.24-30.824-25.355-1.072-2.095-.58-4.88 1.096-6.215 1.676-1.34 3.904-.73 4.972 1.37 7.444 14.58 17.492 22.465 26.916 21.04 8.32-1.25 15.352-9.665 19.292-23.1.684-2.33 2.752-3.53 4.616-2.675 1.872.855 2.828 3.44 2.148 5.775zm-35.108 222.415v-32.01c0-.55 0-.55-.472-.55h-8.348c-.52 0-.52 0-.52-.615v-11.79c0-.62 0-.62.504-.62 2.812 0 5.616-.01 8.428.01.32 0 .42-.105.412-.51-.012-3.125.012-6.235-.004-9.355-.012-1.77.136-3.51.508-5.22.816-3.805 2.484-6.89 5.284-9.015 2.6-1.985 5.5-2.585 8.52-2.535 1.392.015 2.78.085 4.168.155 1.108.065 2.228.175 3.344.265.284.03.42.135.42.545l-.004 10.775c0 .37-.072.49-.404.49-1.552-.03-3.108-.035-4.668-.005-.804.01-1.624.045-2.416.175-1.28.205-2.356.87-2.964 2.345-.38.93-.524 1.925-.524 2.945-.032 2.79-.024 5.58-.024 8.365 0 .565 0 .575.472.575h9.6c.168 0 .328-.015.536 0l-1.296 12.46c-.048.485-.204.56-.552.56-2.76-.01-5.524-.005-8.284-.005-.476 0-.476 0-.476.55v32.01h-11.24z"/><path fill-rule="evenodd" d="M127.258 380.34v22.74c0 3.425-1.832 6.2-4.528 6.84-.28.07-.58.095-.864.095-12.248.005-24.48.005-36.732 0-2.908 0-5.352-3.025-5.404-6.665v-45.83c0-2.905 1.404-5.455 3.56-6.46.6-.295 1.228-.445 1.88-.445 12.216 0 24.428-.005 36.648 0 2.996 0 5.436 3.07 5.436 6.82.004 7.64.004 15.27.004 22.905zm-9.596-4.575c1.672 8.22-1.352 15.655-5.572 19.325-4.936 4.28-10.148 4.7-15.508 1.31-2.5-1.57-4.416-3.995-5.792-7.025-1.924-4.28-2.392-8.83-1.456-13.6h-4.12v24.97c0 1.46.772 2.415 1.94 2.415h32.684c1.172 0 1.932-.955 1.932-2.405v-24.99h-4.108zm-5.024 4.575c0-6.33-4.076-11.435-9.12-11.445-5.048-.005-9.144 5.085-9.156 11.395-.012 6.325 4.08 11.44 9.14 11.455 5.044 0 9.136-5.1 9.136-11.405zm9.136-17.145v-3.375c0-1.36-.776-2.35-1.872-2.35-1.8-.01-3.588-.01-5.384 0-1.096 0-1.884.99-1.884 2.345v6.735c0 1.345.792 2.34 1.864 2.345 1.804.005 3.6.005 5.412 0 1.076-.005 1.864-.985 1.864-2.34.012-1.115 0-2.24 0-3.36zm260.428 40.165c6.408.605 12.156-1.375 17.36-6.235-5.984-1.295-10.084-5.21-10.952-10.445 1.656.225 3.304.35 5.116-.295-3.304-1.075-5.764-3.23-7.516-6.605-1.304-2.515-1.956-5.505-1.824-8.2 1.604.975 3.248 1.7 5.224 1.78-2.584-2.415-4.248-5.395-4.884-9.175-.632-3.73-.212-7.28 1.328-10.725 6.468 9.5 14.592 14.725 24.568 15.62-.056-.56-.1-1.045-.152-1.53-.648-6.285 1.976-12.43 6.5-15.26 4.56-2.84 10.048-1.795 13.668 2.63.34.415.644.475 1.072.34 2.396-.705 4.66-1.805 6.956-3.47-.916 3.5-2.564 6.05-4.796 8.085 2.184-.225 4.224-1.03 6.22-2.065.048.065.092.125.148.185-.908 1.35-1.764 2.755-2.744 4.025-.844 1.105-1.836 2.02-2.724 3.065-.224.265-.432.715-.428 1.08.088 11.77-2.98 22.075-9.372 30.71-6.492 8.77-14.692 12.84-24.184 13.025-6.34.115-12.24-1.88-17.708-5.87-.296-.205-.58-.445-.876-.67z"/></g></svg><svg width="512" height="512" y="4608"><path d="M317.43 207.377c-3.632 16.254-5.577 33.473-5.186 51.574l-.072-.01c.06.69.044 1.365-.143 2.02-2.298 7.924-23 3.185-49.938-3.427-29.665-7.29-54.874-16.993-55.777-24.712h-.018c-1.17-7.454-2.49-14.887-4.007-22.293l-149.132 39.8 192.856 51.683 212.707-56.76-141.296-37.87zM33.884 438.235l202.305 54.483V316.37L33.88 261.887zm219.072 54.995L478 433.177v-176.36l-225.044 60.055z" fill="none"/><path d="M491.88 245.087c0-3.14-2.11-5.89-5.145-6.705l-165.857-44.45C351.646 87.31 452.275 26.446 424.532 38.98 354.026 70.845 294.43 82.945 241.71 51.576c30.024 47.954 18.404 97.907 18.26 98.497-.104.43-.49.727-.925.727-.04 0-.083 0-.12-.005-.48-.06-.84-.474-.828-.965 1.554-82.087-37.66-110.866-50.763-118.172C120.028-12.23 55.67 12.78 72.78 22.93c77.97 46.256 110.8 108.41 126.503 174.033L25.15 243.43c-3.04.81-5.15 3.91-5.15 7.057 0 .336.115.64.16.96-.095.45-.16.914-.16 1.382v190.723c0 3.135 2.104 5.884 5.134 6.705l216.185 58.22c.59.16 1.2.236 1.802.236.115 0 .22-.05.33-.056.816.33 1.675.547 2.557.547.595 0 1.2-.078 1.79-.232l238.925-63.756c3.04-.81 5.15-3.568 5.15-6.715v-190.72c0-.54-.06-1.064-.18-1.582.06-.374.18-.738.18-1.113zm-255.69 247.63l-202.307-54.48v-176.35L236.19 316.37v176.348zm9.83-190.71L53.163 250.32l149.133-39.8c1.51 7.407 2.838 14.84 4.006 22.295h.017c.9 7.72 26.11 17.422 55.772 24.712 26.94 6.61 47.64 11.35 49.932 3.426.192-.656.208-1.333.142-2.022l.07.02c-.39-18.1 1.56-35.32 5.186-51.57l141.292 37.87-212.704 56.76zM478 433.177l-225.044 60.047v-176.36L478 256.814v176.364z" fill="#fff"/></svg><svg width="512" height="512" y="5120"><path d="M115.528 193.64c-1.816 0-3.288-1.472-3.288-3.288v-5.49c0-6.795 5.535-12.33 12.336-12.33h6.08c1.815 0 3.287 1.473 3.287 3.29 0 1.814-1.472 3.286-3.288 3.286h-6.08c-3.177 0-5.763 2.58-5.763 5.75v5.49c.004 1.82-1.47 3.292-3.284 3.292zm-51.485 26.017c-1.816 0-3.288-1.472-3.288-3.288v-50.94c0-1.816 1.472-3.288 3.288-3.288 1.815 0 3.287 1.472 3.287 3.287v50.933c-.003 1.815-1.472 3.287-3.287 3.287zm15.997 0c-1.817 0-3.29-1.472-3.29-3.288v-50.94c0-1.816 1.473-3.288 3.29-3.288 1.815 0 3.287 1.472 3.287 3.287v50.933c-.004 1.815-1.472 3.287-3.288 3.287zm218.27-26.017c-1.816 0-3.288-1.472-3.288-3.288v-5.49c0-6.795 5.534-12.33 12.336-12.33h6.075c1.815 0 3.288 1.473 3.288 3.29 0 1.814-1.47 3.286-3.282 3.286h-6.075c-3.18 0-5.765 2.58-5.765 5.75v5.49c.004 1.82-1.464 3.292-3.284 3.292zm141.973-31.23c-6.257 0-11.346 5.09-11.346 11.34 0 6.253 5.09 11.342 11.346 11.342 6.25 0 11.336-5.092 11.336-11.343 0-6.25-5.09-11.34-11.34-11.34zm0 16.107c-2.63 0-4.77-2.137-4.77-4.768 0-2.63 2.14-4.76 4.77-4.76 2.627 0 4.76 2.13 4.76 4.76s-2.137 4.762-4.76 4.762zm0 40.387c-6.257 0-11.346-5.088-11.346-11.34 0-6.25 5.09-11.338 11.346-11.338 6.25 0 11.336 5.09 11.336 11.34s-5.09 11.338-11.34 11.338zm43.453 7.926h-13.673V132.8c0-2.543-2.06-4.603-4.603-4.603H46.797c-2.543 0-4.603 2.056-4.603 4.602v94.03H28.506c-2.542 0-4.603 2.053-4.603 4.6v111.69c0 2.542 2.06 4.602 4.603 4.602h61.91v34.364c0 1.09.885 1.973 1.974 1.973h23.134c1.09 0 1.973-.884 1.973-1.973v-34.36H394.74v34.364c0 1.09.885 1.975 1.974 1.975h23.134c1.09 0 1.973-.884 1.973-1.973V347.73h61.917c2.543 0 4.603-2.056 4.603-4.603v-111.69c.002-2.543-2.058-4.603-4.6-4.603zm-22.875-89.428v89.43h-41.23v-58.24c0-8.245-6.7-14.95-14.94-14.95H290.47c-8.24 0-14.948 6.705-14.948 14.95v89.856c0 8.24 6.703 14.944 14.948 14.944h119.95v14.265H260.764V137.402H460.86zm-50.44 31.19v95.595H290.47c-3.167 0-5.742-2.577-5.742-5.74V168.59c0-3.166 2.58-5.74 5.742-5.74h114.215c3.16 0 5.735 2.574 5.735 5.74zM51.408 137.4H251.5v150.255H101.84V273.39h119.954c8.24 0 14.944-6.703 14.944-14.944V168.59c0-8.243-6.703-14.947-14.944-14.947h-114.22c-8.236 0-14.94 6.704-14.94 14.948l.096 58.24H51.4v-89.423zm50.437 126.78v-95.588c0-3.166 2.576-5.74 5.736-5.74H221.8c3.16 0 5.737 2.574 5.737 5.74v89.858c0 3.163-2.576 5.74-5.74 5.74l-119.953-.005zm377.294 74.34H33.114V236.03h59.524v56.224c0 2.543 2.06 4.603 4.603 4.603H415.03c2.542 0 4.603-2.057 4.603-4.604v-56.22h59.51v102.49z" fill="#fff"/></svg></svg>