<?xml version="1.0" encoding="utf-8"?>
<!-- Generator: Adobe Illustrator 16.0.0, SVG Export Plug-In . SVG Version: 6.00 Build 0)  -->
<!DOCTYPE svg PUBLIC "-//W3C//DTD SVG 1.0//EN" "http://www.w3.org/TR/2001/REC-SVG-20010904/DTD/svg10.dtd">
<svg version="1.0" id="Layer_1" xmlns="http://www.w3.org/2000/svg" xmlns:xlink="http://www.w3.org/1999/xlink" x="0px" y="0px"
	 width="1496px" height="504px" viewBox="-203 0 1496 504" enable-background="new -203 0 1496 504" xml:space="preserve">
<g>
	<g>
		<path fill="#5D5E5E" d="M1101.761,174.667l-5.652-4.102c1.1-1.809,1.483-3.93,1.065-6.018c-0.786-3.924-4.257-6.772-8.253-6.772
			c-0.555,0-1.114,0.056-1.662,0.166c-4.555,0.912-7.519,5.36-6.605,9.914c0.786,3.925,4.257,6.772,8.252,6.772
			c0.555,0,1.114-0.057,1.662-0.166c1.755-0.352,3.312-1.235,4.506-2.522l5.679,4.12c0.152,0.111,0.329,0.164,0.504,0.164
			c0.268,0,0.529-0.123,0.697-0.355C1102.23,175.485,1102.146,174.948,1101.761,174.667z M1090.229,172.776
			c-0.438,0.088-0.883,0.133-1.323,0.133c-3.179,0-5.939-2.268-6.564-5.391c-0.726-3.624,1.634-7.163,5.257-7.889
			c0.438-0.088,0.884-0.132,1.324-0.132c3.179,0,5.94,2.266,6.565,5.389c0.352,1.756-0.002,3.543-0.995,5.032
			C1093.499,171.409,1091.984,172.424,1090.229,172.776z"/>
	</g>
	<g>
		<path fill="#5D5E5E" d="M1216.33,183.405h-144.973c-0.477,0-0.86-0.386-0.86-0.861v-32.102c0-0.475,0.385-0.86,0.86-0.86h144.973
			c0.476,0,0.859,0.385,0.859,0.86v32.102C1217.189,183.019,1216.806,183.405,1216.33,183.405z M1072.218,181.683h143.252v-30.381
			h-143.252V181.683z"/>
	</g>
</g>
<g>
	<path fill="none" d="M157.237,135.693c-0.659,2.95-1.012,6.075-0.941,9.36l-0.013-0.003c0.011,0.125,0.008,0.248-0.026,0.367
		c-0.416,1.438-4.174,0.578-9.062-0.622c-5.384-1.323-9.959-3.084-10.123-4.485h-0.003c-0.212-1.353-0.452-2.702-0.727-4.046
		l-27.066,7.223l35.001,9.38l38.604-10.301L157.237,135.693z"/>
	<polygon fill="none" points="105.777,177.591 142.493,187.479 142.493,155.474 105.777,145.586 	"/>
	<polygon fill="none" points="145.536,187.573 186.379,176.673 186.379,144.666 145.536,155.565 	"/>
	<path fill="#5D5E5E" d="M188.898,142.537c0-0.57-0.383-1.069-0.934-1.217l-30.101-8.067c5.584-19.351,23.847-30.397,18.812-28.122
		c-12.796,5.783-23.612,7.979-33.18,2.286c5.449,8.703,3.34,17.769,3.314,17.876c-0.019,0.078-0.089,0.132-0.168,0.132
		c-0.007,0-0.015,0-0.022-0.001c-0.087-0.011-0.152-0.086-0.15-0.175c0.282-14.898-6.835-20.121-9.213-21.447
		c-15.845-7.965-27.525-3.426-24.42-1.584c14.151,8.395,20.109,19.675,22.959,31.585l-31.603,8.433
		c-0.552,0.147-0.935,0.71-0.935,1.281c0,0.061,0.021,0.116,0.029,0.174c-0.017,0.082-0.029,0.166-0.029,0.251v34.615
		c0,0.568,0.382,1.068,0.932,1.217l39.235,10.566c0.108,0.029,0.218,0.043,0.328,0.043c0.021,0,0.04-0.01,0.06-0.01
		c0.148,0.06,0.304,0.099,0.464,0.099c0.108,0,0.218-0.015,0.325-0.042l43.362-11.571c0.552-0.147,0.935-0.647,0.935-1.218v-34.615
		c0-0.098-0.011-0.193-0.033-0.287C188.876,142.671,188.898,142.605,188.898,142.537z M142.493,187.479l-36.716-9.888v-32.005
		l36.716,9.888V187.479z M144.277,152.867l-35.001-9.38l27.066-7.223c0.274,1.344,0.515,2.693,0.727,4.046h0.003
		c0.164,1.401,4.739,3.162,10.123,4.485c4.889,1.2,8.646,2.06,9.062,0.622c0.035-0.119,0.038-0.242,0.026-0.367l0.013,0.003
		c-0.071-3.285,0.283-6.41,0.941-9.36l25.643,6.873L144.277,152.867z M186.379,176.673l-40.843,10.897v-32.007l40.843-10.899
		V176.673z"/>
</g>
<g>
	<path fill="#5D5E5E" d="M396.819,151.165c-0.664-6.043-3.69-11.279-8.083-14.873c-0.435-0.383-17.786-15.633-22.361-19.868
		c-4.263-3.945-13.118-0.184-14.114,0.257c-0.636,0.282-0.922,1.026-0.641,1.662c0.282,0.636,1.025,0.922,1.662,0.642
		c0.013-0.005,0.029-0.012,0.042-0.018c4.286-1.167,6.579-1.279,8.802-0.697c1.754,0.459,3.301,1.487,5.897,4.592l6.765,8.378
		c-0.062,0-0.123-0.009-0.185-0.009c-0.819,0-1.65,0.046-2.469,0.136c-8.099,0.89-14.72,6.023-17.897,12.938
		c-0.017-0.007-0.029-0.02-0.046-0.025c-3.322-1.188-6.89-1.789-10.605-1.789c-3.872,0-7.583,0.615-10.774,1.77
		c-3.547-7.681-11.318-13.027-20.319-13.027c-0.047,0-0.094,0.003-0.142,0.003l7.021-8.696c2.597-3.104,4.144-4.133,5.897-4.592
		c2.223-0.582,4.517-0.47,8.802,0.697c0.013,0.005,0.029,0.012,0.042,0.018c0.637,0.282,1.381-0.006,1.662-0.642
		c0.282-0.636-0.005-1.38-0.641-1.662c-0.996-0.441-9.852-4.203-14.114-0.257c-4.609,4.267-22.2,19.726-22.377,19.882
		c-0.056,0.049-0.084,0.114-0.129,0.169c-5.115,4.104-8.398,10.4-8.398,17.453c0,12.339,10.038,22.376,22.376,22.376
		c9.281,0,17.258-5.683,20.642-13.751c0.107,0.419,0.413,0.765,0.835,0.896c2.916,0.899,6.24,1.374,9.616,1.374
		c3.457,0,6.852-0.497,9.817-1.438c0.286-0.091,0.513-0.283,0.668-0.523c1.964,4.524,5.359,8.227,9.593,10.595l0.074,0.083
		l0.029-0.026c3.209,1.772,6.882,2.794,10.784,2.794c0.819,0,1.65-0.046,2.469-0.136
		C389.285,174.502,398.166,163.43,396.819,151.165z M312.494,173.464c-10.949,0-19.856-8.908-19.856-19.856
		c0-10.947,8.908-19.854,19.856-19.854c9.684,0,17.758,6.974,19.495,16.16l0.349,3.855
		C332.25,164.643,323.386,173.464,312.494,173.464z M335.52,160.954l-0.657-7.241c0-0.035,0.003-0.07,0.003-0.105
		c0-1.404-0.136-2.775-0.385-4.108l-0.277-3.061c2.796-0.935,6.018-1.426,9.383-1.426c3.099,0,6.082,0.453,8.88,1.346l-0.662,14.554
		C346.821,162.301,340.533,162.317,335.52,160.954z M372.411,133.874c0.728-0.08,1.466-0.121,2.194-0.121
		c1.914,0,3.768,0.273,5.525,0.782l-21.69,30.625c-1.923-2.689-3.212-5.881-3.597-9.384
		C353.648,144.895,361.529,135.07,372.411,133.874z M359.602,166.634l22.302-31.49c1.888,0.748,3.627,1.789,5.183,3.053l0.003,0.003
		c0,0,0,0,0.001,0c2.275,1.849,4.131,4.193,5.41,6.891l-14.632,13.199l-13.766,12.201
		C362.414,169.442,360.904,168.133,359.602,166.634z M376.747,173.345c-0.728,0.08-1.466,0.121-2.194,0.121
		c-3.144,0-6.127-0.735-8.782-2.048l13.298-11.787l14.165-12.777c0.524,1.456,0.905,2.985,1.081,4.586
		C395.509,162.323,387.629,172.15,376.747,173.345z"/>
</g>
<g>
	<g>
		<path fill="#5D5E5E" d="M528.14,129.097c0.162,0.034,0.313,0.072,0.478,0.105c0.009-0.003,0.018-0.006,0.026-0.009
			c4.644,0.874,9.907,1.325,15.06,1.325c5.011,0,10.13-0.426,14.679-1.253c0.011,0.004,0.022,0.008,0.033,0.012
			c0.252-0.049,0.486-0.105,0.733-0.157c8.159-1.589,14.299-4.508,14.299-8.629c0-6.513-15.325-10.027-29.744-10.027
			s-29.744,3.515-29.744,10.027C513.959,124.591,520.039,127.502,528.14,129.097z M543.703,127.997
			c-3.358,0-6.454-0.176-9.266-0.478c2.842-0.598,5.854-0.929,8.979-0.929c3.199,0,6.278,0.346,9.178,0.97
			C549.884,127.838,546.913,127.997,543.703,127.997z M543.703,112.982c16.867,0,27.225,4.373,27.225,7.508
			c0,2.062-4.479,4.658-12.343,6.195c-4.548-1.663-9.7-2.614-15.167-2.614c-5.386,0-10.466,0.921-14.966,2.538
			c-7.631-1.545-11.975-4.091-11.975-6.119C516.479,117.355,526.836,112.982,543.703,112.982z"/>
		<path fill="#5D5E5E" d="M566.363,130.609c-0.992,0.35-2.034,0.672-3.114,0.968c6.267,3.641,10.364,8.967,10.754,14.941
			c-2.385,0.658-9.173,2.318-16.891,2.318c-11.243,0-19.598-3.376-24.828-10.034c-0.24-0.305-0.605-0.481-0.991-0.481
			c-0.02,0-0.038,0-0.058,0.001c-0.406,0.019-0.779,0.232-1,0.574c-4.158,6.426-14.128,7.218-17.377,7.301
			c0.518-5.902,4.656-11.149,10.916-14.728c-1.078-0.305-2.117-0.635-3.104-0.993c-6.39,4.266-10.388,10.298-10.388,16.979
			c0,0.674,0.53,1.229,1.204,1.259c0,0,0.254,0.012,0.71,0.012c3.233,0,13.691-0.538,19.159-7.11
			c5.719,6.38,14.581,9.74,25.756,9.74c9.962,0,18.216-2.59,18.562-2.699c0.523-0.167,0.878-0.652,0.878-1.201
			C576.553,140.842,572.637,134.867,566.363,130.609z"/>
	</g>
	<circle fill="#5D5E5E" cx="530.303" cy="156.36" r="3.004"/>
	<g>
		<path fill="#5D5E5E" d="M543.314,175.071c-1.73,0-3.452-0.213-5.119-0.634c-0.676-0.17-1.084-0.854-0.914-1.53
			c0.17-0.674,0.854-1.084,1.529-0.912c1.519,0.383,3.096,0.545,4.662,0.557c4.95-0.042,9.603-2.039,13.1-5.623
			c0.486-0.498,1.284-0.508,1.781-0.021c0.498,0.485,0.509,1.283,0.022,1.781c-3.97,4.069-9.255,6.336-14.881,6.383
			C543.434,175.071,543.374,175.071,543.314,175.071z"/>
	</g>
	<g>
		<path fill="#5D5E5E" d="M557.65,157.917c-0.617,0-1.157-0.454-1.246-1.083c-0.099-0.689,0.381-1.327,1.069-1.425l4.177-0.594
			c0.684-0.094,1.327,0.381,1.425,1.07s-0.381,1.327-1.07,1.425l-4.176,0.594C557.769,157.912,557.709,157.917,557.65,157.917z"/>
	</g>
</g>
<g>
	<path fill="#5D5E5E" d="M792.74,145.165c-0.527-0.167-1.104,0.029-1.417,0.484c-2.002,2.895-4.664,4.426-7.698,4.426
		c-3.031,0-5.692-1.531-7.694-4.426c-0.312-0.454-0.89-0.65-1.413-0.485c-1.383,0.434-5.048,2.512-7.18,4.064
		c-2.544-3.731-6.057-6.624-10.896-8.159c-0.527-0.167-1.103,0.028-1.417,0.484c-2.376,3.431-5.532,5.245-9.125,5.245
		c-3.603,0-6.76-1.813-9.133-5.244c-0.312-0.455-0.89-0.651-1.417-0.484c-4.841,1.535-8.354,4.427-10.897,8.157
		c-2.132-1.552-5.793-3.628-7.177-4.062c-0.522-0.164-1.1,0.031-1.413,0.485c-2.002,2.895-4.663,4.426-7.695,4.426
		c-3.033,0-5.695-1.531-7.698-4.426c-0.314-0.456-0.889-0.65-1.417-0.484c-13.5,4.281-15.061,22.025-15.061,35h2.52
		c0-18.752,3.966-29.06,12.46-32.305c2.411,3.062,5.646,4.733,9.196,4.733c3.533,0,6.752-1.656,9.158-4.689
		c1.535,0.729,4.311,2.347,5.812,3.474c-4.39,8.036-5.17,19.035-5.17,28.875h2.521c0-14.51,1.702-31.661,14.774-36.491
		c2.777,3.59,6.522,5.554,10.638,5.554c4.105,0,7.85-1.964,10.63-5.555c13.068,4.83,14.771,21.98,14.771,36.492h2.521
		c0-9.84-0.78-20.837-5.167-28.874c1.502-1.127,4.28-2.747,5.815-3.477c2.406,3.033,5.624,4.689,9.157,4.689
		c3.552,0,6.786-1.672,9.196-4.733c8.494,3.245,12.46,13.552,12.46,32.305h2.52C807.801,167.191,806.24,149.446,792.74,145.165z"/>
	<path fill="#5D5E5E" d="M708.059,115.23c-5.562,0-10.07,2.616-10.07,13.473c0,10.864,4.508,16.456,10.07,16.456
		c5.554,0,10.063-5.592,10.063-16.456C718.122,117.846,713.611,115.23,708.059,115.23z M714.114,134.694
		c-1.478,3.787-4.008,6.047-6.772,6.047c-2.498,0-4.803-1.825-6.324-5.008c-0.214-0.449-0.023-0.986,0.426-1.2
		c0.447-0.215,0.984-0.024,1.199,0.424c1.209,2.532,2.923,3.984,4.699,3.984c1.994,0,3.898-1.832,5.096-4.9
		c0.182-0.464,0.706-0.69,1.166-0.512C714.065,133.709,714.295,134.231,714.114,134.694z"/>
	<path fill="#5D5E5E" d="M783.733,115.23c-5.555,0-10.063,2.616-10.063,13.473c0,10.864,4.51,16.456,10.063,16.456
		c5.562,0,10.07-5.592,10.07-16.456C793.805,117.846,789.297,115.23,783.733,115.23z M790.326,136.369
		c-1.521,3.183-3.826,5.008-6.324,5.008c-2.766,0-5.297-2.261-6.771-6.047c-0.181-0.463,0.049-0.985,0.513-1.166
		c0.464-0.179,0.984,0.049,1.165,0.512c1.193,3.068,3.098,4.9,5.093,4.9c1.777,0,3.49-1.452,4.699-3.984
		c0.216-0.448,0.753-0.639,1.2-0.424C790.351,135.383,790.54,135.92,790.326,136.369z"/>
	<path fill="#5D5E5E" d="M745.898,105.877c-6.474,0-11.714,3.532-11.714,16.164c0,12.651,5.24,19.155,11.714,19.155
		c6.467,0,11.715-6.504,11.715-19.155C757.613,109.41,752.365,105.877,745.898,105.877z M753.062,130.26
		c-1.228,3.345-3.522,5.454-6.3,5.787c-0.251,0.03-0.503,0.045-0.755,0.045c-2.813,0-5.646-1.848-7.706-5.071
		c-0.268-0.419-0.145-0.976,0.274-1.243c0.419-0.268,0.976-0.146,1.243,0.274c1.86,2.916,4.373,4.493,6.729,4.208
		c2.08-0.25,3.838-1.933,4.823-4.62c0.171-0.466,0.688-0.706,1.154-0.535C752.993,129.276,753.232,129.793,753.062,130.26z"/>
	<g>
		<g>
			<path fill="#5D5E5E" d="M744.285,174.743c0-2.133,0-4.267,0-6.401c0-0.11,0-0.11-0.118-0.11c-0.695,0-1.393,0-2.087,0
				c-0.13,0-0.13,0-0.13-0.123c0-0.785,0-1.572,0-2.357c0-0.125,0-0.125,0.126-0.125c0.703,0,1.404-0.002,2.106,0.002
				c0.08,0,0.105-0.021,0.104-0.102c-0.003-0.625,0.003-1.247-0.001-1.871c-0.003-0.354,0.034-0.702,0.127-1.044
				c0.204-0.761,0.621-1.378,1.321-1.803c0.649-0.397,1.375-0.517,2.13-0.507c0.348,0.003,0.694,0.017,1.042,0.031
				c0.276,0.013,0.557,0.035,0.836,0.053c0.071,0.006,0.104,0.027,0.104,0.109l-0.001,2.155c0,0.074-0.018,0.098-0.101,0.098
				c-0.388-0.006-0.777-0.007-1.167-0.001c-0.201,0.002-0.406,0.009-0.604,0.035c-0.319,0.041-0.589,0.174-0.74,0.469
				c-0.096,0.186-0.132,0.385-0.132,0.589c-0.008,0.558-0.006,1.116-0.006,1.673c0,0.113,0,0.115,0.118,0.115c0.801,0,1.602,0,2.4,0
				c0.042,0,0.082-0.004,0.134,0l-0.324,2.492c-0.012,0.097-0.051,0.111-0.138,0.111c-0.69-0.002-1.381-0.001-2.071-0.001
				c-0.119,0-0.119,0-0.119,0.11c0,2.136,0,4.27,0,6.402H744.285L744.285,174.743z"/>
		</g>
	</g>
	<g>
		<path fill="#5D5E5E" d="M713.711,167.934c0,1.516,0,3.03,0,4.548c0,0.685-0.458,1.24-1.132,1.368
			c-0.07,0.014-0.146,0.02-0.216,0.02c-3.062,0-6.12,0-9.184,0c-0.727,0-1.338-0.605-1.351-1.334c0-0.015,0-0.028,0-0.045
			c0-3.041,0-6.082,0-9.121c0-0.581,0.351-1.091,0.89-1.292c0.15-0.059,0.308-0.089,0.471-0.089c3.054,0,6.106-0.001,9.161,0
			c0.749,0,1.359,0.614,1.359,1.364C713.711,164.881,713.711,166.407,713.711,167.934z M711.312,167.019
			c0.418,1.644-0.339,3.131-1.394,3.865c-1.234,0.856-2.537,0.94-3.877,0.262c-0.625-0.313-1.104-0.799-1.448-1.405
			c-0.48-0.855-0.598-1.766-0.363-2.72c-0.345,0-0.686,0-1.03,0c0,0.026,0,0.048,0,0.069c0,1.643,0,3.283,0,4.925
			c0,0.292,0.192,0.483,0.484,0.483c2.723,0,5.446,0,8.171,0c0.294,0,0.483-0.191,0.483-0.481c0-1.644,0-3.284,0-4.924
			c0-0.024,0-0.048,0-0.074C711.994,167.019,711.655,167.019,711.312,167.019z M710.056,167.934c0-1.266-1.019-2.287-2.279-2.289
			c-1.263-0.001-2.286,1.018-2.289,2.279c-0.003,1.265,1.02,2.287,2.284,2.291C709.033,170.215,710.056,169.196,710.056,167.934z
			 M712.34,164.505c0-0.226,0-0.449,0-0.675c0-0.272-0.193-0.47-0.468-0.47c-0.45-0.002-0.897-0.002-1.346,0
			c-0.274,0-0.472,0.198-0.472,0.469c0,0.449,0,0.898,0,1.347c0,0.269,0.198,0.468,0.467,0.469c0.45,0.001,0.899,0.001,1.353,0
			c0.269-0.001,0.466-0.197,0.466-0.468C712.343,164.954,712.34,164.729,712.34,164.505z"/>
	</g>
	<g>
		<path fill="#5D5E5E" d="M777.447,172.538c1.602,0.121,3.039-0.274,4.34-1.246c-1.496-0.26-2.521-1.043-2.738-2.09
			c0.414,0.045,0.826,0.07,1.279-0.059c-0.826-0.215-1.441-0.646-1.879-1.32c-0.326-0.504-0.489-1.102-0.456-1.641
			c0.401,0.195,0.812,0.34,1.306,0.355c-0.646-0.482-1.062-1.078-1.221-1.834c-0.158-0.746-0.053-1.456,0.332-2.145
			c1.617,1.9,3.647,2.944,6.142,3.124c-0.014-0.112-0.024-0.209-0.038-0.307c-0.162-1.256,0.494-2.485,1.625-3.051
			c1.141-0.568,2.513-0.359,3.417,0.526c0.085,0.083,0.161,0.095,0.269,0.068c0.599-0.141,1.165-0.361,1.739-0.694
			c-0.229,0.7-0.642,1.21-1.199,1.617c0.546-0.045,1.056-0.206,1.555-0.413c0.012,0.013,0.023,0.025,0.037,0.037
			c-0.227,0.27-0.441,0.551-0.686,0.805c-0.212,0.221-0.459,0.404-0.682,0.613c-0.056,0.053-0.107,0.143-0.106,0.216
			c0.021,2.354-0.745,4.415-2.344,6.142c-1.623,1.754-3.673,2.568-6.046,2.605c-1.585,0.023-3.06-0.376-4.427-1.174
			C777.592,172.631,777.521,172.583,777.447,172.538z"/>
	</g>
</g>
<g>
	<g>
		<path fill="#5D5E5E" d="M992.909,140.574l-12.752-39.878c-0.167-0.522-0.652-0.876-1.2-0.876h-70.346
			c-0.543,0-1.025,0.348-1.196,0.864l-13.195,39.878c-0.042,0.128-0.062,0.262-0.062,0.396v39.544c0,3.973,3.744,7.203,8.348,7.203
			h82.115c4.604,0,8.35-3.23,8.35-7.203v-39.544C992.969,140.827,992.949,140.698,992.909,140.574z M903.701,119.93h79.961
			l2.854,8.924h-85.768L903.701,119.93z M906.901,110.258c0.005,0,0.01,0.003,0.015,0.003h73.654l2.286,7.149h-78.322
			L906.901,110.258z M909.521,102.339h68.516l1.728,5.402h-72.029L909.521,102.339z M899.914,131.373h87.407l3.128,9.781v0.119
			h-20.462l-0.937-4.722c-0.136-0.682-0.791-1.128-1.48-0.991c-0.684,0.135-1.126,0.798-0.991,1.481l0.839,4.231h-22.863V137
			c0-0.696-0.562-1.26-1.26-1.26s-1.26,0.564-1.26,1.26v4.272H919.46l0.839-4.231c0.135-0.683-0.309-1.346-0.991-1.481
			c-0.686-0.138-1.346,0.309-1.48,0.991l-0.937,4.722h-20.215v-0.112L899.914,131.373z M984.619,185.186h-82.115
			c-3.214,0-5.828-2.102-5.828-4.686v-36.708h20.241v3.729c0,0.696,0.563,1.26,1.26,1.26c0.697,0,1.261-0.564,1.261-1.26v-3.729
			h22.599v3.729c0,0.696,0.562,1.26,1.26,1.26s1.26-0.564,1.26-1.26v-3.729h22.888v3.729c0,0.696,0.562,1.26,1.26,1.26
			s1.26-0.564,1.26-1.26v-3.729h20.488V180.5C990.449,183.084,987.834,185.186,984.619,185.186z"/>
	</g>
	<g>
		<g>
			<path fill="#5D5E5E" d="M935.732,178.192h-0.822c-0.497,0-0.9-0.402-0.9-0.9v-17.505c-0.92,0.591-2.062,0.956-3.39,1.074
				c-0.259,0.022-0.501-0.062-0.688-0.232c-0.187-0.17-0.293-0.412-0.293-0.664v-0.598c0-0.47,0.362-0.861,0.831-0.897
				c1.76-0.136,2.988-0.972,3.652-2.482c0.144-0.327,0.467-0.538,0.824-0.538h0.784c0.497,0,0.9,0.403,0.9,0.9v20.942
				C936.633,177.788,936.229,178.192,935.732,178.192z"/>
		</g>
		<g>
			<path fill="#5D5E5E" d="M950.262,178.341c-4.049,0-6.466-2.291-6.466-6.13v-0.148c0-0.497,0.403-0.9,0.9-0.9h0.784
				c0.496,0,0.899,0.403,0.899,0.9v0.18c0,2.455,1.307,3.7,3.881,3.7c2.587,0,3.845-1.259,3.845-3.85v-3.396
				c-0.903,0.592-2.192,1.008-4.03,1.008c-3.933,0-6.279-2.291-6.279-6.128v-2.061c0-3.894,2.417-6.218,6.466-6.218
				s6.467,2.325,6.467,6.218v10.605C956.729,176.016,954.311,178.341,950.262,178.341z M950.262,157.725
				c-2.551,0-3.844,1.266-3.844,3.761v2.062c0,2.495,1.293,3.76,3.844,3.76s3.845-1.265,3.845-3.76v-2.062
				C954.105,158.991,952.812,157.725,950.262,157.725z"/>
		</g>
	</g>
</g>
<g>
	<g>
		<path fill="#5D5E5E" d="M-70.172,339.567h-6.031c-0.245,0-0.458-0.164-0.521-0.4s0.04-0.485,0.251-0.607l0.7-0.403
			c0.082-0.047,0.175-0.072,0.27-0.072h6.002c0.298,0,0.54,0.242,0.54,0.54c0,0.199-0.11,0.43-0.286,0.523l-0.671,0.356
			C-69.996,339.546-70.083,339.567-70.172,339.567z"/>
	</g>
	<g>
		<path fill="#5D5E5E" d="M-48.932,339.567h-6.032c-0.244,0-0.458-0.164-0.521-0.4c-0.063-0.235,0.04-0.484,0.251-0.607l0.699-0.403
			c0.083-0.047,0.176-0.072,0.271-0.072h6.003c0.298,0,0.54,0.242,0.54,0.54c0,0.199-0.11,0.43-0.286,0.523l-0.67,0.356
			C-48.756,339.546-48.843,339.567-48.932,339.567z"/>
	</g>
	<g>
		<path fill="#5D5E5E" d="M-25.194,386.198h-54.877c-0.696,0-1.26-0.563-1.26-1.26v-9.188l-7.057-7.378
			c-0.224-0.234-0.349-0.547-0.349-0.871v-16.833c0-0.696,0.564-1.26,1.26-1.26h54.54c0.696,0,1.26,0.562,1.26,1.26v20.722
			l7.424,8.322c0.206,0.231,0.319,0.529,0.319,0.839v4.389C-23.934,385.635-24.498,386.198-25.194,386.198z M-78.811,383.679h52.357
			v-2.646l-7.424-8.322c-0.206-0.23-0.319-0.529-0.319-0.839v-19.942h-52.021v15.067l7.057,7.378
			c0.224,0.234,0.349,0.547,0.349,0.871L-78.811,383.679L-78.811,383.679z"/>
	</g>
	<g>
		<path fill="#5D5E5E" d="M-10.276,386.198h-7.511c-0.696,0-1.26-0.563-1.26-1.26v-8.497l-7.087-7.942
			c-0.206-0.23-0.32-0.529-0.32-0.839v-20.064c0-0.348,0.144-0.68,0.397-0.918l7.01-6.589v-40.232c0-0.696,0.564-1.261,1.26-1.261
			h7.511c0.696,0,1.26,0.563,1.26,1.261v85.083C-9.016,385.635-9.58,386.198-10.276,386.198z"/>
	</g>
	<path fill="#5D5E5E" d="M-25.352,333.247h-12.989v-3.333c2.699-0.716,4.691-3.17,4.691-6.095c0-3.486-2.826-6.314-6.311-6.314
		c-3.488,0-6.316,2.828-6.316,6.314c0,2.925,1.994,5.379,4.695,6.095v3.333h-35.896v-8.272l23.859-23.858h28.332
		c0.696,0,1.26-0.563,1.26-1.26c0-0.697-0.564-1.261-1.26-1.261h-53.451c-0.696,0-1.26,0.563-1.26,1.261v33.951l-8.381,8.572
		c-0.354,0.362-0.457,0.902-0.26,1.369c0.196,0.468,0.654,0.771,1.161,0.771h54.382c0.319,0,0.627-0.12,0.86-0.339l7.743-7.237
		c0.255-0.238,0.399-0.572,0.399-0.922v-1.516C-24.092,333.811-24.656,333.247-25.352,333.247z M-77.477,318.72v-6.859
		l10.748-10.744h6.856L-77.477,318.72z M-70.64,301.115l-6.836,6.834v-6.834H-70.64z M-33.592,342.001h-50.891l6.095-6.234h36.807
		v3.895h3.24v-3.895h11.417L-33.592,342.001z"/>
	<g>
		<path fill="#5D5E5E" d="M-62.081,340.109c-1.613,0-2.431-0.411-2.431-1.223s0.818-1.224,2.431-1.224
			c1.611,0,2.429,0.412,2.429,1.224C-59.653,339.698-60.47,340.109-62.081,340.109z"/>
	</g>
</g>
<g>
	<g>
		<path fill="#5D5E5E" d="M121.808,326.823c-0.497,0-0.9-0.403-0.9-0.9v-1.503c0-1.859,1.515-3.375,3.377-3.375h1.664
			c0.497,0,0.9,0.403,0.9,0.9s-0.403,0.899-0.9,0.899h-1.664c-0.87,0-1.578,0.706-1.578,1.574v1.503
			C122.708,326.42,122.305,326.823,121.808,326.823z"/>
	</g>
	<g>
		<path fill="#5D5E5E" d="M107.714,333.945c-0.497,0-0.9-0.403-0.9-0.9v-13.943c0-0.496,0.403-0.899,0.9-0.899s0.9,0.403,0.9,0.899
			v13.943C108.613,333.542,108.211,333.945,107.714,333.945z"/>
	</g>
	<g>
		<path fill="#5D5E5E" d="M112.093,333.945c-0.497,0-0.9-0.403-0.9-0.9v-13.943c0-0.496,0.403-0.899,0.9-0.899s0.9,0.403,0.9,0.899
			v13.943C112.992,333.542,112.59,333.945,112.093,333.945z"/>
	</g>
	<g>
		<path fill="#5D5E5E" d="M171.844,326.823c-0.497,0-0.9-0.403-0.9-0.9v-1.503c0-1.859,1.515-3.375,3.377-3.375h1.663
			c0.497,0,0.9,0.403,0.9,0.9s-0.403,0.899-0.9,0.899h-1.663c-0.87,0-1.578,0.706-1.578,1.574v1.503
			C172.744,326.42,172.342,326.823,171.844,326.823z"/>
	</g>
	<path fill="#5D5E5E" d="M210.709,318.274c-1.713,0-3.105,1.393-3.105,3.104c0,1.712,1.393,3.105,3.105,3.105
		c1.711,0,3.104-1.395,3.104-3.105S212.42,318.274,210.709,318.274z M210.709,322.683c-0.72,0-1.306-0.585-1.306-1.305
		c0-0.719,0.586-1.303,1.306-1.303s1.304,0.584,1.304,1.303C212.013,322.098,211.428,322.683,210.709,322.683z"/>
	<g>
		<path fill="#5D5E5E" d="M210.709,333.739c-1.713,0-3.105-1.394-3.105-3.104s1.393-3.104,3.105-3.104
			c1.711,0,3.104,1.393,3.104,3.104S212.42,333.739,210.709,333.739z"/>
	</g>
	<path fill="#5D5E5E" d="M222.604,335.909h-3.743v-25.741c0-0.696-0.564-1.26-1.26-1.26h-57.295h-0.018h-57.295
		c-0.696,0-1.26,0.562-1.26,1.26v25.741h-3.747c-0.696,0-1.26,0.562-1.26,1.26v30.575c0,0.696,0.564,1.26,1.26,1.26h16.948v9.407
		c0,0.298,0.242,0.54,0.54,0.54h6.333c0.298,0,0.54-0.242,0.54-0.54v-9.407h75.895v9.407c0,0.298,0.242,0.54,0.54,0.54h6.333
		c0.298,0,0.54-0.242,0.54-0.54v-9.407h16.948c0.696,0,1.26-0.562,1.26-1.26v-30.575C223.864,336.473,223.3,335.909,222.604,335.909
		z M216.343,311.428v24.481h-11.288v-15.943c0-2.257-1.834-4.092-4.09-4.092h-31.266c-2.256,0-4.092,1.835-4.092,4.092v24.599
		c0,2.256,1.835,4.091,4.092,4.091h32.836v3.904h-40.968v-41.132H216.343z M202.534,319.966v17.203v7.396v1.57h-32.836
		c-0.867,0-1.572-0.705-1.572-1.57v-24.599c0-0.867,0.706-1.572,1.572-1.572h31.266
		C201.829,318.394,202.534,319.099,202.534,319.966z M104.254,311.428h54.775v41.132h-40.968v-3.904h32.837
		c2.256,0,4.091-1.835,4.091-4.091v-24.599c0-2.257-1.835-4.092-4.091-4.092h-31.267c-2.255,0-4.09,1.835-4.09,4.092l0.026,15.943
		h-11.314L104.254,311.428L104.254,311.428z M118.062,346.134v-1.569v-7.396v-17.203c0-0.867,0.705-1.572,1.57-1.572h31.267
		c0.866,0,1.571,0.705,1.571,1.572v24.599c0,0.865-0.705,1.57-1.571,1.57L118.062,346.134z M221.345,366.484H99.247v-28.057h2.487
		h2.52h11.288v15.392c0,0.695,0.564,1.26,1.26,1.26h86.992c0.696,0,1.26-0.563,1.26-1.26v-5.165v-10.227h11.288h2.52h2.483
		L221.345,366.484L221.345,366.484z"/>
</g>
<g>
	<path fill="#5D5E5E" d="M403.253,297.9h-76.168c-9.163,0-12.414,5.828-12.414,10.818v61.12c0,0.696,0.564,1.26,1.261,1.26h76.303
		c0.615,0,1.14-0.442,1.242-1.05c1.334-7.903,7.558-8.519,9.434-8.519c0.149,0,0.24,0.005,0.254,0.006
		c0.354,0.021,0.692-0.097,0.948-0.335s0.401-0.572,0.401-0.922v-61.12C404.513,298.464,403.948,297.9,403.253,297.9z
		 M323.598,337.268c0.278,0.161,0.623,0.159,0.9-0.002l5.671-3.292l5.669,3.292c0.278,0.161,0.622,0.163,0.901,0.002
		c0.279-0.16,0.451-0.458,0.451-0.779v-25.446h53.65v40.088h-73.65v-40.088h5.957v25.446
		C323.147,336.81,323.319,337.106,323.598,337.268z M335.494,309.371c-0.067,0.129-0.103,0.271-0.103,0.418v25.135l-4.77-2.77
		c-0.28-0.162-0.625-0.162-0.904,0l-4.771,2.77v-24.915l2.406-4.638h10.242L335.494,309.371z M317.19,353.648h73.649v14.932H317.19
		V353.648z M393.36,363.682v-53.899c0-0.696-0.564-1.26-1.26-1.26h-54.127l1.653-3.15h57.298v55.183
		C395.667,361.244,394.412,362.241,393.36,363.682z M401.993,359.052c-0.823,0.069-1.992,0.25-3.268,0.697v-55.278
		c0-0.497-0.403-0.899-0.9-0.899h-71.023c-0.34,0-0.649,0.19-0.804,0.495l-2.322,4.481c-0.045-0.005-0.084-0.025-0.13-0.025h-6.351
		c0.048-2.137,0.982-8.103,9.89-8.103h74.908V359.052L401.993,359.052z"/>
	<circle fill="#5D5E5E" cx="353.713" cy="361.067" r="3.564"/>
	<path fill="#5D5E5E" d="M378.069,378.645c-0.206-0.128-0.44-0.186-0.675-0.185v-0.007c-1.042,0-3.528-1.357-3.796-3.445h-2.519
		c0.146,2.091,1.496,3.823,3.1,4.871l-2.648,1.286c-3.868-0.397-4.725-3.328-4.745-5.757c0-0.029-0.001-0.06-0.004-0.088v-0.312
		h-2.52v0.409c0,0.038,0,0.076,0.005,0.113c0.069,4.399,2.367,7.328,6.228,8.04v0.456h-35.104v-0.457
		c3.836-0.708,6.133-3.61,6.225-7.972c0.003-0.04,0.005-0.081,0.005-0.122v-0.469h-2.52v0.369c-0.002,0.027-0.004,0.056-0.004,0.083
		c-0.032,2.471-0.935,5.473-5.049,5.739c-0.663,0.044-1.178,0.603-1.178,1.267v2.82c0,0.696,0.564,1.26,1.26,1.26h37.625
		c0.151,0,0.302-0.035,0.445-0.09c0.023-0.009,0.045-0.014,0.067-0.023c0.014-0.007,0.028-0.009,0.043-0.016l5.646-2.771
		c0.433-0.213,0.705-0.65,0.705-1.132v-2.801C378.66,379.278,378.438,378.875,378.069,378.645z"/>
</g>
<g>
	<path fill="#5D5E5E" d="M585.564,338.406c-0.105-1.412-0.834-3.948-1.857-5.727l-11.142-20.269v-12.945
		c0-3.785-3.197-6.865-7.128-6.865c-3.932,0-7.128,3.08-7.128,6.865v1.729c-0.515,0.287-1.001,0.632-1.44,1.052
		c-3.259,3.117-1.236,7.349-0.252,9.409l1.692,3.335v5.279c-1.243-1.019-2.852-1.637-4.606-1.637c-3.855,0-7,2.968-7.117,6.656
		c-1.295-1.098-2.987-1.77-4.845-1.77c-3.937,0-7.15,2.997-7.335,6.745c-0.002,0.03-0.018,0.058-0.018,0.088v0.249v15.38v23.743
		c0,4.688,2.064,8.403,5.525,10.52c-0.133,0.2-0.229,0.426-0.229,0.684v13.517c0,0.695,0.562,1.26,1.26,1.26h37.245
		c0.695,0,1.26-0.563,1.26-1.26v-13.517c0-0.369-0.165-0.692-0.418-0.924c3.411-2.244,5.654-6.001,5.654-10.239l0.894-29.211
		L585.564,338.406z M560.829,299.466c0-2.396,2.067-4.346,4.608-4.346s4.607,1.949,4.607,4.346v8.362l-2.9-5.278
		c-0.062-0.113-0.143-0.216-0.234-0.305c-1.654-1.581-3.928-2.208-6.081-1.899V299.466L560.829,299.466z M558.61,304.067
		c0.428-0.408,0.92-0.716,1.444-0.931c0.005-0.003,0.01-0.006,0.016-0.008c1.636-0.665,3.593-0.396,4.965,0.813l16.477,29.974
		c0.818,1.421,1.458,3.565,1.536,4.592l0.015,2.016l-0.289,9.443l-7.292-6.716l-16.604-32.711
		C557.29,307.217,557.215,305.402,558.61,304.067z M572.242,342.441l-11.413,0.529v-17.473c0-0.192-0.014-0.382-0.03-0.57
		c0.008-0.051,0.03-0.096,0.03-0.147v-4.827L572.242,342.441z M549.095,325.499c0-2.396,2.066-4.347,4.607-4.347
		c2.54,0,4.606,1.949,4.606,4.347v17.59l-2.65,0.123c-2.74,0-5.129,1.467-6.37,3.627c-0.121-0.392-0.193-0.798-0.193-1.218v-15.02
		V325.499z M541.741,326.04c2.665,0,4.834,2.047,4.834,4.562v15.02v0.36c0,2.516-2.169,4.562-4.834,4.562s-4.833-2.047-4.833-4.562
		v-15.38C536.908,328.087,539.076,326.04,541.741,326.04z M542.206,382.188h5.168h2.844c-1.154,1.244-1.836,2.867-1.836,4.689v6.306
		h-6.176V382.188z M576.932,382.188v10.995h-26.03v-6.306c0-2.62,2.277-4.597,5.324-4.689h15.477H576.932z M571.702,379.668h-15.171
		c-0.03-0.002-0.056-0.018-0.087-0.018c-0.141,0-0.277,0.012-0.415,0.018h-8.655c-6.455,0-10.466-3.81-10.466-9.942v-18.42
		c1.294,1.092,2.982,1.759,4.833,1.759c2.637,0,4.946-1.349,6.245-3.36c0.036,0.047,0.062,0.101,0.101,0.146
		c0.087,0.106,0.191,0.188,0.302,0.26c-0.001,0.037-0.007,0.073-0.007,0.11c0,3.864,3.263,7.01,7.352,7.01c0.001,0,0.003,0,0.004,0
		l5.855-0.361c-3.256,3.296-5.086,7.641-5.086,12.256c0,0.696,0.562,1.26,1.26,1.26s1.26-0.562,1.26-1.26
		c0-4.676,2.2-9.039,6.036-11.971c0.04-0.03,0.06-0.074,0.095-0.108l1.823,1.259c0.219,0.15,0.468,0.224,0.715,0.224
		c0.4,0,0.793-0.189,1.038-0.544c0.396-0.572,0.251-1.357-0.321-1.753l-2.709-1.87c-0.231-0.16-0.516-0.232-0.793-0.222l-9.25,0.573
		c-2.623,0-4.758-2.015-4.758-4.491c0-2.476,2.135-4.488,4.816-4.489l17.836-0.827l0.092,0.085c0,0,0,0,0.001,0l9.023,8.312
		l-0.503,16.427C582.168,375.208,577.473,379.668,571.702,379.668z"/>
	<ellipse fill="#5D5E5E" cx="556.835" cy="387.374" rx="1.662" ry="1.587"/>
</g>
<g>
	<path fill="none" d="M-66.078,116.375c0.009,0.024-0.031,0.171-0.03,0.494v36.24c0.033,2.093,0.449,3.872,1.274,5.444
		c0.281,0.535,0.592,1.003,0.938,1.403l0.001-0.001c0.921,0.99,2.217,1.32,3.387,0.861c1.687-0.664,2.695-2.697,2.695-5.44
		c0-6.112,0.004-12.223,0.008-18.334c0.004-6.11,0.008-12.221,0.008-18.332v-2.383h-7.862
		C-65.911,116.328-66.034,116.359-66.078,116.375z"/>
	<rect x="-43.54" y="121.812" fill="none" width="40.719" height="15.049"/>
	<path fill="none" d="M8.012,106.976h-62.829c-0.299,0-0.396,0.061-0.402,0.064c0.001,0-0.057,0.096-0.058,0.385v11.285
		c0,6.112-0.004,12.223-0.008,18.334c-0.004,6.11-0.008,12.222-0.008,18.332c0,2.718-0.813,4.976-2.251,6.433
		c3.714-0.005,7.43-0.006,11.145-0.006c5.184,0,10.366,0.003,15.549,0.006c8.263,0.006,16.522,0.01,24.786,0.003
		c2.219-0.006,4.426-0.286,6.557-0.835c4.322-1.115,6.76-3.651,7.453-7.754c0.316-1.877,0.482-3.93,0.492-6.102l0.018-39.685
		c0-0.295-0.059-0.399-0.064-0.41C8.385,107.027,8.283,106.976,8.012,106.976z M-26.279,155.886
		c-0.166,0.211-0.588,0.301-0.898,0.303c-2.686,0.02-5.375,0.01-8.063,0.01c-2.727,0-5.453-0.002-8.182,0.006
		c-0.494,0.002-0.868-0.182-1.009-0.654c-0.134-0.443-0.055-0.881,0.384-1.143c0.178-0.105,0.405-0.178,0.611-0.178
		c5.473-0.008,10.949-0.008,16.422-0.002c0.449,0.002,0.871,0.18,0.947,0.645C-26.016,155.203-26.084,155.638-26.279,155.886z
		 M-27,150.806c-1.899,0.01-3.795,0.004-5.693,0.004c-0.851,0-1.698,0-2.549,0c-2.708,0-5.415,0.004-8.123-0.004
		c-0.767,0-1.147-0.381-1.104-1.064c0.029-0.516,0.361-0.857,0.92-0.898c0.412-0.029,0.828-0.01,1.242-0.01
		c4.941-0.002,9.883-0.002,14.823-0.002c0.178,0,0.357-0.01,0.533,0.002c0.58,0.049,0.982,0.451,0.988,0.986
		C-25.959,150.376-26.385,150.8-27,150.806z M-27,145.414c-1.899,0.01-3.795,0.004-5.693,0.004c-0.851,0-1.698,0-2.549,0
		c-2.708,0-5.415,0.004-8.123-0.004c-0.767,0-1.147-0.381-1.104-1.064c0.029-0.516,0.361-0.859,0.92-0.898
		c0.412-0.029,0.828-0.012,1.242-0.012c4.941-0.002,9.883-0.002,14.823-0.002c0.178,0,0.357-0.008,0.533,0.004
		c0.58,0.047,0.982,0.451,0.988,0.986C-25.959,144.982-26.385,145.408-27,145.414z M-19.193,148.833
		c0.156-0.008,0.314-0.002,0.473-0.002c3.322,0,6.643,0,9.963,0c1.918,0,3.836-0.004,5.752,0.002c0.234,0,0.49,0.006,0.697,0.098
		c0.449,0.193,0.65,0.58,0.562,1.062c-0.096,0.537-0.449,0.814-1.002,0.814c-1.541,0.002-3.082,0.002-4.625,0.002
		c-1.225,0-2.451,0-3.676,0c-2.709-0.002-5.418,0.004-8.125-0.004c-0.643,0-1.047-0.373-1.068-0.941
		C-20.266,149.275-19.855,148.869-19.193,148.833z M-20.242,144.47c-0.023-0.592,0.387-0.996,1.049-1.031
		c0.156-0.01,0.314-0.004,0.473-0.004c3.322,0,6.643,0,9.963,0c1.918,0,3.836-0.004,5.752,0.004c0.234,0,0.49,0.006,0.697,0.098
		c0.449,0.193,0.65,0.58,0.562,1.062c-0.096,0.537-0.449,0.814-1.002,0.814c-1.541,0.002-3.082,0.002-4.625,0.002
		c-1.225,0-2.451,0-3.676,0c-2.709-0.002-5.418,0.004-8.125-0.004C-19.816,145.412-20.221,145.037-20.242,144.47z M-2.748,156.197
		c-2.588,0.008-5.178,0.002-7.766,0.002c-0.178,0-0.355,0-0.535,0c-2.707,0-5.416,0.02-8.123-0.023
		c-0.326-0.004-0.775-0.264-0.93-0.539c-0.143-0.248-0.08-0.775,0.109-1.008c0.191-0.244,0.639-0.377,0.982-0.389
		c1.264-0.045,2.527-0.02,3.795-0.02c3.973,0,7.945,0,11.916,0.002c0.217,0,0.439-0.008,0.652,0.018
		c0.592,0.07,0.938,0.471,0.914,1.035C-1.754,155.833-2.129,156.195-2.748,156.197z M-0.301,138.121c0,0.696-0.564,1.26-1.26,1.26
		h-43.239c-0.696,0-1.26-0.564-1.26-1.26v-17.568c0-0.696,0.564-1.26,1.26-1.26h43.239c0.695,0,1.26,0.564,1.26,1.26V138.121z
		 M-0.301,114.031c-0.098,0.537-0.449,0.814-1.002,0.814c-1.543,0.002-4.363,0.002-5.906,0.002c-1.225,0-2.451,0-3.676,0
		c-2.709-0.002-31.498,0.004-34.205-0.004c-0.642,0-1.046-0.373-1.067-0.941c-0.023-0.59,0.387-0.996,1.049-1.031
		c0.156-0.008,0.314-0.002,0.473-0.002c3.322,0,32.721,0,36.042,0c1.918,0,5.115-0.004,7.033,0.002c0.234,0,0.488,0.006,0.695,0.098
		C-0.416,113.162-0.215,113.548-0.301,114.031z"/>
	<path fill="#5D5E5E" d="M-26.951,148.833c-0.176-0.012-0.355-0.002-0.533-0.002c-4.94,0-9.881,0-14.823,0.002
		c-0.414,0-0.83-0.02-1.242,0.01c-0.559,0.041-0.891,0.383-0.92,0.898c-0.043,0.684,0.338,1.064,1.104,1.064
		c2.708,0.008,5.415,0.004,8.123,0.004c0.851,0,1.698,0,2.549,0c1.897,0,3.794,0.006,5.693-0.004
		c0.615-0.006,1.041-0.43,1.037-0.986C-25.969,149.285-26.371,148.882-26.951,148.833z"/>
	<path fill="#5D5E5E" d="M-2.646,154.24c-0.213-0.025-0.436-0.018-0.652-0.018c-3.971-0.002-7.943-0.002-11.916-0.002
		c-1.268,0-2.531-0.025-3.795,0.02c-0.344,0.012-0.791,0.145-0.982,0.389c-0.189,0.232-0.252,0.76-0.109,1.008
		c0.154,0.275,0.604,0.535,0.93,0.539c2.707,0.043,5.416,0.023,8.123,0.023c0.18,0,0.357,0,0.535,0c2.588,0,5.178,0.006,7.766-0.002
		c0.619-0.002,0.994-0.363,1.016-0.922C-1.709,154.71-2.055,154.31-2.646,154.24z"/>
	<path fill="#5D5E5E" d="M-27.014,154.228c-5.473-0.006-10.95-0.006-16.422,0.002c-0.206,0-0.434,0.072-0.611,0.178
		c-0.438,0.262-0.518,0.699-0.384,1.143c0.141,0.473,0.515,0.656,1.009,0.654c2.729-0.008,5.455-0.006,8.182-0.006
		c2.688,0,5.377,0.01,8.063-0.01c0.311-0.002,0.732-0.092,0.898-0.303c0.195-0.248,0.264-0.684,0.213-1.014
		C-26.143,154.408-26.564,154.23-27.014,154.228z"/>
	<path fill="#5D5E5E" d="M-19.174,150.806c2.707,0.008,5.416,0.002,8.125,0.004c1.225,0,2.451,0,3.676,0
		c1.543,0,3.084,0,4.625-0.002c0.553,0,0.906-0.277,1.002-0.814c0.088-0.482-0.113-0.869-0.562-1.062
		c-0.207-0.092-0.463-0.098-0.697-0.098c-1.916-0.006-3.834-0.002-5.752-0.002c-3.32,0-6.641,0-9.963,0
		c-0.158,0-0.316-0.006-0.473,0.002c-0.662,0.035-1.072,0.441-1.049,1.031C-20.221,150.433-19.816,150.806-19.174,150.806z"/>
	<path fill="#5D5E5E" d="M-19.174,145.412c2.707,0.008,5.416,0.002,8.125,0.004c1.225,0,2.451,0,3.676,0
		c1.543,0,3.084,0,4.625-0.002c0.553,0,0.906-0.277,1.002-0.814c0.088-0.482-0.113-0.869-0.562-1.062
		c-0.207-0.092-0.463-0.098-0.697-0.098c-1.916-0.008-3.834-0.004-5.752-0.004c-3.32,0-6.641,0-9.963,0
		c-0.158,0-0.316-0.006-0.473,0.004c-0.662,0.035-1.072,0.439-1.049,1.031C-20.221,145.037-19.816,145.412-19.174,145.412z"/>
	<path fill="#5D5E5E" d="M-26.951,143.441c-0.176-0.012-0.355-0.004-0.533-0.004c-4.94,0-9.881,0-14.823,0.002
		c-0.414,0-0.83-0.018-1.242,0.012c-0.559,0.039-0.891,0.383-0.92,0.898c-0.043,0.684,0.338,1.064,1.104,1.064
		c2.708,0.008,5.415,0.004,8.123,0.004c0.851,0,1.698,0,2.549,0c1.897,0,3.794,0.006,5.693-0.004
		c0.615-0.006,1.041-0.432,1.037-0.986C-25.969,143.892-26.371,143.488-26.951,143.441z"/>
	<path fill="#5D5E5E" d="M-1.561,119.292h-43.239c-0.696,0-1.26,0.564-1.26,1.26v17.568c0,0.696,0.564,1.26,1.26,1.26h43.239
		c0.695,0,1.26-0.564,1.26-1.26v-17.568C-0.301,119.856-0.865,119.292-1.561,119.292z M-2.82,136.861H-43.54v-15.049H-2.82V136.861z
		"/>
	<path fill="#5D5E5E" d="M-0.865,112.968c-0.207-0.092-0.461-0.098-0.695-0.098c-1.918-0.006-5.115-0.002-7.033-0.002
		c-3.32,0-32.719,0-36.042,0c-0.158,0-0.316-0.006-0.473,0.002c-0.662,0.035-1.072,0.441-1.049,1.031
		c0.021,0.568,0.426,0.941,1.067,0.941c2.707,0.008,31.496,0.002,34.205,0.004c1.225,0,2.451,0,3.676,0c1.543,0,4.363,0,5.906-0.002
		c0.553,0,0.904-0.277,1.002-0.814C-0.215,113.548-0.416,113.162-0.865,112.968z"/>
	<path fill="#5D5E5E" d="M28.008,126.262c0-2.804-2.273-5.077-5.078-5.077s-5.078,2.273-5.078,5.077
		c0,2.329,1.578,4.271,3.717,4.869l0.088,6.048c-1.412,0.358-4.92,0.816-10.695-1.044l0.014-28.702
		c-0.004-1.836-1.141-2.977-2.963-2.977h-62.829c-1.835,0-2.977,1.136-2.979,2.966l0,6.386h-7.864
		c-0.96,0.001-1.678,0.254-2.193,0.772c-0.525,0.529-0.778,1.281-0.773,2.294v17.546c-7.818-2.164-11.656-0.312-11.827-0.226
		c-0.431,0.217-0.7,0.661-0.692,1.144l0.1,6.865c-2.244,0.526-3.918,2.529-3.918,4.933c0,2.804,2.273,5.077,5.078,5.077
		c2.804,0,5.077-2.273,5.077-5.077c0-2.33-1.578-4.272-3.716-4.87l-0.088-6.047c1.353-0.343,4.63-0.785,9.986,0.82v16.08
		c0,0.007,0,0.013,0,0.019c0.037,2.466,0.562,4.682,1.562,6.586c1.602,3.059,4.142,4.608,7.552,4.608
		c8.404-0.012,16.81-0.007,25.214-0.002l0.115,7.854c-1.236,0.313-4.08,0.703-8.639-0.451c0.001-0.006,0.003-0.011,0.004-0.017
		c0.212-1.115,0.344-2.135-1.101-2.766c0,0-2.183-0.887-3.369-1.242c-1.188-0.35-1.593-0.791-2.125,0.511
		c-0.529,1.294-4.689,11.666-2.104,16.898c1.003,2.025,2.928,1.213,3.529-0.736c0.607-1.945,1.939-5.584,3.413-6.01
		c1.478-0.422,3.321-1.354,1.999-3.591c-0.099-0.168-0.183-0.317-0.258-0.459c2.25,0.523,4.137,0.711,5.653,0.71
		c3.144,0,4.729-0.769,4.838-0.823c0.431-0.217,0.7-0.661,0.692-1.144l-0.128-8.736c0.309,0.001,0.618,0,0.928,0
		c3.295,0.003,6.592,0.004,9.887,0.005l15.104,13.412c-0.035,0.026-0.072,0.052-0.109,0.083c-0.859,0.725-1.6,1.428-0.881,2.82
		c0,0,1.123,2.051,1.814,3.066c0.695,1.014,0.732,1.605,1.955,0.939c1.219-0.668,10.918-6.047,12.205-11.696
		c0.498-2.186-1.492-2.768-3.18-1.643c-1.686,1.119-4.988,3.084-6.393,2.488c-1.402-0.6-3.404-1.039-3.787,1.515
		c-0.023,0.157-0.049,0.301-0.072,0.434l-12.857-11.418c0.619,0.001,1.24,0.002,1.861,0.002c3.08,0,6.164-0.002,9.244-0.005
		c2.43-0.006,4.846-0.313,7.182-0.915c5.238-1.351,8.457-4.73,9.309-9.773c0.34-2.012,0.518-4.202,0.527-6.516l0.004-8.353
		c3.18,0.95,5.742,1.252,7.697,1.252c3.145,0,4.73-0.769,4.838-0.824c0.432-0.217,0.699-0.661,0.693-1.144l-0.102-6.866
		C26.332,130.667,28.008,128.666,28.008,126.262z M-57.796,118.71c0,6.111-0.004,12.222-0.008,18.332
		c-0.004,6.111-0.008,12.222-0.008,18.334c0,2.743-1.008,4.776-2.695,5.44c-1.169,0.459-2.465,0.129-3.387-0.861l-0.001,0.001
		c-0.346-0.4-0.657-0.868-0.938-1.403c-0.825-1.572-1.241-3.352-1.274-5.444v-36.24c-0.001-0.323,0.039-0.47,0.03-0.494
		c0.044-0.015,0.167-0.046,0.419-0.047h7.862V118.71z M8.438,147.122c-0.01,2.172-0.176,4.225-0.492,6.102
		c-0.693,4.103-3.131,6.639-7.453,7.754c-2.131,0.549-4.338,0.829-6.557,0.835c-8.264,0.007-16.523,0.003-24.786-0.003
		c-5.184-0.003-10.366-0.006-15.549-0.006c-3.715,0-7.431,0.001-11.145,0.006c1.438-1.457,2.251-3.715,2.251-6.433
		c0-6.11,0.004-12.222,0.008-18.332c0.004-6.111,0.008-12.222,0.008-18.334v-11.285c0-0.289,0.059-0.384,0.058-0.385
		c0.006-0.004,0.104-0.064,0.402-0.064H8.012c0.271,0,0.373,0.051,0.379,0.051c0.006,0.011,0.064,0.115,0.064,0.41L8.438,147.122z"
		/>
</g>
<text transform="matrix(1 0 0 1 694.4883 228.7085)" fill="#5D5D5D" font-family="'Ubuntu-Light'" font-size="18">Stock your Friends</text>
<text transform="matrix(1 0 0 1 893.4883 228.7085)" fill="#5D5D5D" font-family="'Ubuntu-Light'" font-size="18">Organize your Day</text>
<text transform="matrix(1 0 0 1 293.4888 227.7085)" fill="#5D5D5D" font-family="'Ubuntu-Light'" font-size="18">Feel intellectual</text>
<text transform="matrix(1 0 0 1 493.2065 227.7085)" fill="#5D5D5D" font-family="'Ubuntu-Light'" font-size="18">Fake Working</text>
<text transform="matrix(1 0 0 1 94.4888 227.7085)" fill="#5D5D5D" font-family="'Ubuntu-Light'" font-size="18">Call Sick</text>
<g>
	<text transform="matrix(1 0 0 1 1083.418 117.8823)" fill="#5D5D5D" font-family="'Ubuntu-Light'" font-size="18">Browse  the Web</text>
</g>
<g>
	<text transform="matrix(1 0 0 1 -90.0176 216.4717)"><tspan x="0" y="0" fill="#5D5D5D" font-family="'Ubuntu-Light'" font-size="18">Catch Up On Some </tspan><tspan x="0" y="21.6" fill="#5D5D5D" font-family="'Ubuntu-Light'" font-size="18">News</tspan></text>
</g>
<g>
	<text transform="matrix(1 0 0 1 505.6714 426.9277)" fill="#5D5D5D" font-family="'Ubuntu-Light'" font-size="18">Really, Really Sick</text>
</g>
<g>
	<text transform="matrix(1 0 0 1 104.6714 408.0068)"><tspan x="0" y="0" fill="#5D5D5D" font-family="'Ubuntu-Light'" font-size="18">Laid Back and  </tspan><tspan x="0" y="21.6" fill="#5D5D5D" font-family="'Ubuntu-Light'" font-size="18">Watch Something</tspan></text>
</g>
<g>
	<text transform="matrix(1 0 0 1 304.3892 427.0107)" fill="#5D5D5D" font-family="'Ubuntu-Light'" font-size="18">Read a Little</text>
</g>
<g>
	<text transform="matrix(1 0 0 1 -94.3286 427.1768)" fill="#5D5D5D" font-family="'Ubuntu-Light'" font-size="18">Play Games</text>
</g>
</svg>
