<svg xmlns="http://www.w3.org/2000/svg" width="612" height="792" viewBox="0 0 612 792"><path fill="#fff" d="M269.552 360.643c8.686-.105 17.397-.174 26.115-.217l8.638-34.384 13.164 51.19c-55.633-.095-111.205 1.162-163.378 3.78-.46.027.127 21.602 0 21.602 16.41-.83 33.296-1.494 50.288-2.054l-18.476 72.796h-19.03c-20.612 0-30.634-10.2-30.634-31.184l.02-85.506c0-18.924 9.004-43.297 34.634-55.31 25.624-12.007 62.48-22.778 62.48-22.778l-18.95 83.204c8.284-.237 16.626-.438 24.99-.623l31.606-125.842s-41.063 11.104-101.14 36.734c-60.077 25.635-58.83 64.882-58.83 83.848l-.044 86.27c0 35.372 20.883 56.492 55.87 56.492h38.755s17.146-67.432 25.023-98.86c9.63-.236 19.304-.416 29.024-.574l-25.05 99.435h26.09l25.218-99.725c12.35-.1 24.722-.122 37.093-.09l25.703 99.814h26.032l-25.646-99.62c9.848.102 19.68.25 29.458.43l25.418 99.19h49.67c41.206 0 45.662-36.834 45.662-52.67v-15.09c0-16.352-3.955-28.987-11.748-37.646 7.98-10.354 9.124-24.33 9.124-33.945l.084-3.41c0-18.966 1.252-58.213-58.82-83.848-60.07-25.63-101.15-36.734-101.15-36.734l31.47 125.54c8.343.137 16.675.3 24.96.507l-18.767-82.787s36.845 10.77 62.47 22.778c23.11 10.835 32.678 31.702 34.346 49.575v8.692c0 11.964-2.085 18.073-4.53 21.236-39.743-1.922-81.308-3.084-123.237-3.47l-36.918-146.87h-4.267l-32.788 130.125zm204.535 85.352c0 25.35-10.54 27.478-20.424 27.478h-30.946l-18.787-73.388c19.547.533 38.86 1.24 57.775 2.123l1.183.358c3.062.956 11.2 7.413 11.2 28.34v15.09z"/><path fill="#C8C8C8" d="M204.38 400.56l-2.75 10.988c8.716-.296 17.48-.55 26.31-.78 1.378-5.44 1.62-6.58 2.714-10.963-8.813.212-17.562.465-26.274.756zM259.678 399.23l-2.92 11.927c8.73-.143 17.488-.243 26.264-.316l2.914-11.9c-8.776.063-17.536.158-26.258.29zM378.575 399.473l3.004 11.774c8.484.17 16.948.37 25.354.607l-3.005-11.77c-8.416-.23-16.86-.442-25.355-.61z"/><path fill="#fff" d="M303.804 583.378h-.026c-150.837-.01-255.436-24.933-256.48-25.18l-7.635-1.86L23.31 251.742l.063-.75c.554-6.192 1.853-20.697 124.02-68.83 54.362-21.416 127.36-46.428 154.162-46.428.464 0 .924.01 1.36.02h4.49c25.534-.854 100.216 24.61 155.53 46.408 122.17 48.133 123.464 62.632 124.02 68.83l.067.75-.042.756-16.337 304.175-8.03 1.617c-83.194 16.643-170.267 25.09-258.81 25.09zm-243.908-44.02c26.348 5.55 118.79 22.904 243.882 22.91h.026c84.312 0 167.236-7.772 246.638-23.106l15.286-284.59c-8.1-7.478-47.526-28.323-117.48-55.49-64.038-24.874-121.39-42.24-139.465-42.24-.285 0-.543.005-.802.016l-.39.006-5.238-.006c-.254-.01-.522-.016-.797-.016-18.074 0-75.42 17.366-139.464 42.24C92.126 226.25 52.7 247.095 44.605 254.572l15.292 284.785zM173.992 657.484l-2.434-20.973c141.163-16.373 259.723-.13 260.9.032l-2.94 20.915c-1.152-.168-117.193-16.035-255.526.027z"/></svg>