<?xml version="1.0" encoding="UTF-8" standalone="no"?>
<svg
   xmlns:dc="http://purl.org/dc/elements/1.1/"
   xmlns:cc="http://creativecommons.org/ns#"
   xmlns:rdf="http://www.w3.org/1999/02/22-rdf-syntax-ns#"
   xmlns:svg="http://www.w3.org/2000/svg"
   xmlns="http://www.w3.org/2000/svg"
   xmlns:sodipodi="http://sodipodi.sourceforge.net/DTD/sodipodi-0.dtd"
   xmlns:inkscape="http://www.inkscape.org/namespaces/inkscape"
   width="512"
   height="512"
   id="svg2849"
   version="1.1"
   inkscape:version="0.48.4 r9943 custom"
   sodipodi:docname="running-news.svg">
  <metadata
     id="metadata2881">
    <rdf:RDF>
      <cc:Work
         rdf:about="">
        <dc:format>image/svg+xml</dc:format>
        <dc:type
           rdf:resource="http://purl.org/dc/dcmitype/StillImage" />
      </cc:Work>
    </rdf:RDF>
  </metadata>
  <defs
     id="defs2879" />
  <sodipodi:namedview
     pagecolor="#ffffff"
     bordercolor="#666666"
     borderopacity="1"
     objecttolerance="10"
     gridtolerance="10"
     guidetolerance="10"
     inkscape:pageopacity="0"
     inkscape:pageshadow="2"
     inkscape:window-width="640"
     inkscape:window-height="480"
     id="namedview2877"
     showgrid="false"
     inkscape:zoom="0.921875"
     inkscape:cx="256.95381"
     inkscape:cy="231.37733"
     inkscape:window-x="0"
     inkscape:window-y="23"
     inkscape:window-maximized="0"
     inkscape:current-layer="g2851" />
  <g
     fill="#fff"
     id="g2851"
     style="fill:#000000">
    <path
       d="M262.156 269.95c-.71-.05-1.432-.008-2.15-.008-19.93 0-39.862 0-59.8.008-1.67 0-3.348-.08-5.01.04-2.255.166-3.595 1.545-3.712 3.623-.173 2.76 1.364 4.292 4.454 4.292 10.925.033 21.846.017 32.77.017h10.284c7.653 0 15.306.024 22.967-.017 2.48-.024 4.198-1.734 4.182-3.977-.024-2.155-1.646-3.78-3.986-3.978z"
       id="path2859"
       style="fill:#ffffff" />
    <path
       d="M360.21 291.763c-.86-.1-1.76-.073-2.632-.073-16.02-.008-32.044-.008-48.072-.008-5.115 0-10.21-.1-15.31.08-1.387.05-3.19.586-3.96 1.57-.764.936-1.018 3.066-.44 4.067.62 1.108 2.436 2.157 3.75 2.173 10.922.174 21.85.093 32.77.093h2.16c10.44 0 20.89.024 31.33-.008 2.497-.008 4.01-1.464 4.098-3.72.085-2.28-1.31-3.893-3.695-4.175z"
       id="path2861"
       style="fill:#ffffff" />
    <path
       d="M261.902 291.715c-22.08-.025-44.175-.025-66.25.008-.83 0-1.75.29-2.465.718-1.767 1.058-2.09 2.82-1.55 4.612.57 1.908 2.078 2.646 4.07 2.638 11.01-.032 22.008-.024 33.01-.024 10.843 0 21.692.04 32.528-.04 1.254-.008 2.953-.37 3.622-1.223.787-1 1.065-2.76.86-4.09-.31-1.872-2.01-2.59-3.825-2.598z"
       id="path2863"
       style="fill:#ffffff" />
    <path
       d="M293.53 277.91c10.92.032 21.85.007 32.78.016h14.83c6.224 0 12.44 0 18.657-.01 2.23 0 3.655-1.116 4.043-3.282.355-1.945-.456-3.506-2.268-4.285-.835-.372-1.867-.396-2.81-.396-7.73-.024-15.47-.008-23.207-.008h-40.193c-.637 0-1.275-.024-1.908.008-2.67.14-4.325 1.78-4.232 4.16.085 2.29 1.72 3.795 4.31 3.795z"
       id="path2865"
       style="fill:#ffffff" />
    <path
       d="M293.53 256.15c10.92.03 21.85.007 32.78.015h14.83c6.224 0 12.44 0 18.657-.008 2.23 0 3.655-1.118 4.043-3.284.355-1.945-.456-3.506-2.268-4.285-.835-.37-1.867-.395-2.81-.395-7.73-.032-15.47-.016-23.207-.016h-40.193c-.637 0-1.275-.024-1.908.016-2.67.14-4.325 1.77-4.232 4.16.085 2.283 1.72 3.796 4.31 3.796z"
       id="path2867"
       style="fill:#ffffff" />
    <path
       d="M262.156 248.197c-.71-.048-1.432-.016-2.15-.016-19.93 0-39.862 0-59.8.01-1.67 0-3.348-.074-5.01.047-2.255.158-3.595 1.546-3.712 3.623-.173 2.76 1.364 4.293 4.454 4.293 10.925.032 21.846.016 32.77.016h10.284c7.653 0 15.306.023 22.967-.017 2.48-.025 4.198-1.743 4.182-3.978-.024-2.158-1.646-3.788-3.986-3.978z"
       id="path2869"
       style="fill:#ffffff" />
    <path
       d="M364.586 150.774H190.15c-2.81 0-5.084 2.275-5.084 5.083v70.874c0 2.81 2.275 5.084 5.083 5.084h174.436c2.804 0 5.083-2.275 5.083-5.083v-70.873c0-2.808-2.276-5.083-5.084-5.083zm-5.08 70.878H195.233V160.94h164.275v60.712z"
       id="path2871"
       style="fill:#ffffff" />
    <path
       d="M367.394 125.26c-.835-.37-1.86-.394-2.804-.394-7.738-.024-20.635-.008-28.373-.008H190.815c-.638 0-1.275-.024-1.91.008-2.67.14-4.323 1.78-4.23 4.16.084 2.29 1.718 3.796 4.304 3.796 10.92.032 127.062.008 137.99.016h14.83c6.225 0 17.602 0 23.827-.008 2.23 0 3.647-1.118 4.042-3.284.346-1.945-.465-3.502-2.276-4.285z"
       id="path2873"
       style="fill:#ffffff" />
    <path
       d="M483.875 178.893c0-11.312-9.17-20.482-20.486-20.482-11.317 0-20.487 9.17-20.487 20.483 0 9.395 6.366 17.23 14.995 19.642l.355 24.4c-5.696 1.444-19.848 3.292-43.146-4.212l.056-115.79c-.016-7.408-4.603-12.01-11.953-12.01H149.742c-7.403 0-12.01 4.582-12.018 11.964v25.763h-31.726c-3.873.004-6.77 1.025-8.847 3.115-2.117 2.134-3.137 5.167-3.117 9.254v70.784c-31.54-8.73-47.023-1.26-47.713-.912-1.74.876-2.824 2.667-2.792 4.616l.403 27.695c-9.05 2.122-15.805 10.202-15.805 19.9 0 11.313 9.17 20.483 20.486 20.483 11.313 0 20.483-9.17 20.483-20.482 0-9.4-6.366-17.235-14.99-19.647l-.356-24.395c5.458-1.384 18.678-3.167 40.286 3.308v64.947c.15 9.95 2.267 18.89 6.3 26.57 6.464 12.34 16.71 18.59 30.468 18.59 33.905-.05 67.817-.028 101.72-.008l.465 31.684c-4.987 1.262-16.46 2.836-34.852-1.82.004-.024.012-.044.016-.068.854-4.5 1.387-8.613-4.443-11.16 0 0-8.807-3.577-13.59-5.01-4.794-1.412-6.428-3.19-8.574 2.062-2.134 5.22-18.917 47.063-8.488 68.17 4.046 8.17 11.812 4.894 14.237-2.97 2.45-7.845 7.822-22.526 13.77-24.244 5.96-1.703 13.396-5.463 8.063-14.487-.4-.678-.738-1.28-1.04-1.852 9.076 2.11 16.69 2.868 22.805 2.864 12.684 0 19.078-3.103 19.518-3.32 1.738-.876 2.824-2.668 2.79-4.616l-.515-35.243c1.247.005 2.493 0 3.744 0 13.293.013 26.594.017 39.886.02l60.934 54.108c-.14.105-.29.21-.44.335-3.465 2.925-6.455 5.76-3.554 11.377 0 0 4.53 8.274 7.318 12.37 2.805 4.09 2.954 6.474 7.888 3.787 4.918-2.695 44.046-24.395 49.238-47.185 2.01-8.82-6.02-11.167-12.83-6.628-6.8 4.514-20.122 12.442-25.79 10.037-5.656-2.42-13.732-4.19-15.278 6.113-.092.633-.197 1.214-.29 1.75l-51.868-46.062c2.497.005 5.002.01 7.507.01 12.426 0 24.867-.01 37.293-.02 9.803-.026 19.55-1.264 28.974-3.693 21.13-5.45 34.118-19.082 37.555-39.426 1.37-8.116 2.09-16.95 2.125-26.287l.016-33.698c12.83 3.833 23.166 5.05 31.053 5.05 12.687 0 19.082-3.1 19.517-3.323 1.743-.876 2.82-2.667 2.796-4.615l-.41-27.7c9.047-2.113 15.81-10.186 15.81-19.884zM137.72 148.426c0 24.653-.016 49.307-.033 73.956-.016 24.653-.032 49.307-.032 73.964 0 11.066-4.066 19.268-10.872 21.946-4.716 1.852-9.945.52-13.664-3.473l-.005.003c-1.396-1.614-2.65-3.502-3.784-5.66-3.328-6.342-5.006-13.523-5.14-21.963V141c-.003-1.304.158-1.897.122-1.994.178-.06.674-.186 1.69-.19h31.718v9.61zm267.204 114.62c-.04 8.764-.71 17.046-1.984 24.618-2.796 16.553-12.632 26.784-30.068 31.282-8.597 2.215-17.5 3.344-26.452 3.368-33.34.03-66.658.013-99.993-.012-20.914-.012-41.82-.024-62.73-.024-14.986 0-29.977.004-44.96.024 5.8-5.878 9.08-14.987 9.08-25.952 0-24.65.017-49.307.033-73.956.016-24.653.032-49.307.032-73.964v-45.527c0-1.165.238-1.55.234-1.553.024-.016.42-.258 1.622-.258h253.468c1.093 0 1.505.206 1.53.206.023.044.257.464.257 1.654l-.07 160.095z"
       id="path2875"
       style="fill:#ffffff" />
  </g>
</svg>
