<?xml version="1.0" encoding="utf-8"?>
<!-- Generator: Adobe Illustrator 16.0.0, SVG Export Plug-In . SVG Version: 6.00 Build 0)  -->
<!DOCTYPE svg PUBLIC "-//W3C//DTD SVG 1.1//EN" "http://www.w3.org/Graphics/SVG/1.1/DTD/svg11.dtd">
<svg version="1.1" xmlns="http://www.w3.org/2000/svg" xmlns:xlink="http://www.w3.org/1999/xlink" x="0px" y="0px" width="184px"
	 height="160.667px" viewBox="0 0 184 160.667" enable-background="new 0 0 184 160.667" xml:space="preserve">
<g id="Layer_6" display="none">
	<rect x="-220.333" y="-287" display="inline" fill="#0D0D0D" width="612" height="792"/>
</g>
<g id="Layer_4" display="none">
	
		<rect x="-5.333" y="17.167" display="inline" fill="none" stroke="#FFFFFF" stroke-width="1.7208" stroke-linecap="round" stroke-linejoin="round" stroke-miterlimit="10" width="183" height="183"/>
</g>
<g id="Layer_3_copy" display="none">
	<g display="inline">
		<path d="M88.512,87.903c-0.176-0.012-0.355-0.002-0.533-0.002c-4.939,0-9.881,0-14.822,0.002c-0.414,0-0.83-0.02-1.242,0.01
			c-0.559,0.041-0.891,0.383-0.92,0.898c-0.043,0.684,0.338,1.064,1.104,1.064c2.708,0.008,5.415,0.004,8.123,0.004
			c0.851,0,1.698,0,2.549,0c1.897,0,3.794,0.006,5.692-0.004c0.615-0.006,1.041-0.43,1.037-0.986
			C89.496,88.354,89.093,87.952,88.512,87.903z"/>
		<path d="M112.817,93.309c-0.213-0.025-0.435-0.018-0.652-0.018c-3.97-0.002-7.943-0.002-11.916-0.002
			c-1.268,0-2.531-0.025-3.795,0.02c-0.344,0.012-0.79,0.145-0.982,0.389c-0.188,0.232-0.251,0.76-0.109,1.008
			c0.155,0.275,0.604,0.535,0.93,0.539c2.707,0.043,5.416,0.023,8.123,0.023c0.18,0,0.357,0,0.535,0
			c2.588,0,5.178,0.006,7.767-0.002c0.618-0.002,0.993-0.363,1.015-0.922C113.755,93.78,113.41,93.379,112.817,93.309z"/>
		<path d="M88.451,93.297c-5.474-0.006-10.95-0.006-16.423,0.002c-0.206,0-0.434,0.072-0.611,0.178
			c-0.438,0.262-0.518,0.699-0.384,1.143c0.141,0.473,0.515,0.656,1.009,0.654c2.729-0.008,5.455-0.006,8.182-0.006
			c2.688,0,5.377,0.01,8.063-0.01c0.31-0.002,0.731-0.092,0.897-0.303c0.195-0.248,0.264-0.684,0.213-1.014
			C89.322,93.477,88.899,93.299,88.451,93.297z"/>
		<path d="M96.29,89.875c2.707,0.008,5.416,0.002,8.125,0.004c1.225,0,2.451,0,3.676,0c1.543,0,3.084,0,4.626-0.002
			c0.553,0,0.905-0.277,1.002-0.814c0.087-0.482-0.114-0.869-0.563-1.062c-0.207-0.092-0.463-0.098-0.697-0.098
			c-1.916-0.006-3.834-0.002-5.752-0.002c-3.32,0-6.641,0-9.962,0c-0.158,0-0.317-0.006-0.474,0.002
			c-0.662,0.035-1.072,0.441-1.049,1.031C95.243,89.502,95.647,89.875,96.29,89.875z"/>
		<path d="M96.29,84.481c2.707,0.008,5.416,0.002,8.125,0.004c1.225,0,2.451,0,3.676,0c1.543,0,3.084,0,4.626-0.002
			c0.553,0,0.905-0.277,1.002-0.814c0.087-0.482-0.114-0.869-0.563-1.062c-0.207-0.092-0.463-0.098-0.697-0.098
			c-1.916-0.008-3.834-0.004-5.752-0.004c-3.32,0-6.641,0-9.962,0c-0.158,0-0.317-0.006-0.474,0.004
			c-0.662,0.035-1.072,0.439-1.049,1.031C95.243,84.106,95.647,84.481,96.29,84.481z"/>
		<path d="M88.512,82.51c-0.176-0.012-0.355-0.004-0.533-0.004c-4.939,0-9.881,0-14.822,0.002c-0.414,0-0.83-0.018-1.242,0.012
			c-0.559,0.039-0.891,0.383-0.92,0.898c-0.043,0.684,0.338,1.064,1.104,1.064c2.708,0.008,5.415,0.004,8.123,0.004
			c0.851,0,1.698,0,2.549,0c1.897,0,3.794,0.006,5.692-0.004c0.615-0.006,1.041-0.432,1.037-0.986
			C89.496,82.961,89.093,82.557,88.512,82.51z"/>
		<path d="M113.903,58.362H70.665c-0.695,0-1.26,0.563-1.26,1.26V77.19c0,0.695,0.564,1.26,1.26,1.26h43.238
			c0.696,0,1.26-0.564,1.26-1.26V59.622C115.163,58.925,114.599,58.362,113.903,58.362z M112.643,75.93H71.924V60.881h40.719V75.93z
			"/>
		<path d="M114.598,52.037c-0.206-0.092-0.461-0.098-0.695-0.098c-1.918-0.006-5.115-0.002-7.032-0.002c-3.321,0-32.72,0-36.042,0
			c-0.158,0-0.316-0.006-0.473,0.002c-0.662,0.035-1.072,0.441-1.049,1.031c0.021,0.568,0.426,0.941,1.067,0.941
			c2.707,0.008,31.496,0.002,34.205,0.004c1.224,0,2.45,0,3.675,0c1.543,0,4.364,0,5.906-0.002c0.553,0,0.904-0.277,1.002-0.814
			C115.25,52.617,115.047,52.23,114.598,52.037z"/>
		<path d="M134.109,74.682c-1.248-2.511-4.295-3.534-6.806-2.287c-0.316,0.157-0.609,0.344-0.877,0.554l0.013-26.446
			c-0.005-1.836-1.141-2.977-2.964-2.977H60.647c-1.835,0-2.977,1.136-2.979,2.966l-0.001,6.386h-7.863
			c-0.961,0.001-1.678,0.254-2.193,0.772c-0.525,0.529-0.778,1.281-0.773,2.294v17.659c-5.681,1.113-7.854,3.411-7.949,3.515
			c-0.326,0.355-0.422,0.865-0.244,1.314l2.515,6.389c-1.914,1.284-2.775,3.748-1.926,5.998c0.988,2.623,3.917,3.948,6.541,2.96
			c0.414-0.156,0.782-0.374,1.126-0.618c0.145,2.081,0.632,3.979,1.499,5.63c1.603,3.059,4.142,4.609,7.552,4.609
			c7.998-0.011,15.995-0.006,23.992-0.002l2.229,4.736c-0.987,0.789-3.412,2.318-8.057,3.148c-0.001-0.006-0.002-0.012-0.003-0.018
			c-0.268-1.104-0.567-2.086-2.144-2.066c0,0-2.354,0.092-3.582,0.258c-1.227,0.172-1.777-0.062-1.725,1.342
			c0.052,1.396,0.538,12.561,5.052,16.262c1.748,1.432,3.168-0.1,2.911-2.127c-0.249-2.021-0.534-5.883,0.631-6.881
			c1.173-0.992,2.469-2.602,0.342-4.096c-0.157-0.11-0.293-0.211-0.419-0.308c6.968-1.385,9.391-4.292,9.504-4.433
			c0.303-0.375,0.365-0.891,0.16-1.328l-2.113-4.491c0.628,0,1.257,0,1.885,0c2.21,0.001,4.419,0.001,6.629,0.003l5.63,2.312
			c-0.197,1.258-0.957,4.026-3.812,7.764c-0.005-0.004-0.009-0.007-0.014-0.011c-0.942-0.633-1.827-1.154-2.976-0.076
			c0,0-1.674,1.656-2.469,2.609c-0.787,0.955-1.354,1.154-0.365,2.154c0.982,0.996,8.88,8.9,14.708,8.58
			c2.256-0.123,2.27-2.213,0.711-3.533c-1.551-1.324-4.367-3.979-4.182-5.5c0.193-1.525,0.062-3.588-2.515-3.254
			c-0.19,0.025-0.358,0.043-0.517,0.057c4.204-5.726,4.026-9.507,4.016-9.687c-0.03-0.481-0.333-0.903-0.779-1.086l-0.797-0.327
			c0.76,0,1.519,0.001,2.278,0.001c3.081,0,6.164-0.001,9.245-0.004c2.43-0.006,4.846-0.314,7.181-0.915
			c5.239-1.351,8.458-4.731,9.309-9.774c0.341-2.011,0.518-4.201,0.527-6.516l0.002-5.283c1.494,1.179,3.584,1.479,5.4,0.576
			C134.333,80.242,135.357,77.194,134.109,74.682z M43.539,83.991l-2.216-5.629c0.82-0.573,2.556-1.539,5.514-2.182v8.658
			C45.881,84.188,44.719,83.887,43.539,83.991z M57.667,57.78c0,6.11-0.005,12.221-0.009,18.332s-0.008,12.222-0.008,18.334
			c0,2.742-1.008,4.775-2.695,5.439c-1.168,0.46-2.465,0.129-3.387-0.861l-0.001,0.002c-0.346-0.4-0.657-0.868-0.938-1.404
			c-0.824-1.571-1.24-3.352-1.273-5.443v-36.24c-0.002-0.323,0.039-0.471,0.029-0.494c0.045-0.016,0.168-0.047,0.42-0.047h7.862
			V57.78z M123.901,86.19c-0.01,2.172-0.175,4.225-0.492,6.103c-0.692,4.103-3.13,6.638-7.453,7.753
			c-2.131,0.549-4.338,0.83-6.556,0.836c-8.265,0.008-16.524,0.002-24.786-0.003c-5.184-0.003-10.366-0.007-15.55-0.007
			c-3.715,0-7.431,0.002-11.145,0.006c1.438-1.457,2.251-3.715,2.251-6.432c0-6.111,0.004-12.223,0.008-18.332
			c0.005-6.111,0.009-12.223,0.009-18.334V46.494c0.001-0.289,0.06-0.384,0.058-0.385c0.006-0.004,0.104-0.064,0.402-0.064h62.828
			c0.272,0,0.373,0.051,0.379,0.051c0.007,0.011,0.064,0.115,0.065,0.41L123.901,86.19z"/>
	</g>
</g>
<g id="Layer_1" display="none">
	<g display="inline">
		<g>
			<path d="M88.516,87.896c-0.176-0.012-0.355-0.002-0.533-0.002c-4.938,0-9.879,0-14.821,0.002c-0.414,0-0.83-0.02-1.242,0.01
				c-0.559,0.041-0.891,0.383-0.92,0.898c-0.043,0.684,0.338,1.064,1.104,1.064c2.708,0.008,5.415,0.004,8.123,0.004
				c0.851,0,1.698,0,2.549,0c1.897,0,3.794,0.006,5.691-0.004c0.615-0.006,1.041-0.43,1.037-0.986
				C89.5,88.348,89.098,87.945,88.516,87.896z"/>
		</g>
		<g>
			<path d="M112.821,93.303c-0.213-0.025-0.434-0.018-0.652-0.018c-3.969-0.002-7.943-0.002-11.916-0.002
				c-1.268,0-2.531-0.025-3.795,0.02c-0.344,0.012-0.789,0.145-0.982,0.389c-0.188,0.232-0.25,0.76-0.109,1.008
				c0.156,0.275,0.605,0.535,0.93,0.539c2.707,0.043,5.416,0.023,8.123,0.023c0.18,0,0.357,0,0.535,0
				c2.588,0,5.178,0.006,7.768-0.002c0.617-0.002,0.992-0.363,1.014-0.922C113.76,93.773,113.415,93.373,112.821,93.303z"/>
		</g>
		<g>
			<path d="M88.456,93.291c-5.473-0.006-10.95-0.006-16.422,0.002c-0.206,0-0.434,0.072-0.611,0.178
				c-0.438,0.262-0.518,0.699-0.384,1.143c0.141,0.473,0.515,0.656,1.009,0.654c2.729-0.008,5.455-0.006,8.182-0.006
				c2.688,0,5.377,0.01,8.063-0.01c0.309-0.002,0.73-0.092,0.896-0.303c0.195-0.248,0.264-0.684,0.213-1.014
				C89.327,93.471,88.903,93.293,88.456,93.291z"/>
		</g>
		<g>
			<path d="M96.293,89.869c2.707,0.008,5.416,0.002,8.125,0.004c1.225,0,2.451,0,3.676,0c1.543,0,3.084,0,4.627-0.002
				c0.553,0,0.904-0.277,1.002-0.814c0.086-0.482-0.115-0.869-0.564-1.062c-0.207-0.092-0.463-0.098-0.697-0.098
				c-1.916-0.006-3.834-0.002-5.752-0.002c-3.32,0-6.641,0-9.961,0c-0.158,0-0.318-0.006-0.475,0.002
				c-0.662,0.035-1.072,0.441-1.049,1.031C95.247,89.496,95.651,89.869,96.293,89.869z"/>
		</g>
		<g>
			<path d="M96.293,84.475c2.707,0.008,5.416,0.002,8.125,0.004c1.225,0,2.451,0,3.676,0c1.543,0,3.084,0,4.627-0.002
				c0.553,0,0.904-0.277,1.002-0.814c0.086-0.482-0.115-0.869-0.564-1.062c-0.207-0.092-0.463-0.098-0.697-0.098
				c-1.916-0.008-3.834-0.004-5.752-0.004c-3.32,0-6.641,0-9.961,0c-0.158,0-0.318-0.006-0.475,0.004
				c-0.662,0.035-1.072,0.439-1.049,1.031C95.247,84.1,95.651,84.475,96.293,84.475z"/>
		</g>
		<g>
			<path d="M88.516,82.504c-0.176-0.012-0.355-0.004-0.533-0.004c-4.938,0-9.879,0-14.821,0.002c-0.414,0-0.83-0.018-1.242,0.012
				c-0.559,0.039-0.891,0.383-0.92,0.898c-0.043,0.684,0.338,1.064,1.104,1.064c2.708,0.008,5.415,0.004,8.123,0.004
				c0.851,0,1.698,0,2.549,0c1.897,0,3.794,0.006,5.691-0.004c0.615-0.006,1.041-0.432,1.037-0.986
				C89.5,82.955,89.098,82.551,88.516,82.504z"/>
		</g>
	</g>
	<g display="inline">
		<path d="M94.317,114.422c0,0-1.861,1.443-2.766,2.291c-0.896,0.854-1.482,0.98-0.621,2.094c0.852,1.107,7.736,9.91,13.562,10.295
			c2.254,0.148,2.52-1.924,1.133-3.422c-1.377-1.5-3.857-4.479-3.488-5.967c0.377-1.49,0.496-3.553-2.104-3.529
			c-2.594,0.02-1.916-0.586-2.773-1.328S95.586,113.488,94.317,114.422z"/>
	</g>
	<g display="inline">
		<path d="M100.163,103.398c-5.182,0-10.363-0.003-15.545-0.006c-9.554-0.006-19.108-0.012-28.662,0.002
			c-3.409,0-5.95-1.551-7.552-4.609c-0.999-1.902-1.525-4.119-1.562-6.584c0-0.007,0-0.014,0-0.02V55.938
			c-0.005-1.014,0.248-1.766,0.773-2.294c0.516-0.519,1.233-0.771,2.193-0.772h7.864v-6.386c0.003-1.83,1.145-2.966,2.979-2.966
			h62.827c1.822,0,2.959,1.141,2.965,2.977l-0.02,39.693c-0.008,2.313-0.186,4.504-0.527,6.518c-0.85,5.042-4.068,8.422-9.309,9.773
			c-2.334,0.601-4.75,0.908-7.18,0.914C106.327,103.398,103.245,103.398,100.163,103.398z M69.069,100.865
			c5.184,0,10.365,0.004,15.55,0.008c8.262,0.004,16.526,0.01,24.786,0.002c2.217-0.006,4.424-0.287,6.555-0.836
			c4.324-1.114,6.762-3.65,7.453-7.752c0.318-1.879,0.484-3.932,0.492-6.103l0.02-39.685c0-0.295-0.059-0.399-0.064-0.41l0,0
			c-0.006,0-0.107-0.051-0.381-0.051H60.652c-0.299,0-0.396,0.061-0.402,0.064c0.001,0-0.058,0.096-0.058,0.385v11.285
			c0,6.111-0.004,12.223-0.008,18.334c-0.004,6.11-0.009,12.221-0.009,18.332c0,2.718-0.813,4.976-2.251,6.433
			C61.639,100.867,65.354,100.865,69.069,100.865z M51.575,99.019c0.921,0.989,2.217,1.319,3.387,0.861
			c1.687-0.664,2.694-2.698,2.694-5.44c0-6.111,0.004-12.223,0.009-18.334c0.004-6.11,0.008-12.221,0.008-18.332v-2.383h-7.862
			c-0.253,0-0.375,0.031-0.419,0.047c0.008,0.023-0.031,0.172-0.03,0.494v36.24c0.032,2.092,0.449,3.873,1.274,5.443
			c0.28,0.537,0.592,1.004,0.938,1.404L51.575,99.019z M113.907,78.443H70.67c-0.696,0-1.26-0.564-1.26-1.26V59.615
			c0-0.695,0.563-1.26,1.26-1.26h43.237c0.697,0,1.26,0.564,1.26,1.26v17.568C115.167,77.879,114.604,78.443,113.907,78.443z
			 M71.93,75.924h40.717V60.875H71.93V75.924z"/>
	</g>
	<g display="inline">
		<path d="M70.38,53.906c2.707,0.008,31.496,0.002,34.205,0.004c1.223,0,2.449,0,3.674,0c1.543,0,4.365,0,5.906-0.002
			c0.553,0,0.904-0.277,1.002-0.814c0.088-0.482-0.115-0.869-0.564-1.062c-0.205-0.092-0.461-0.098-0.695-0.098
			c-1.918-0.006-5.115-0.002-7.031-0.002c-3.322,0-32.719,0-36.042,0c-0.158,0-0.316-0.006-0.473,0.002
			c-0.662,0.035-1.072,0.441-1.049,1.031C69.334,53.533,69.738,53.906,70.38,53.906z"/>
	</g>
	<g display="inline">
		<path d="M60.626,109.735c0,0-2.298,0.431-3.479,0.773c-1.18,0.348-1.755,0.197-1.499,1.566c0.256,1.367,2.361,12.256,7.33,15.232
			c1.923,1.152,3.095-0.562,2.549-2.516c-0.541-1.949-1.384-5.697-0.383-6.846c1.005-1.148,2.044-2.916-0.264-4.07
			c-2.3-1.156-1.429-1.387-1.848-2.428C62.611,110.404,62.173,109.483,60.626,109.735z"/>
	</g>
	<g display="inline">
		<rect x="69.214" y="96.031" transform="matrix(0.5045 0.8634 -0.8634 0.5045 128.7767 -6.9841)" width="2.52" height="25.361"/>
	</g>
	<g display="inline">
		<path d="M97.118,118.494l-1.668-1.891c4.738-4.18,6.143-7.552,6.549-8.982l-7.969-4.465l1.232-2.197l8.77,4.912
			c0.42,0.236,0.67,0.691,0.641,1.173C104.661,107.25,104.295,112.16,97.118,118.494z"/>
	</g>
	<g display="inline">
		<path d="M126.897,77.727c-0.279,0-0.562-0.004-0.854-0.01l0.055-2.52c6.35,0.133,9.648-1.39,10.906-2.16l-2.83-8.688l2.396-0.781
			l3.113,9.559c0.148,0.458,0.023,0.962-0.324,1.297C139.215,74.562,135.829,77.727,126.897,77.727z"/>
	</g>
	<g display="inline">
		<circle fill-rule="evenodd" clip-rule="evenodd" cx="134.989" cy="62.229" r="5.077"/>
	</g>
	<g display="inline">
		<path d="M34.394,79.227l-2.322-0.977l3.891-9.266c0.188-0.444,0.611-0.743,1.093-0.77c0.204-0.011,5.126-0.205,12.231,6.211
			l-1.689,1.871c-4.689-4.234-8.199-5.248-9.666-5.49L34.394,79.227z"/>
	</g>
	<g display="inline">
		<circle fill-rule="evenodd" clip-rule="evenodd" cx="32.39" cy="80.3" r="5.078"/>
	</g>
</g>
<g id="Layer_3">
	<g>
		<path fill="none" d="M49.389,55.441c0.009,0.024-0.031,0.171-0.03,0.494v36.24c0.033,2.092,0.449,3.873,1.274,5.444
			c0.281,0.536,0.592,1.003,0.938,1.404l0.001-0.001c0.921,0.99,2.219,1.321,3.387,0.861c1.687-0.664,2.695-2.698,2.695-5.44
			c0-6.112,0.004-12.223,0.008-18.334c0.004-6.11,0.008-12.221,0.008-18.332v-2.383h-7.862
			C49.556,55.395,49.433,55.426,49.389,55.441z"/>
		<path fill="none" d="M43.542,83.989c1.18-0.104,2.342,0.197,3.297,0.847v-8.658c-2.958,0.643-4.694,1.609-5.513,2.183
			L43.542,83.989z"/>
		<rect x="71.927" y="60.879" fill="none" width="40.719" height="15.049"/>
		<path fill="none" d="M123.478,46.043H60.65c-0.299,0-0.396,0.061-0.402,0.064c0.001,0-0.057,0.096-0.058,0.385v11.285
			c0,6.112-0.004,12.223-0.008,18.334c-0.004,6.11-0.008,12.221-0.008,18.332c0,2.718-0.813,4.976-2.251,6.433
			c3.714-0.005,7.43-0.006,11.145-0.006c5.184,0,10.366,0.003,15.549,0.007c8.262,0.004,16.523,0.01,24.787,0.002
			c2.218-0.006,4.425-0.287,6.556-0.835c4.323-1.115,6.761-3.651,7.453-7.753c0.317-1.877,0.482-3.93,0.492-6.103l0.019-39.685
			c-0.001-0.295-0.059-0.399-0.065-0.41C123.851,46.094,123.75,46.043,123.478,46.043z M89.187,94.953
			c-0.166,0.211-0.588,0.301-0.897,0.303c-2.687,0.02-5.376,0.01-8.063,0.01c-2.727,0-5.453-0.002-8.182,0.006
			c-0.494,0.002-0.868-0.182-1.009-0.654c-0.134-0.443-0.055-0.881,0.384-1.143c0.178-0.105,0.405-0.178,0.611-0.178
			c5.473-0.008,10.949-0.008,16.423-0.002c0.448,0.002,0.871,0.18,0.946,0.645C89.451,94.27,89.382,94.705,89.187,94.953z
			 M88.466,89.873c-1.898,0.01-3.795,0.004-5.692,0.004c-0.851,0-1.698,0-2.549,0c-2.708,0-5.415,0.004-8.123-0.004
			c-0.767,0-1.147-0.381-1.104-1.064c0.029-0.516,0.361-0.857,0.92-0.898c0.412-0.029,0.828-0.01,1.242-0.01
			c4.941-0.002,9.883-0.002,14.822-0.002c0.178,0,0.357-0.01,0.533,0.002c0.581,0.049,0.983,0.451,0.988,0.986
			C89.507,89.443,89.082,89.867,88.466,89.873z M88.466,84.48c-1.898,0.01-3.795,0.004-5.692,0.004c-0.851,0-1.698,0-2.549,0
			c-2.708,0-5.415,0.004-8.123-0.004c-0.767,0-1.147-0.381-1.104-1.064c0.029-0.516,0.361-0.859,0.92-0.898
			c0.412-0.029,0.828-0.012,1.242-0.012c4.941-0.002,9.883-0.002,14.822-0.002c0.178,0,0.357-0.008,0.533,0.004
			c0.581,0.047,0.983,0.451,0.988,0.986C89.507,84.049,89.082,84.475,88.466,84.48z M96.273,87.9
			c0.156-0.008,0.315-0.002,0.474-0.002c3.321,0,6.642,0,9.962,0c1.918,0,3.836-0.004,5.752,0.002c0.234,0,0.49,0.006,0.697,0.098
			c0.449,0.193,0.65,0.58,0.563,1.062c-0.097,0.537-0.449,0.814-1.002,0.814c-1.542,0.002-3.083,0.002-4.626,0.002
			c-1.225,0-2.451,0-3.676,0c-2.709-0.002-5.418,0.004-8.125-0.004c-0.643,0-1.047-0.373-1.068-0.941
			C95.201,88.342,95.611,87.936,96.273,87.9z M95.224,83.537c-0.023-0.592,0.387-0.996,1.049-1.031
			c0.156-0.01,0.315-0.004,0.474-0.004c3.321,0,6.642,0,9.962,0c1.918,0,3.836-0.004,5.752,0.004c0.234,0,0.49,0.006,0.697,0.098
			c0.449,0.193,0.65,0.58,0.563,1.062c-0.097,0.537-0.449,0.814-1.002,0.814c-1.542,0.002-3.083,0.002-4.626,0.002
			c-1.225,0-2.451,0-3.676,0c-2.709-0.002-5.418,0.004-8.125-0.004C95.65,84.479,95.246,84.104,95.224,83.537z M112.719,95.264
			c-2.589,0.008-5.179,0.002-7.767,0.002c-0.178,0-0.355,0-0.535,0c-2.707,0-5.416,0.02-8.123-0.023
			c-0.325-0.004-0.774-0.264-0.93-0.539c-0.142-0.248-0.079-0.775,0.109-1.008c0.192-0.244,0.639-0.377,0.982-0.389
			c1.264-0.045,2.527-0.02,3.795-0.02c3.973,0,7.946,0,11.916,0.002c0.218,0,0.439-0.008,0.652,0.018
			c0.593,0.07,0.938,0.471,0.914,1.035C113.712,94.9,113.337,95.262,112.719,95.264z M115.166,77.188c0,0.696-0.563,1.26-1.26,1.26
			H70.667c-0.696,0-1.26-0.564-1.26-1.26V59.619c0-0.696,0.564-1.26,1.26-1.26h43.238c0.696,0,1.26,0.564,1.26,1.26V77.188z
			 M115.166,53.098c-0.098,0.537-0.449,0.814-1.002,0.814c-1.542,0.002-4.363,0.002-5.906,0.002c-1.225,0-2.451,0-3.675,0
			c-2.709-0.002-31.498,0.004-34.205-0.004c-0.642,0-1.046-0.373-1.067-0.941c-0.023-0.59,0.387-0.996,1.049-1.031
			c0.156-0.008,0.314-0.002,0.473-0.002c3.322,0,32.721,0,36.042,0c1.917,0,5.114-0.004,7.032,0.002
			c0.234,0,0.489,0.006,0.695,0.098C115.05,52.229,115.252,52.615,115.166,53.098z"/>
		<path d="M88.515,87.9c-0.176-0.012-0.355-0.002-0.533-0.002c-4.939,0-9.881,0-14.822,0.002c-0.414,0-0.83-0.02-1.242,0.01
			c-0.559,0.041-0.891,0.383-0.92,0.898c-0.043,0.684,0.338,1.064,1.104,1.064c2.708,0.008,5.415,0.004,8.123,0.004
			c0.851,0,1.698,0,2.549,0c1.897,0,3.794,0.006,5.692-0.004c0.615-0.006,1.041-0.43,1.037-0.986
			C89.499,88.352,89.096,87.949,88.515,87.9z"/>
		<path d="M112.82,93.307c-0.213-0.025-0.435-0.018-0.652-0.018c-3.97-0.002-7.943-0.002-11.916-0.002
			c-1.268,0-2.531-0.025-3.795,0.02c-0.344,0.012-0.79,0.145-0.982,0.389c-0.188,0.232-0.251,0.76-0.109,1.008
			c0.155,0.275,0.604,0.535,0.93,0.539c2.707,0.043,5.416,0.023,8.123,0.023c0.18,0,0.357,0,0.535,0
			c2.588,0,5.178,0.006,7.767-0.002c0.618-0.002,0.993-0.363,1.015-0.922C113.758,93.777,113.413,93.377,112.82,93.307z"/>
		<path d="M88.454,93.295c-5.474-0.006-10.95-0.006-16.423,0.002c-0.206,0-0.434,0.072-0.611,0.178
			c-0.438,0.262-0.518,0.699-0.384,1.143c0.141,0.473,0.515,0.656,1.009,0.654c2.729-0.008,5.455-0.006,8.182-0.006
			c2.688,0,5.377,0.01,8.063-0.01c0.31-0.002,0.731-0.092,0.897-0.303c0.195-0.248,0.264-0.684,0.213-1.014
			C89.325,93.475,88.902,93.297,88.454,93.295z"/>
		<path d="M96.292,89.873c2.707,0.008,5.416,0.002,8.125,0.004c1.225,0,2.451,0,3.676,0c1.543,0,3.084,0,4.626-0.002
			c0.553,0,0.905-0.277,1.002-0.814c0.087-0.482-0.114-0.869-0.563-1.062c-0.207-0.092-0.463-0.098-0.697-0.098
			c-1.916-0.006-3.834-0.002-5.752-0.002c-3.32,0-6.641,0-9.962,0c-0.158,0-0.317-0.006-0.474,0.002
			c-0.662,0.035-1.072,0.441-1.049,1.031C95.246,89.5,95.65,89.873,96.292,89.873z"/>
		<path d="M96.292,84.479c2.707,0.008,5.416,0.002,8.125,0.004c1.225,0,2.451,0,3.676,0c1.543,0,3.084,0,4.626-0.002
			c0.553,0,0.905-0.277,1.002-0.814c0.087-0.482-0.114-0.869-0.563-1.062c-0.207-0.092-0.463-0.098-0.697-0.098
			c-1.916-0.008-3.834-0.004-5.752-0.004c-3.32,0-6.641,0-9.962,0c-0.158,0-0.317-0.006-0.474,0.004
			c-0.662,0.035-1.072,0.439-1.049,1.031C95.246,84.104,95.65,84.479,96.292,84.479z"/>
		<path d="M88.515,82.508c-0.176-0.012-0.355-0.004-0.533-0.004c-4.939,0-9.881,0-14.822,0.002c-0.414,0-0.83-0.018-1.242,0.012
			c-0.559,0.039-0.891,0.383-0.92,0.898c-0.043,0.684,0.338,1.064,1.104,1.064c2.708,0.008,5.415,0.004,8.123,0.004
			c0.851,0,1.698,0,2.549,0c1.897,0,3.794,0.006,5.692-0.004c0.615-0.006,1.041-0.432,1.037-0.986
			C89.499,82.959,89.096,82.555,88.515,82.508z"/>
		<path d="M113.906,58.359H70.667c-0.696,0-1.26,0.564-1.26,1.26v17.568c0,0.696,0.564,1.26,1.26,1.26h43.238
			c0.696,0,1.26-0.564,1.26-1.26V59.619C115.166,58.923,114.602,58.359,113.906,58.359z M112.646,75.928H71.927V60.879h40.719
			V75.928z"/>
		<path d="M114.601,52.035c-0.206-0.092-0.461-0.098-0.695-0.098c-1.918-0.006-5.115-0.002-7.032-0.002c-3.321,0-32.72,0-36.042,0
			c-0.158,0-0.316-0.006-0.473,0.002c-0.662,0.035-1.072,0.441-1.049,1.031c0.021,0.568,0.426,0.941,1.067,0.941
			c2.707,0.008,31.496,0.002,34.205,0.004c1.224,0,2.45,0,3.675,0c1.543,0,4.364,0,5.906-0.002c0.553,0,0.904-0.277,1.002-0.814
			C115.252,52.615,115.05,52.229,114.601,52.035z"/>
		<path d="M134.112,74.68c-1.248-2.511-4.295-3.534-6.806-2.287c-0.316,0.157-0.609,0.344-0.877,0.554l0.013-26.446
			c-0.005-1.836-1.141-2.977-2.964-2.977H60.65c-1.835,0-2.977,1.136-2.979,2.966l0,6.386h-7.864
			c-0.96,0.001-1.678,0.254-2.193,0.772c-0.525,0.529-0.778,1.281-0.773,2.294v17.659c-5.681,1.113-7.854,3.411-7.949,3.515
			c-0.326,0.355-0.421,0.865-0.245,1.314l2.515,6.389c-1.914,1.284-2.774,3.748-1.926,5.998c0.988,2.623,3.917,3.949,6.541,2.96
			c0.414-0.156,0.781-0.374,1.126-0.617c0.144,2.08,0.632,3.979,1.499,5.63c1.602,3.059,4.142,4.609,7.552,4.609
			c7.998-0.012,15.995-0.006,23.992-0.002l2.229,4.736c-0.987,0.79-3.412,2.319-8.057,3.149c-0.001-0.007-0.002-0.012-0.003-0.019
			c-0.268-1.104-0.567-2.086-2.144-2.065c0,0-2.354,0.092-3.582,0.258c-1.227,0.171-1.777-0.064-1.725,1.341
			c0.052,1.397,0.538,12.561,5.052,16.262c1.748,1.432,3.168-0.1,2.911-2.127c-0.249-2.021-0.534-5.883,0.631-6.881
			c1.173-0.992,2.469-2.602,0.342-4.096c-0.157-0.11-0.293-0.211-0.419-0.308c6.968-1.385,9.391-4.292,9.504-4.433
			c0.303-0.375,0.365-0.891,0.159-1.328l-2.113-4.491c0.628,0,1.256,0,1.885,0c2.209,0.001,4.419,0.001,6.628,0.003l5.631,2.312
			c-0.197,1.259-0.957,4.026-3.812,7.765c-0.005-0.004-0.009-0.007-0.014-0.011c-0.942-0.633-1.827-1.154-2.977-0.076
			c0,0-1.674,1.656-2.467,2.609c-0.789,0.955-1.354,1.154-0.367,2.154c0.983,0.996,8.881,8.9,14.709,8.58
			c2.256-0.123,2.27-2.213,0.711-3.533c-1.551-1.324-4.367-3.979-4.182-5.5c0.193-1.525,0.062-3.588-2.515-3.254
			c-0.19,0.024-0.358,0.043-0.516,0.057c4.203-5.727,4.025-9.507,4.015-9.687c-0.03-0.481-0.333-0.903-0.779-1.086l-0.796-0.327
			c0.759,0,1.519,0.001,2.277,0.001c3.081,0,6.164-0.001,9.245-0.004c2.43-0.006,4.846-0.313,7.181-0.915
			c5.239-1.351,8.458-4.731,9.309-9.774c0.341-2.011,0.518-4.202,0.527-6.516l0.003-5.283c1.493,1.179,3.582,1.479,5.399,0.576
			C134.336,80.24,135.36,77.192,134.112,74.68z M46.839,84.835c-0.956-0.649-2.118-0.951-3.297-0.847l-2.216-5.629
			c0.819-0.573,2.555-1.54,5.513-2.183V84.835z M57.67,57.777c0,6.111-0.004,12.222-0.008,18.332
			c-0.004,6.111-0.008,12.222-0.008,18.334c0,2.743-1.008,4.776-2.695,5.44c-1.168,0.459-2.466,0.128-3.387-0.861l-0.001,0.001
			c-0.346-0.4-0.657-0.868-0.938-1.404c-0.825-1.571-1.241-3.352-1.274-5.444v-36.24c-0.001-0.323,0.039-0.47,0.03-0.494
			c0.044-0.015,0.167-0.046,0.419-0.047h7.862V57.777z M123.904,86.188c-0.01,2.172-0.175,4.225-0.492,6.103
			c-0.692,4.102-3.13,6.638-7.453,7.753c-2.131,0.549-4.338,0.83-6.556,0.835c-8.264,0.007-16.524,0.002-24.787-0.002
			c-5.184-0.003-10.366-0.007-15.549-0.007c-3.715,0-7.431,0.001-11.145,0.006c1.438-1.457,2.251-3.715,2.251-6.433
			c0-6.111,0.004-12.222,0.008-18.332C60.186,70,60.19,63.889,60.19,57.777V46.492c0-0.289,0.059-0.384,0.058-0.385
			c0.006-0.004,0.104-0.064,0.402-0.064h62.828c0.272,0,0.373,0.051,0.379,0.051c0.007,0.011,0.064,0.115,0.065,0.41L123.904,86.188
			z"/>
	</g>
</g>
<g id="Layer_2" display="none">
	<g display="inline">
		<path fill="none" d="M49.385,55.437c0.009,0.024-0.031,0.171-0.03,0.494v36.24c0.033,2.092,0.449,3.873,1.274,5.444
			c0.281,0.536,0.592,1.003,0.938,1.404l0.001-0.001c0.921,0.99,2.217,1.32,3.387,0.861c1.687-0.664,2.695-2.698,2.695-5.44
			c0-6.112,0.004-12.223,0.008-18.334c0.004-6.11,0.008-12.221,0.008-18.332V55.39h-7.862C49.552,55.39,49.429,55.421,49.385,55.437
			z"/>
		<rect x="71.923" y="60.874" fill="none" width="40.719" height="15.049"/>
		<path fill="none" d="M123.474,46.038H60.646c-0.299,0-0.396,0.061-0.402,0.064c0.001,0-0.057,0.096-0.058,0.385v11.285
			c0,6.112-0.004,12.223-0.008,18.334c-0.004,6.11-0.008,12.221-0.008,18.332c0,2.718-0.813,4.976-2.251,6.433
			c3.714-0.005,7.43-0.006,11.145-0.006c5.184,0,10.366,0.003,15.549,0.007c8.262,0.005,16.523,0.01,24.787,0.002
			c2.218-0.006,4.425-0.287,6.556-0.835c4.323-1.115,6.761-3.651,7.453-7.753c0.317-1.877,0.482-3.93,0.492-6.103l0.019-39.685
			c-0.001-0.295-0.059-0.399-0.065-0.41C123.847,46.089,123.747,46.038,123.474,46.038z M89.183,94.948
			c-0.166,0.211-0.588,0.301-0.897,0.303c-2.687,0.02-5.376,0.01-8.063,0.01c-2.727,0-5.453-0.002-8.182,0.006
			c-0.494,0.002-0.868-0.182-1.009-0.654c-0.134-0.443-0.055-0.881,0.384-1.143c0.178-0.105,0.405-0.178,0.611-0.178
			c5.473-0.008,10.949-0.008,16.423-0.002c0.448,0.002,0.871,0.18,0.946,0.645C89.447,94.265,89.378,94.7,89.183,94.948z
			 M88.462,89.868c-1.898,0.01-3.795,0.004-5.692,0.004c-0.851,0-1.698,0-2.549,0c-2.708,0-5.415,0.004-8.123-0.004
			c-0.767,0-1.147-0.381-1.104-1.064c0.029-0.516,0.361-0.857,0.92-0.898c0.412-0.029,0.828-0.01,1.242-0.01
			c4.941-0.002,9.883-0.002,14.822-0.002c0.178,0,0.357-0.01,0.533,0.002c0.581,0.049,0.983,0.451,0.988,0.986
			C89.503,89.438,89.078,89.862,88.462,89.868z M88.462,84.476c-1.898,0.01-3.795,0.004-5.692,0.004c-0.851,0-1.698,0-2.549,0
			c-2.708,0-5.415,0.004-8.123-0.004c-0.767,0-1.147-0.381-1.104-1.064c0.029-0.516,0.361-0.859,0.92-0.898
			c0.412-0.029,0.828-0.012,1.242-0.012c4.941-0.002,9.883-0.002,14.822-0.002c0.178,0,0.357-0.008,0.533,0.004
			c0.581,0.047,0.983,0.451,0.988,0.986C89.503,84.044,89.078,84.47,88.462,84.476z M96.269,87.896
			c0.156-0.008,0.315-0.002,0.474-0.002c3.321,0,6.642,0,9.962,0c1.918,0,3.836-0.004,5.752,0.002c0.234,0,0.49,0.006,0.697,0.098
			c0.449,0.193,0.65,0.58,0.563,1.062c-0.097,0.537-0.449,0.814-1.002,0.814c-1.542,0.002-3.083,0.002-4.626,0.002
			c-1.225,0-2.451,0-3.676,0c-2.709-0.002-5.418,0.004-8.125-0.004c-0.643,0-1.047-0.373-1.068-0.941
			C95.197,88.337,95.607,87.931,96.269,87.896z M95.22,83.532c-0.023-0.592,0.387-0.996,1.049-1.031
			c0.156-0.01,0.315-0.004,0.474-0.004c3.321,0,6.642,0,9.962,0c1.918,0,3.836-0.004,5.752,0.004c0.234,0,0.49,0.006,0.697,0.098
			c0.449,0.193,0.65,0.58,0.563,1.062c-0.097,0.537-0.449,0.814-1.002,0.814c-1.542,0.002-3.083,0.002-4.626,0.002
			c-1.225,0-2.451,0-3.676,0c-2.709-0.002-5.418,0.004-8.125-0.004C95.646,84.474,95.242,84.099,95.22,83.532z M112.715,95.259
			c-2.589,0.008-5.179,0.002-7.767,0.002c-0.178,0-0.355,0-0.535,0c-2.707,0-5.416,0.02-8.123-0.023
			c-0.325-0.004-0.774-0.264-0.93-0.539c-0.142-0.248-0.079-0.775,0.109-1.008c0.192-0.244,0.639-0.377,0.982-0.389
			c1.264-0.045,2.527-0.02,3.795-0.02c3.973,0,7.946,0,11.916,0.002c0.218,0,0.439-0.008,0.652,0.018
			c0.593,0.07,0.938,0.471,0.914,1.035C113.708,94.896,113.333,95.257,112.715,95.259z M115.162,77.183
			c0,0.696-0.563,1.26-1.26,1.26H70.664c-0.696,0-1.26-0.564-1.26-1.26V59.614c0-0.696,0.564-1.26,1.26-1.26h43.238
			c0.696,0,1.26,0.564,1.26,1.26V77.183z M115.162,53.093c-0.098,0.537-0.449,0.814-1.002,0.814
			c-1.542,0.002-4.363,0.002-5.906,0.002c-1.225,0-2.451,0-3.675,0c-2.709-0.002-31.498,0.004-34.205-0.004
			c-0.642,0-1.046-0.373-1.067-0.941c-0.023-0.59,0.387-0.996,1.049-1.031c0.156-0.008,0.314-0.002,0.473-0.002
			c3.322,0,32.721,0,36.042,0c1.917,0,5.114-0.004,7.032,0.002c0.234,0,0.489,0.006,0.695,0.098
			C115.046,52.224,115.249,52.61,115.162,53.093z"/>
		<path d="M88.511,87.896c-0.176-0.012-0.355-0.002-0.533-0.002c-4.939,0-9.881,0-14.822,0.002c-0.414,0-0.83-0.02-1.242,0.01
			c-0.559,0.041-0.891,0.383-0.92,0.898c-0.043,0.684,0.338,1.064,1.104,1.064c2.708,0.008,5.415,0.004,8.123,0.004
			c0.851,0,1.698,0,2.549,0c1.897,0,3.794,0.006,5.692-0.004c0.615-0.006,1.041-0.43,1.037-0.986
			C89.495,88.347,89.092,87.944,88.511,87.896z"/>
		<path d="M112.816,93.302c-0.213-0.025-0.435-0.018-0.652-0.018c-3.97-0.002-7.943-0.002-11.916-0.002
			c-1.268,0-2.531-0.025-3.795,0.02c-0.344,0.012-0.79,0.145-0.982,0.389c-0.188,0.232-0.251,0.76-0.109,1.008
			c0.155,0.275,0.604,0.535,0.93,0.539c2.707,0.043,5.416,0.023,8.123,0.023c0.18,0,0.357,0,0.535,0
			c2.588,0,5.178,0.006,7.767-0.002c0.618-0.002,0.993-0.363,1.015-0.922C113.754,93.772,113.409,93.372,112.816,93.302z"/>
		<path d="M88.45,93.29c-5.474-0.006-10.95-0.006-16.423,0.002c-0.206,0-0.434,0.072-0.611,0.178
			c-0.438,0.262-0.518,0.699-0.384,1.143c0.141,0.473,0.515,0.656,1.009,0.654c2.729-0.008,5.455-0.006,8.182-0.006
			c2.688,0,5.377,0.01,8.063-0.01c0.31-0.002,0.731-0.092,0.897-0.303c0.195-0.248,0.264-0.684,0.213-1.014
			C89.321,93.47,88.898,93.292,88.45,93.29z"/>
		<path d="M96.289,89.868c2.707,0.008,5.416,0.002,8.125,0.004c1.225,0,2.451,0,3.676,0c1.543,0,3.084,0,4.626-0.002
			c0.553,0,0.905-0.277,1.002-0.814c0.087-0.482-0.114-0.869-0.563-1.062c-0.207-0.092-0.463-0.098-0.697-0.098
			c-1.916-0.006-3.834-0.002-5.752-0.002c-3.32,0-6.641,0-9.962,0c-0.158,0-0.317-0.006-0.474,0.002
			c-0.662,0.035-1.072,0.441-1.049,1.031C95.242,89.495,95.646,89.868,96.289,89.868z"/>
		<path d="M96.289,84.474c2.707,0.008,5.416,0.002,8.125,0.004c1.225,0,2.451,0,3.676,0c1.543,0,3.084,0,4.626-0.002
			c0.553,0,0.905-0.277,1.002-0.814c0.087-0.482-0.114-0.869-0.563-1.062c-0.207-0.092-0.463-0.098-0.697-0.098
			c-1.916-0.008-3.834-0.004-5.752-0.004c-3.32,0-6.641,0-9.962,0c-0.158,0-0.317-0.006-0.474,0.004
			c-0.662,0.035-1.072,0.439-1.049,1.031C95.242,84.099,95.646,84.474,96.289,84.474z"/>
		<path d="M88.511,82.503c-0.176-0.012-0.355-0.004-0.533-0.004c-4.939,0-9.881,0-14.822,0.002c-0.414,0-0.83-0.018-1.242,0.012
			c-0.559,0.039-0.891,0.383-0.92,0.898c-0.043,0.684,0.338,1.064,1.104,1.064c2.708,0.008,5.415,0.004,8.123,0.004
			c0.851,0,1.698,0,2.549,0c1.897,0,3.794,0.006,5.692-0.004c0.615-0.006,1.041-0.432,1.037-0.986
			C89.495,82.954,89.092,82.55,88.511,82.503z"/>
		<path d="M113.902,58.354H70.664c-0.696,0-1.26,0.564-1.26,1.26v17.568c0,0.696,0.564,1.26,1.26,1.26h43.238
			c0.696,0,1.26-0.564,1.26-1.26V59.614C115.162,58.918,114.598,58.354,113.902,58.354z M112.642,75.923H71.923V60.874h40.719
			V75.923z"/>
		<path d="M114.597,52.03c-0.206-0.092-0.461-0.098-0.695-0.098c-1.918-0.006-5.115-0.002-7.032-0.002c-3.321,0-32.72,0-36.042,0
			c-0.158,0-0.316-0.006-0.473,0.002c-0.662,0.035-1.072,0.441-1.049,1.031c0.021,0.568,0.426,0.941,1.067,0.941
			c2.707,0.008,31.496,0.002,34.205,0.004c1.224,0,2.45,0,3.675,0c1.543,0,4.364,0,5.906-0.002c0.553,0,0.904-0.277,1.002-0.814
			C115.249,52.61,115.046,52.224,114.597,52.03z"/>
		<path d="M143.47,65.324c0-2.804-2.273-5.077-5.078-5.077c-2.804,0-5.077,2.273-5.077,5.077c0,2.329,1.578,4.271,3.716,4.869
			l0.088,6.048c-1.411,0.358-4.92,0.816-10.694-1.044l0.014-28.702c-0.005-1.836-1.141-2.977-2.964-2.977H60.646
			c-1.835,0-2.977,1.136-2.979,2.966l0,6.386h-7.864c-0.96,0.001-1.678,0.254-2.193,0.772c-0.525,0.529-0.778,1.281-0.773,2.294
			v17.546c-7.818-2.164-11.656-0.312-11.827-0.226c-0.431,0.217-0.7,0.661-0.692,1.144l0.1,6.865
			c-2.244,0.526-3.918,2.529-3.918,4.933c0,2.804,2.273,5.077,5.078,5.077c2.804,0,5.077-2.273,5.077-5.077
			c0-2.33-1.578-4.272-3.716-4.87l-0.088-6.047c1.353-0.343,4.63-0.785,9.986,0.82v16.08c0,0.006,0,0.013,0,0.019
			c0.037,2.465,0.562,4.682,1.562,6.585c1.602,3.059,4.142,4.609,7.552,4.609c8.404-0.012,16.81-0.006,25.214-0.002l0.115,7.854
			c-1.236,0.313-4.08,0.703-8.639-0.451c0.001-0.006,0.003-0.011,0.004-0.017c0.212-1.115,0.344-2.135-1.101-2.766
			c0,0-2.183-0.887-3.369-1.242c-1.188-0.35-1.593-0.791-2.125,0.511c-0.529,1.294-4.689,11.666-2.104,16.898
			c1.003,2.025,2.928,1.213,3.529-0.736c0.607-1.945,1.939-5.584,3.413-6.01c1.478-0.422,3.321-1.354,1.999-3.591
			c-0.099-0.168-0.183-0.317-0.258-0.459c2.25,0.523,4.137,0.711,5.653,0.71c3.144,0,4.729-0.769,4.838-0.823
			c0.431-0.217,0.7-0.661,0.692-1.144l-0.128-8.736c0.309,0,0.618,0,0.928,0c3.296,0.002,6.592,0.003,9.888,0.004l15.104,13.412
			c-0.036,0.026-0.072,0.052-0.109,0.083c-0.86,0.725-1.601,1.428-0.882,2.82c0,0,1.123,2.051,1.815,3.066
			c0.695,1.014,0.731,1.605,1.954,0.939c1.22-0.668,10.918-6.047,12.205-11.696c0.499-2.186-1.492-2.768-3.18-1.643
			c-1.686,1.119-4.988,3.084-6.392,2.488c-1.402-0.6-3.404-1.039-3.788,1.515c-0.023,0.157-0.048,0.301-0.072,0.434l-12.857-11.417
			c0.62,0,1.241,0.001,1.861,0.001c3.081,0,6.164-0.001,9.245-0.004c2.43-0.006,4.846-0.313,7.181-0.915
			c5.239-1.351,8.458-4.731,9.309-9.774c0.341-2.011,0.518-4.202,0.527-6.516l0.004-8.352c3.181,0.95,5.743,1.252,7.697,1.252
			c3.145,0,4.73-0.769,4.839-0.824c0.431-0.217,0.699-0.661,0.692-1.144l-0.101-6.866C141.795,69.729,143.47,67.728,143.47,65.324z
			 M57.667,57.772c0,6.111-0.004,12.222-0.008,18.332c-0.004,6.111-0.008,12.222-0.008,18.334c0,2.743-1.008,4.776-2.695,5.44
			c-1.169,0.459-2.465,0.128-3.387-0.861l-0.001,0.001c-0.346-0.4-0.657-0.868-0.938-1.404c-0.825-1.571-1.241-3.352-1.274-5.444
			v-36.24c-0.001-0.323,0.039-0.47,0.03-0.494c0.044-0.015,0.167-0.046,0.419-0.047h7.862V57.772z M123.9,86.183
			c-0.01,2.172-0.175,4.225-0.492,6.103c-0.692,4.102-3.13,6.638-7.453,7.753c-2.131,0.549-4.338,0.83-6.556,0.835
			c-8.264,0.007-16.524,0.002-24.787-0.002c-5.184-0.003-10.366-0.007-15.549-0.007c-3.715,0-7.431,0.001-11.145,0.006
			c1.438-1.457,2.251-3.715,2.251-6.433c0-6.111,0.004-12.222,0.008-18.332c0.004-6.111,0.008-12.222,0.008-18.334V46.487
			c0-0.289,0.059-0.384,0.058-0.385c0.006-0.004,0.104-0.064,0.402-0.064h62.828c0.272,0,0.373,0.051,0.379,0.051
			c0.007,0.011,0.064,0.115,0.065,0.41L123.9,86.183z"/>
	</g>
</g>
</svg>
