<svg xmlns="http://www.w3.org/2000/svg" width="512" height="512"><path d="M149.524 241.85H119.37c-1.226 0-2.29-.82-2.606-2-.315-1.18.2-2.425 1.255-3.035l3.5-2.02c.41-.235.87-.36 1.35-.36h30.01c1.49 0 2.7 1.21 2.7 2.7 0 .995-.55 2.15-1.43 2.615l-3.36 1.785c-.39.21-.83.315-1.27.315zm106.2 0h-30.16c-1.22 0-2.29-.82-2.605-2-.32-1.175.2-2.42 1.25-3.035l3.495-2.02c.414-.235.88-.36 1.354-.36h30.015c1.49 0 2.7 1.21 2.7 2.7 0 .995-.55 2.15-1.43 2.615l-3.35 1.785c-.396.21-.83.315-1.276.315zm118.69 233.155H100.03c-3.48 0-6.3-2.815-6.3-6.3v-45.94l-35.286-36.89c-1.12-1.17-1.745-2.735-1.745-4.355v-84.165c0-3.48 2.82-6.3 6.3-6.3h272.7c3.48 0 6.3 2.815 6.3 6.3v103.61l37.12 41.61c1.03 1.155 1.59 2.645 1.59 4.195v21.94c0 3.48-2.82 6.295-6.3 6.295zM106.33 462.41h261.784v-13.235l-37.12-41.61c-1.03-1.155-1.595-2.645-1.595-4.195v-99.71H69.29v75.335l35.285 36.89c1.12 1.17 1.744 2.735 1.744 4.355v42.17zm342.674 12.595H411.45c-3.48 0-6.3-2.815-6.3-6.3V426.22l-35.436-39.71c-1.03-1.15-1.6-2.645-1.6-4.195v-100.32c0-1.74.72-3.4 1.985-4.59l35.05-32.945V43.295c0-3.48 2.82-6.3 6.3-6.3H449c3.48 0 6.3 2.815 6.3 6.3V468.71c0 3.48-2.82 6.295-6.3 6.295zm-75.38-264.755H308.68v-16.665c13.494-3.58 23.454-15.85 23.454-30.475 0-17.43-14.13-31.57-31.555-31.57-17.44 0-31.58 14.14-31.58 31.57 0 14.625 9.97 26.895 23.47 30.475v16.665H112.99v-41.36l119.3-119.295h141.66c3.48 0 6.3-2.815 6.3-6.3s-2.82-6.3-6.3-6.3H106.693c-3.48 0-6.3 2.815-6.3 6.3v169.76l-41.905 42.86c-1.77 1.81-2.286 4.51-1.3 6.845.98 2.34 3.27 3.855 5.804 3.855h271.91c1.595 0 3.135-.605 4.3-1.695l38.715-36.19c1.274-1.19 1.994-2.86 1.994-4.605v-7.58c.01-3.475-2.81-6.295-6.29-6.295zM113 137.615v-34.3l53.74-53.72h34.28L113 137.615zm34.184-88.025l-34.18 34.17V49.59h34.18zm185.24 204.43H77.97l30.474-31.17H292.48v19.47h16.2v-19.47h57.084l-33.34 31.17zm-142.444-9.46c-8.066 0-12.156-2.055-12.156-6.11 0-4.06 4.09-6.12 12.155-6.12 8.05 0 12.14 2.06 12.14 6.12-.005 4.055-4.09 6.11-12.145 6.11z" fill="#fff"/></svg>
