<svg xmlns="http://www.w3.org/2000/svg" width="512" height="512"><g transform="matrix(4.84 0 0 4.84 -2409.443 -1592.395)" fill="#fff"><path d="M594.598 337.734H518.43c-9.163 0-12.414 5.828-12.414 10.82v61.12c0 .695.564 1.26 1.26 1.26h76.303c.61 0 1.14-.444 1.24-1.05 1.33-7.905 7.56-8.52 9.43-8.52.15 0 .24.005.255.006.352.02.69-.097.947-.335.256-.238.4-.572.4-.922v-61.12c0-.695-.564-1.26-1.26-1.26zm-79.656 39.368c.28.16.623.16.9-.002l5.672-3.292 5.67 3.292c.277.16.62.163.9.002.28-.16.45-.458.45-.78v-25.446h53.65v40.088h-73.65v-40.088h5.958v25.446c0 .322.172.618.45.78zm11.897-27.897c-.07.13-.108.272-.108.418v25.135l-4.77-2.77c-.28-.162-.624-.162-.903 0l-4.77 2.77v-24.915l2.405-4.638h10.242l-2.1 4zm-18.31 44.277h73.65v14.932h-73.65v-14.932zm76.17 10.034v-53.9c0-.696-.563-1.26-1.26-1.26h-54.126l1.654-3.15h57.3v55.183c-1.26.684-2.515 1.68-3.567 3.122zm8.634-4.63c-.823.07-1.992.25-3.268.697v-55.278c0-.497-.404-.9-.9-.9h-71.024c-.34 0-.65.19-.804.495l-2.323 4.482c-.044-.005-.083-.026-.13-.026h-6.35c.048-2.136.983-8.102 9.89-8.102h74.908v58.632z"/><circle cx="545.058" cy="400.901" r="3.564"/><path d="M569.414 418.48c-.206-.13-.44-.187-.675-.186v-.007c-1.047 0-3.53-1.357-3.8-3.445h-2.52c.146 2.09 1.497 3.823 3.1 4.87L562.87 421c-3.866-.4-4.723-3.33-4.743-5.76 0-.03 0-.06-.004-.09v-.31h-2.52v.41c0 .036 0 .074.005.11.07 4.4 2.37 7.33 6.23 8.04v.457H526.73v-.46c3.837-.707 6.134-3.61 6.226-7.97.002-.04.004-.08.004-.122v-.47h-2.52v.37c-.002.026-.004.055-.004.082-.03 2.47-.932 5.473-5.046 5.74-.663.043-1.178.602-1.178 1.266v2.82c0 .695.564 1.26 1.26 1.26H563.1c.15 0 .3-.036.445-.09.023-.01.045-.015.067-.024.014-.008.03-.01.043-.017l5.646-2.772c.437-.21.71-.65.71-1.13v-2.8c0-.435-.224-.838-.592-1.068z"/></g></svg>