<svg xmlns="http://www.w3.org/2000/svg" width="512" height="512"><path d="M121.647 461.893l-17.982-13.05c3.5-5.753 4.72-12.5 3.39-19.142-2.5-12.48-13.54-21.54-26.252-21.54-1.766 0-3.544.18-5.287.53-14.49 2.9-23.918 17.05-21.014 31.538 2.5 12.485 13.542 21.542 26.25 21.542 1.765 0 3.543-.18 5.287-.526 5.58-1.12 10.53-3.93 14.33-8.025l18.063 13.104c.484.354 1.047.523 1.603.523.85 0 1.682-.392 2.216-1.13.885-1.218.614-2.93-.61-3.82zm-36.684-6.015c-1.393.28-2.808.42-4.21.42-10.114 0-18.893-7.212-20.88-17.146-2.31-11.528 5.193-22.786 16.72-25.095 1.395-.28 2.81-.42 4.213-.42 10.112 0 18.895 7.208 20.883 17.143 1.12 5.585 0 11.27-3.17 16.01-3.16 4.74-7.978 7.968-13.56 9.088zm401.127 33.807H24.933c-1.515 0-2.736-1.224-2.736-2.735V384.833c0-1.51 1.225-2.736 2.736-2.736h461.16c1.513 0 2.734 1.225 2.734 2.736V486.95c0 1.51-1.22 2.735-2.735 2.735zM27.67 484.21h455.685v-96.64H27.67v96.64z" fill="#fff"/></svg>