<svg xmlns="http://www.w3.org/2000/svg" width="512" height="512"><g transform="matrix(6 0 0 7 -3004.499 -1353.422)" fill="#fff"><path d="M528.14 216.247c.162.034.313.072.477.105l.027-.01c4.643.875 9.907 1.326 15.06 1.326 5.01 0 10.13-.426 14.678-1.253l.033.012c.252-.05.486-.105.733-.157 8.16-1.59 14.3-4.508 14.3-8.63 0-6.512-15.326-10.026-29.745-10.026-14.42 0-29.744 3.515-29.744 10.027 0 4.1 6.08 7.016 14.18 8.61zm15.563-1.1c-3.358 0-6.454-.176-9.266-.478 2.842-.6 5.854-.93 8.98-.93 3.2 0 6.278.342 9.178.97-2.71.274-5.682.433-8.892.433zm0-15.015c16.867 0 27.225 4.373 27.225 7.508 0 2.062-4.48 4.658-12.343 6.195-4.548-1.663-9.7-2.614-15.167-2.614-5.386 0-10.466.926-14.966 2.54-7.63-1.542-11.974-4.09-11.974-6.12 0-3.13 10.358-7.504 27.225-7.504zm22.66 17.628c-.992.35-2.034.67-3.114.967 6.262 3.64 10.36 8.967 10.75 14.94-2.386.66-9.174 2.32-16.89 2.32-11.245 0-19.6-3.377-24.83-10.035-.24-.305-.605-.48-.99-.48h-.06c-.405.02-.78.232-1 .574-4.157 6.426-14.127 7.218-17.376 7.3.518-5.9 4.657-11.148 10.916-14.727-1.077-.31-2.116-.64-3.103-.998-6.39 4.266-10.39 10.298-10.39 16.98 0 .673.53 1.228 1.205 1.258 0 0 .254.013.71.013 3.234 0 13.692-.538 19.16-7.11 5.718 6.38 14.58 9.74 25.755 9.74 9.963 0 18.217-2.59 18.563-2.7.524-.166.88-.65.88-1.2.003-6.614-3.913-12.59-10.187-16.847z"/><circle cx="530.303" cy="243.51" r="3.004"/><path d="M543.314 262.22c-1.73 0-3.452-.212-5.12-.633-.674-.17-1.083-.855-.913-1.53.17-.674.86-1.084 1.53-.913 1.52.383 3.1.546 4.667.557 4.95-.04 9.602-2.034 13.1-5.62.486-.5 1.283-.51 1.78-.02.5.486.51 1.28.023 1.78-3.97 4.07-9.256 6.338-14.88 6.385h-.183zm14.336-17.153c-.617 0-1.157-.454-1.246-1.083-.098-.69.38-1.327 1.07-1.425l4.176-.6c.684-.093 1.327.38 1.425 1.07.098.69-.38 1.328-1.07 1.426l-4.176.593c-.06.01-.12.013-.18.013z"/></g></svg>