<svg xmlns="http://www.w3.org/2000/svg" width="512" height="512"><g transform="matrix(4.49 0 0 4.49 -3118.708 -1468.735)" fill="#fff"><path d="M776.91 378.24c-.106-1.412-.835-3.948-1.858-5.726l-11.142-20.27V339.3c0-3.785-3.197-6.865-7.128-6.865-3.93 0-7.128 3.08-7.128 6.865v1.728c-.514.287-1 .632-1.44 1.052-3.26 3.117-1.236 7.35-.252 9.41l1.692 3.334v5.28c-1.243-1.02-2.85-1.637-4.606-1.637-3.856 0-7 2.968-7.117 6.656-1.29-1.098-2.983-1.77-4.84-1.77-3.937 0-7.15 2.998-7.335 6.746 0 .03-.017.052-.017.083v39.372c0 4.686 2.065 8.402 5.526 10.518-.133.2-.23.426-.23.684v13.515c0 .696.564 1.26 1.26 1.26h37.246c.695 0 1.26-.563 1.26-1.26V420.76c0-.37-.166-.693-.42-.924 3.41-2.244 5.655-6 5.655-10.24l.895-29.21-.017-2.148zm-24.736-38.94c0-2.396 2.067-4.346 4.608-4.346 2.54 0 4.608 1.95 4.608 4.346v8.362l-2.9-5.278c-.063-.113-.143-.216-.235-.305-1.654-1.586-3.928-2.21-6.08-1.9v-.88zm-2.22 4.6c.43-.407.92-.714 1.445-.93l.01-.007c1.637-.665 3.594-.396 4.966.813l16.475 29.974c.82 1.42 1.46 3.565 1.538 4.592l.013 2.015-.29 9.444-7.29-6.71-16.603-32.71c-1.59-3.325-1.664-5.14-.27-6.475zm13.633 38.375l-11.413.53v-17.473c0-.192-.014-.382-.03-.57.007-.05.03-.096.03-.148v-4.827l11.413 22.488zm-23.148-16.942c0-2.396 2.062-4.347 4.603-4.347 2.54 0 4.606 1.95 4.606 4.347v17.59l-2.65.123c-2.74 0-5.13 1.467-6.37 3.627-.12-.392-.194-.798-.194-1.218v-20.122zm-7.358.54c2.665 0 4.834 2.048 4.834 4.563v15.38c0 2.515-2.17 4.56-4.835 4.56s-4.832-2.046-4.832-4.56v-15.38c0-2.515 2.167-4.562 4.832-4.562zm.465 56.148h8.01c-1.153 1.25-1.834 2.87-1.834 4.69v6.31h-6.176v-11zm34.725 0v11h-26.03v-6.305c0-2.62 2.277-4.596 5.324-4.69h20.706zm-5.23-2.514h-15.17c-.03-.002-.056-.018-.087-.018-.143 0-.28.012-.417.018h-8.655c-6.456 0-10.467-3.81-10.467-9.942v-18.42c1.294 1.09 2.982 1.76 4.833 1.76 2.637 0 4.946-1.35 6.245-3.36.036.046.062.1.1.146.088.105.19.187.3.26 0 .035-.004.072-.004.11 0 3.863 3.263 7.01 7.35 7.01h.006l5.855-.363c-3.254 3.296-5.085 7.64-5.085 12.256 0 .695.563 1.26 1.26 1.26.697 0 1.26-.564 1.26-1.26 0-4.677 2.2-9.04 6.036-11.972.04-.03.06-.072.096-.106l1.824 1.26c.22.15.47.222.716.222.4 0 .792-.19 1.037-.544.396-.57.25-1.356-.32-1.752l-2.71-1.87c-.232-.16-.516-.232-.793-.22l-9.25.572c-2.623 0-4.758-2.016-4.758-4.49 0-2.478 2.135-4.49 4.816-4.49l17.836-.83.09.084 9.025 8.312-.505 16.426c0 5.48-4.696 9.94-10.466 9.94z"/><ellipse cx="748.18" cy="427.208" rx="1.662" ry="1.587"/></g></svg>