<svg xmlns="http://www.w3.org/2000/svg" width="512" height="512"><path d="M502.727 240.055l-63.76-199.39c-.835-2.61-3.26-4.38-6-4.38H81.237c-2.715 0-5.125 1.74-5.98 4.32L9.282 239.995c-.21.64-.315 1.31-.315 1.98v197.72c0 19.865 18.72 36.02 41.74 36.02h410.575c23.02 0 41.75-16.155 41.75-36.02v-197.72c-.005-.655-.105-1.3-.305-1.92zm-446.04-103.22h399.805l14.27 44.62H41.922l14.765-44.62zm16-48.36c.025 0 .05.015.075.015h368.27l11.43 35.745H60.852l11.835-35.76zm13.1-39.595h342.58l8.64 27.01H76.857l8.93-27.01zM37.752 194.05h437.035l15.64 48.905v.595h-102.31l-4.68-23.61c-.68-3.41-3.955-5.64-7.405-4.955-3.415.675-5.63 3.99-4.955 7.405l4.195 21.155H260.957v-21.36c0-3.48-2.815-6.3-6.3-6.3s-6.3 2.82-6.3 6.3v21.36H135.482l4.195-21.155c.675-3.415-1.545-6.73-4.955-7.405-3.43-.69-6.73 1.545-7.405 4.955l-4.68 23.61H21.562v-.56l16.19-48.94zm423.525 269.065H50.702c-16.07 0-29.14-10.51-29.14-23.425V256.145h101.205v18.645c0 3.48 2.815 6.3 6.3 6.3s6.3-2.82 6.3-6.3v-18.645h112.995v18.645c0 3.48 2.815 6.3 6.3 6.3s6.3-2.82 6.3-6.3v-18.645h114.435v18.645c0 3.48 2.815 6.3 6.3 6.3s6.3-2.82 6.3-6.3v-18.645h102.44V439.69c-.01 12.915-13.085 23.425-29.16 23.425z" fill="#fff"/></svg>