<svg xmlns="http://www.w3.org/2000/svg" width="512" height="512"><path d="M115.528 193.64c-1.816 0-3.288-1.472-3.288-3.288v-5.49c0-6.795 5.535-12.33 12.336-12.33h6.08c1.815 0 3.287 1.473 3.287 3.29 0 1.814-1.472 3.286-3.288 3.286h-6.08c-3.177 0-5.763 2.58-5.763 5.75v5.49c.004 1.82-1.47 3.292-3.284 3.292zm-51.485 26.017c-1.816 0-3.288-1.472-3.288-3.288v-50.94c0-1.815 1.472-3.287 3.288-3.287 1.815 0 3.287 1.472 3.287 3.287v50.934c-.003 1.815-1.472 3.287-3.287 3.287zm15.997 0c-1.817 0-3.29-1.472-3.29-3.288v-50.94c0-1.815 1.473-3.287 3.29-3.287 1.815 0 3.287 1.472 3.287 3.287v50.934c-.004 1.815-1.472 3.287-3.288 3.287zm218.27-26.017c-1.816 0-3.288-1.472-3.288-3.288v-5.49c0-6.795 5.534-12.33 12.336-12.33h6.075c1.815 0 3.288 1.473 3.288 3.29 0 1.814-1.47 3.286-3.283 3.286h-6.075c-3.18 0-5.765 2.58-5.765 5.75v5.49c.004 1.82-1.464 3.292-3.284 3.292zm141.973-31.23c-6.257 0-11.346 5.09-11.346 11.34 0 6.253 5.09 11.342 11.346 11.342 6.25 0 11.336-5.092 11.336-11.343 0-6.25-5.09-11.34-11.34-11.34zm0 16.107c-2.63 0-4.77-2.137-4.77-4.768 0-2.63 2.14-4.76 4.77-4.76 2.627 0 4.76 2.13 4.76 4.76s-2.137 4.763-4.76 4.763zm0 40.387c-6.257 0-11.346-5.088-11.346-11.34 0-6.25 5.09-11.338 11.346-11.338 6.25 0 11.336 5.09 11.336 11.34s-5.09 11.338-11.34 11.338zm43.453 7.926h-13.673V132.8c0-2.543-2.06-4.603-4.603-4.603H46.797c-2.543 0-4.603 2.056-4.603 4.602v94.03H28.506c-2.542 0-4.603 2.054-4.603 4.6v111.69c0 2.543 2.06 4.603 4.603 4.603h61.91v34.364c0 1.09.885 1.973 1.974 1.973h23.134c1.09 0 1.973-.883 1.973-1.972v-34.36H394.74v34.364c0 1.09.885 1.974 1.974 1.974h23.134c1.09 0 1.973-.884 1.973-1.973V347.73h61.916c2.543 0 4.603-2.056 4.603-4.603v-111.69c.002-2.543-2.058-4.603-4.6-4.603zm-22.875-89.428v89.43h-41.23v-58.24c0-8.245-6.7-14.95-14.94-14.95H290.47c-8.24 0-14.948 6.705-14.948 14.95v89.856c0 8.24 6.703 14.944 14.948 14.944h119.95v14.265H260.764V137.402H460.86zm-50.44 31.19v95.595H290.47c-3.167 0-5.742-2.577-5.742-5.74V168.59c0-3.166 2.58-5.74 5.742-5.74h114.215c3.16 0 5.735 2.574 5.735 5.74zM51.407 137.4H251.5v150.255H101.84V273.39h119.954c8.24 0 14.944-6.703 14.944-14.944V168.59c0-8.243-6.703-14.947-14.944-14.947h-114.22c-8.236 0-14.94 6.704-14.94 14.948l.096 58.24H51.4v-89.424zm50.437 126.78v-95.588c0-3.166 2.576-5.74 5.736-5.74H221.8c3.16 0 5.737 2.574 5.737 5.74v89.858c0 3.163-2.576 5.74-5.74 5.74l-119.953-.005zm377.294 74.34H33.114V236.03h59.524v56.224c0 2.543 2.06 4.603 4.603 4.603h317.787c2.542 0 4.603-2.057 4.603-4.604v-56.22h59.51v102.49z" fill="#fff"/></svg>