<svg xmlns="http://www.w3.org/2000/svg" width="512" height="512"><path d="M506.113 284.317c-3.115-28.348-17.31-52.91-37.913-69.77-2.04-1.796-83.434-73.334-104.895-93.2-19.998-18.506-61.537-.864-66.21 1.205-2.982 1.323-4.324 4.813-3.006 7.797 1.32 2.98 4.804 4.32 7.793 3.01l.197-.087c20.106-5.475 30.863-6 41.29-3.27 8.23 2.153 15.486 6.976 27.664 21.54l31.734 39.302c-.29 0-.578-.042-.87-.042-3.84 0-7.74.216-11.58.638-37.993 4.176-69.05 28.255-83.956 60.693-.08-.032-.136-.093-.215-.117-15.585-5.574-32.32-8.393-49.75-8.393-18.163 0-35.57 2.885-50.54 8.303-16.64-36.032-53.093-61.11-95.317-61.11-.22 0-.44.014-.666.014l32.936-40.792c12.182-14.56 19.44-19.387 27.663-21.54 10.428-2.73 21.19-2.205 41.29 3.27.06.022.136.055.197.083 2.988 1.325 6.478-.026 7.796-3.01 1.322-2.983-.024-6.473-3.008-7.796-4.672-2.068-46.215-19.716-66.208-1.205-21.62 20.016-104.14 92.534-104.97 93.266-.264.23-.395.535-.606.793-23.996 19.25-39.396 48.784-39.396 81.87 0 57.878 47.088 104.966 104.966 104.966 43.537 0 80.957-26.66 96.83-64.506.503 1.965 1.94 3.59 3.918 4.203 13.68 4.217 29.272 6.446 45.11 6.446 16.216 0 32.142-2.33 46.05-6.746 1.342-.427 2.407-1.328 3.134-2.454 9.213 21.225 25.14 38.595 45 49.704l.348.39.136-.123c15.053 8.314 32.283 13.104 50.588 13.104 3.842 0 7.74-.21 11.582-.633 57.535-6.323 99.196-58.266 92.877-115.8zM110.543 388.92c-51.36 0-93.143-41.786-93.143-93.143 0-51.353 41.787-93.135 93.144-93.135 45.428 0 83.303 32.715 91.45 75.806l1.64 18.084c-.414 51.01-41.995 92.39-93.09 92.39zm108.016-58.683l-3.086-33.968c0-.168.014-.33.014-.496 0-6.586-.638-13.018-1.806-19.27l-1.3-14.36c13.117-4.386 28.23-6.69 44.017-6.69 14.537 0 28.53 2.126 41.656 6.315l-3.106 68.273c-23.38 6.51-52.876 6.586-76.392.192zM391.61 203.205c3.415-.376 6.877-.568 10.292-.568 8.98 0 17.676 1.28 25.918 3.668L326.077 349.967c-9.02-12.614-15.067-27.588-16.873-44.02-5.606-51.043 31.364-97.132 82.41-102.742zm-60.087 153.677l104.62-147.72c8.855 3.51 17.013 8.392 24.312 14.322l.013.014h.006c10.67 8.674 19.377 19.67 25.377 32.326l-68.64 61.916-64.575 57.235c-7.923-4.92-15.006-11.06-21.114-18.093zm80.427 31.48c-3.415.376-6.877.57-10.292.57-14.747 0-28.74-3.45-41.195-9.61l62.38-55.29 66.45-59.938c2.457 6.83 4.244 14.002 5.07 21.513 5.6 51.052-31.364 97.15-82.412 102.756z" fill="#5d5e5e"/></svg>