<?xml version="1.0" encoding="utf-8"?>
<!-- Generator: Adobe Illustrator 16.0.0, SVG Export Plug-In . SVG Version: 6.00 Build 0)  -->
<!DOCTYPE svg PUBLIC "-//W3C//DTD SVG 1.1//EN" "http://www.w3.org/Graphics/SVG/1.1/DTD/svg11.dtd">
<svg version="1.1" id="Layer_1" xmlns="http://www.w3.org/2000/svg" xmlns:xlink="http://www.w3.org/1999/xlink" x="0px" y="0px"
	 width="612px" height="792px" viewBox="0 0 612 792" enable-background="new 0 0 612 792" xml:space="preserve">
<g>
	<g>
		<g>
			<path fill="#FFFFFF" d="M269.552,360.643c8.686-0.105,17.397-0.174,26.115-0.217l8.638-34.384l13.164,51.19
				c-55.632-0.095-111.204,1.162-163.377,3.781c-0.459,0.026,0.127,21.601,0,21.601c16.41-0.829,33.296-1.494,50.288-2.054
				l-18.476,72.796h-19.029c-20.613,0-30.635-10.201-30.635-31.184l0.021-85.506c0-18.924,9.003-43.297,34.633-55.31
				c25.624-12.007,62.479-22.778,62.479-22.778l-18.95,83.204c8.285-0.237,16.627-0.438,24.991-0.623l31.606-125.841
				c0,0-41.063,11.104-101.141,36.734c-60.076,25.635-58.83,64.882-58.83,83.848l-0.043,86.271
				c0,35.371,20.883,56.491,55.869,56.491h38.756c0,0,17.145-67.432,25.022-98.859c9.631-0.237,19.304-0.417,29.024-0.575
				l-25.049,99.435h26.089l25.218-99.725c12.351-0.101,24.722-0.122,37.093-0.09l25.703,99.814h26.031l-25.646-99.619
				c9.848,0.101,19.679,0.248,29.458,0.428l25.418,99.191h49.67c41.206,0,45.662-36.834,45.662-52.669v-15.09
				c0-16.353-3.955-28.988-11.748-37.647c7.979-10.354,9.124-24.331,9.124-33.945l0.084-3.411c0-18.966,1.252-58.213-58.819-83.848
				c-60.072-25.63-101.151-36.734-101.151-36.734l31.47,125.54c8.343,0.137,16.675,0.301,24.959,0.507l-18.766-82.787
				c0,0,36.845,10.771,62.469,22.778c23.111,10.835,32.679,31.702,34.347,49.575v8.691c0,11.964-2.085,18.073-4.53,21.236
				c-39.743-1.922-81.308-3.084-123.237-3.469l-36.918-146.871h-4.267L269.552,360.643z M474.087,445.995
				c0,25.35-10.539,27.478-20.424,27.478h-30.946l-18.787-73.388c19.547,0.533,38.861,1.241,57.775,2.123l1.183,0.358
				c3.062,0.956,11.199,7.413,11.199,28.339V445.995z"/>
		</g>
	</g>
</g>
<g>
	<g>
		<path fill="#C8C8C8" d="M204.38,400.561l-2.751,10.987c8.717-0.296,17.482-0.549,26.311-0.781
			c1.378-5.438,1.621-6.579,2.714-10.962C221.841,400.017,213.092,400.27,204.38,400.561z"/>
	</g>
</g>
<g>
	<g>
		<path fill="#C8C8C8" d="M259.678,399.229l-2.92,11.928c8.729-0.143,17.488-0.243,26.264-0.316l2.914-11.901
			C277.16,399.003,268.4,399.098,259.678,399.229z"/>
	</g>
</g>
<g>
	<g>
		<path fill="#C8C8C8" d="M378.575,399.473l3.004,11.774c8.485,0.169,16.949,0.369,25.355,0.607l-3.005-11.77
			C395.514,399.853,387.07,399.642,378.575,399.473z"/>
	</g>
</g>
<g>
	<g>
		<path fill="#FFFFFF" d="M303.804,583.378c-0.016,0-0.021,0-0.026,0c-150.837-0.011-255.436-24.933-256.48-25.181l-7.635-1.858
			L23.31,251.741l0.063-0.75c0.554-6.193,1.853-20.698,124.019-68.831c54.363-21.416,127.361-46.428,154.163-46.428
			c0.464,0,0.924,0.01,1.361,0.021h4.488c25.535-0.855,100.217,24.61,155.53,46.407c122.171,48.133,123.465,62.632,124.02,68.831
			l0.068,0.75l-0.042,0.755l-16.337,304.175l-8.031,1.616C479.419,574.93,392.346,583.378,303.804,583.378z M59.896,539.357
			c26.348,5.55,118.791,22.905,243.882,22.911c0.005,0,0.026,0,0.026,0c84.312,0,167.236-7.772,246.638-23.106l15.286-284.591
			c-8.1-7.477-47.526-28.322-117.481-55.489c-64.037-24.874-121.39-42.24-139.464-42.24c-0.285,0-0.543,0.005-0.802,0.016
			l-0.391,0.006l-5.238-0.006c-0.254-0.011-0.522-0.016-0.797-0.016c-18.074,0-75.421,17.366-139.464,42.24
			c-69.966,27.167-109.393,48.013-117.487,55.489L59.896,539.357z"/>
	</g>
</g>
<g>
	<g>
		<path fill="#FFFFFF" d="M173.992,657.484l-2.434-20.973c141.163-16.374,259.723-0.132,260.899,0.031l-2.94,20.915
			C428.366,657.289,312.325,641.422,173.992,657.484z"/>
	</g>
</g>
</svg>
