<svg xmlns="http://www.w3.org/2000/svg" width="512" height="512"><g transform="matrix(4.84 0 0 4.84 -2409.443 -1592.395)" fill="#5d5e5e"><path d="M594.598 337.734H518.43c-9.163 0-12.414 5.828-12.414 10.82v61.12c0 .695.564 1.26 1.26 1.26h76.303c.61 0 1.14-.444 1.24-1.05 1.332-7.905 7.56-8.52 9.432-8.52.15 0 .24.005.254.006.352.02.69-.097.947-.335.256-.238.4-.572.4-.922v-61.12c0-.695-.564-1.26-1.26-1.26zm-79.656 39.368c.28.16.623.16.9-.002l5.672-3.292 5.67 3.292c.277.16.62.163.9.002.28-.16.45-.458.45-.78v-25.446h53.65v40.088h-73.65v-40.088h5.958v25.446c0 .322.172.618.45.78zm11.897-27.897c-.07.13-.107.272-.107.418v25.135l-4.77-2.77c-.28-.162-.624-.162-.903 0l-4.77 2.77v-24.915l2.406-4.638h10.242l-2.1 4zm-18.308 44.277h73.65v14.932h-73.65v-14.932zm76.17 10.034v-53.9c0-.696-.564-1.26-1.26-1.26h-54.127l1.654-3.15h57.3v55.183c-1.26.685-2.515 1.682-3.567 3.123zm8.633-4.63c-.823.07-1.992.25-3.268.697v-55.278c0-.497-.404-.9-.9-.9h-71.024c-.34 0-.65.19-.804.495l-2.323 4.482c-.044-.005-.083-.026-.13-.026h-6.35c.048-2.136.983-8.102 9.89-8.102h74.908v58.632z"/><circle cx="545.058" cy="400.901" r="3.564"/><path d="M569.414 418.48c-.206-.13-.44-.187-.675-.186v-.007c-1.046 0-3.53-1.357-3.8-3.445h-2.518c.145 2.09 1.496 3.823 3.1 4.87l-2.65 1.287c-3.867-.4-4.724-3.33-4.744-5.76 0-.03 0-.06-.004-.09v-.31h-2.52v.41c0 .037 0 .075.005.112.07 4.4 2.37 7.328 6.23 8.04v.456h-35.107v-.46c3.836-.707 6.133-3.61 6.225-7.97.002-.04.004-.08.004-.122v-.47h-2.52v.37c-.002.026-.004.055-.004.082-.03 2.47-.932 5.473-5.046 5.74-.663.043-1.178.602-1.178 1.266v2.82c0 .695.564 1.26 1.26 1.26H563.1c.15 0 .3-.036.445-.09.023-.01.045-.015.067-.024.014-.007.03-.01.043-.016l5.646-2.772c.436-.212.71-.65.71-1.13v-2.802c0-.434-.225-.837-.593-1.067z"/></g></svg>