<svg xmlns="http://www.w3.org/2000/svg" width="512" height="512"><path d="M443.374 266.495c-2.108-.835-4.412.145-5.668 2.42-8.008 14.475-18.656 22.13-30.792 22.13-12.124 0-22.768-7.655-30.776-22.13-1.252-2.27-3.56-3.25-5.652-2.425-5.532 2.17-20.192 12.56-28.72 20.32-10.176-18.655-24.228-33.12-43.588-40.795-2.108-.835-4.408.14-5.668 2.42-9.504 17.155-22.128 26.225-36.5 26.225-14.408 0-27.036-9.065-36.528-26.22-1.252-2.275-3.56-3.255-5.668-2.42-19.364 7.675-33.416 22.135-43.592 40.785-8.528-7.76-23.172-18.14-28.708-20.31-2.088-.82-4.396.155-5.652 2.425-8.008 14.475-18.652 22.13-30.78 22.13-12.132 0-22.78-7.655-30.792-22.13-1.26-2.28-3.556-3.25-5.668-2.42-54 21.405-60.244 110.125-60.244 175h10.08c0-93.76 15.864-145.295 49.84-161.52 9.644 15.305 22.584 23.665 36.784 23.665 14.132 0 27.008-8.28 36.632-23.445 6.14 3.645 17.244 11.735 23.248 17.37-17.56 40.18-20.68 95.175-20.68 144.375h10.08c0-72.555 6.808-158.31 59.1-182.46 11.108 17.95 26.088 27.77 42.548 27.77 16.424 0 31.4-9.82 42.52-27.775 52.272 24.15 59.084 109.905 59.084 182.46h10.08c0-49.2-3.12-104.185-20.668-144.365 6.008-5.635 17.12-13.735 23.264-17.385 9.624 15.165 22.496 23.445 36.628 23.445 14.208 0 27.144-8.36 36.784-23.665 33.976 16.225 49.84 67.76 49.84 161.52h10.08c-.004-64.865-6.248-153.59-60.248-174.995zM104.65 116.82c-22.252 0-40.284 13.08-40.284 67.365 0 54.32 18.032 82.28 40.284 82.28 22.212 0 40.252-27.96 40.252-82.28 0-54.285-18.044-67.365-40.252-67.365zm24.22 97.32c-5.908 18.935-16.032 30.235-27.088 30.235-9.992 0-19.212-9.125-25.296-25.04-.856-2.245-.096-4.93 1.7-6 1.792-1.075 3.94-.12 4.8 2.12 4.836 12.66 11.688 19.92 18.796 19.92 7.976 0 15.592-9.16 20.38-24.5.728-2.32 2.828-3.45 4.664-2.56 1.848.9 2.768 3.51 2.044 5.825zm278.476-97.32c-22.216 0-40.252 13.08-40.252 67.365 0 54.32 18.04 82.28 40.252 82.28 22.252 0 40.284-27.96 40.284-82.28.004-54.285-18.028-67.365-40.284-67.365zm26.372 105.695c-6.084 15.915-15.304 25.04-25.296 25.04-11.064 0-21.188-11.305-27.084-30.235-.72-2.315.196-4.925 2.052-5.83 1.856-.895 3.936.245 4.66 2.56 4.776 15.34 12.392 24.5 20.372 24.5 7.108 0 13.96-7.26 18.796-19.92.864-2.24 3.012-3.195 4.8-2.12 1.8 1.075 2.556 3.76 1.7 6.005zM256.006 70.055c-25.892 0-46.852 17.66-46.852 80.82 0 63.255 20.96 95.775 46.852 95.775 25.868 0 46.86-32.52 46.86-95.775 0-63.155-20.992-80.82-46.86-80.82zm28.656 121.915c-4.908 16.725-14.088 27.27-25.196 28.935-1.004.15-2.012.225-3.02.225-11.256 0-22.588-9.24-30.824-25.355-1.072-2.095-.58-4.88 1.096-6.215 1.676-1.34 3.904-.73 4.972 1.37 7.444 14.58 17.492 22.465 26.916 21.04 8.32-1.25 15.352-9.665 19.292-23.1.684-2.33 2.752-3.53 4.616-2.675 1.872.855 2.828 3.44 2.148 5.775zm-35.108 222.415v-32.01c0-.55 0-.55-.472-.55h-8.348c-.52 0-.52 0-.52-.615v-11.79c0-.62 0-.62.504-.62 2.812 0 5.616-.01 8.428.01.32 0 .42-.105.412-.51-.012-3.125.012-6.235-.004-9.355-.012-1.77.136-3.51.508-5.22.816-3.805 2.484-6.89 5.284-9.015 2.6-1.985 5.5-2.585 8.52-2.535 1.392.015 2.78.085 4.168.155 1.108.065 2.228.175 3.344.265.284.03.42.135.42.545l-.004 10.775c0 .37-.072.49-.404.49-1.552-.03-3.108-.035-4.668-.005-.804.01-1.624.045-2.416.175-1.28.205-2.356.87-2.964 2.345-.38.93-.524 1.925-.524 2.945-.032 2.79-.024 5.58-.024 8.365 0 .565 0 .575.472.575h9.6c.168 0 .328-.015.536 0l-1.296 12.46c-.048.485-.204.56-.552.56-2.76-.01-5.524-.005-8.284-.005-.476 0-.476 0-.476.55v32.01h-11.24z" fill="#5d5e5e"/><path d="M127.258 380.34v22.74c0 3.425-1.832 6.2-4.528 6.84-.28.07-.58.095-.864.095-12.248.005-24.48.005-36.732 0-2.908 0-5.352-3.025-5.404-6.665v-45.83c0-2.905 1.404-5.455 3.56-6.46.6-.295 1.228-.445 1.88-.445 12.216 0 24.428-.005 36.648 0 2.996 0 5.436 3.07 5.436 6.82.004 7.64.004 15.27.004 22.905zm-9.596-4.575c1.672 8.22-1.352 15.655-5.572 19.325-4.936 4.28-10.148 4.7-15.508 1.31-2.5-1.57-4.416-3.995-5.792-7.025-1.924-4.28-2.392-8.83-1.456-13.6h-4.12v24.97c0 1.46.772 2.415 1.94 2.415h32.684c1.172 0 1.932-.955 1.932-2.405v-24.99h-4.108zm-5.024 4.575c0-6.33-4.076-11.435-9.12-11.445-5.048-.005-9.144 5.085-9.156 11.395-.012 6.325 4.08 11.44 9.14 11.455 5.044 0 9.136-5.1 9.136-11.405zm9.136-17.145v-3.375c0-1.36-.776-2.35-1.872-2.35-1.8-.01-3.588-.01-5.384 0-1.096 0-1.884.99-1.884 2.345v6.735c0 1.345.792 2.34 1.864 2.345 1.804.005 3.6.005 5.412 0 1.076-.005 1.864-.985 1.864-2.34.012-1.115 0-2.24 0-3.36zm260.428 40.165c6.408.605 12.156-1.375 17.36-6.235-5.984-1.295-10.084-5.21-10.952-10.445 1.656.225 3.304.35 5.116-.295-3.304-1.075-5.764-3.23-7.516-6.605-1.304-2.515-1.956-5.505-1.824-8.2 1.604.975 3.248 1.7 5.224 1.78-2.584-2.415-4.248-5.395-4.884-9.175-.632-3.73-.212-7.28 1.328-10.725 6.468 9.5 14.592 14.725 24.568 15.62-.056-.56-.1-1.045-.152-1.53-.648-6.285 1.976-12.43 6.5-15.26 4.56-2.84 10.048-1.795 13.668 2.63.34.415.644.475 1.072.34 2.396-.705 4.66-1.805 6.956-3.47-.916 3.5-2.564 6.05-4.796 8.085 2.184-.225 4.224-1.03 6.22-2.065.048.065.092.125.148.185-.908 1.35-1.764 2.755-2.744 4.025-.844 1.105-1.836 2.02-2.724 3.065-.224.265-.432.715-.428 1.08.088 11.77-2.98 22.075-9.372 30.71-6.492 8.77-14.692 12.84-24.184 13.025-6.34.115-12.24-1.88-17.708-5.87-.296-.205-.58-.445-.876-.67z" fill="#5d5e5e" fill-rule="evenodd"/></svg>