<svg xmlns="http://www.w3.org/2000/svg" width="512" height="512"><path d="M317.43 207.377c-3.632 16.254-5.577 33.473-5.186 51.574l-.072-.013c.06.69.044 1.366-.143 2.022-2.296 7.923-23 3.184-49.936-3.428-29.665-7.29-54.874-16.993-55.777-24.712h-.018c-1.17-7.455-2.49-14.888-4.007-22.294l-149.133 39.8 192.856 51.683 212.707-56.76-141.298-37.87zM33.884 438.235l202.305 54.483V316.37L33.88 261.887zm219.072 54.995L478 433.177v-176.36l-225.044 60.055z" fill="none"/><path d="M491.88 245.087c0-3.14-2.11-5.89-5.145-6.705l-165.857-44.45C351.646 87.31 452.275 26.446 424.532 38.98 354.026 70.845 294.43 82.945 241.71 51.576c30.024 47.954 18.404 97.907 18.26 98.497-.104.43-.49.727-.925.727-.04 0-.083 0-.12-.005-.48-.06-.84-.474-.828-.965 1.554-82.087-37.66-110.866-50.763-118.172C120.028-12.23 55.67 12.78 72.78 22.93c77.97 46.256 110.8 108.41 126.503 174.033L25.15 243.43c-3.04.81-5.15 3.91-5.15 7.057 0 .336.115.64.16.96-.095.45-.16.914-.16 1.382v190.725c0 3.135 2.104 5.884 5.134 6.705l216.185 58.22c.59.16 1.2.237 1.804.237.115 0 .22-.05.33-.056.816.33 1.675.547 2.557.547.596 0 1.2-.078 1.79-.232l238.926-63.756c3.04-.81 5.15-3.567 5.15-6.714V247.782c0-.54-.06-1.064-.18-1.582.06-.374.18-.738.18-1.113zm-255.69 247.63l-202.307-54.48v-176.35L236.19 316.37v176.348zm9.83-190.71L53.163 250.32l149.133-39.8c1.51 7.407 2.838 14.84 4.006 22.295h.017c.9 7.72 26.11 17.422 55.774 24.712 26.94 6.61 47.64 11.35 49.932 3.426.192-.656.208-1.333.142-2.022l.07.02c-.39-18.1 1.56-35.32 5.186-51.573l141.292 37.87-212.704 56.76zM478 433.177l-225.044 60.047v-176.36L478 256.814v176.364z" fill="#5d5e5e"/></svg>